<svg width="174" height="174" viewBox="0 0 174 174" fill="none" xmlns="http://www.w3.org/2000/svg">
<g clip-path="url(#clip0_53_102)">
<path d="M166.244 93.2629L70.5208 146.313L33.3616 98.7188L138.264 79.781L166.244 93.2629Z" fill="#000355"/>
<path d="M76.7666 79.7852L112.034 116.951L164.844 76.9322L169.96 54.6388L129.028 10.9658L76.7666 79.7852Z" fill="#0070C5"/>
<path d="M164.094 77.5751L153.448 65.1412L168.482 52.9578L169.726 54.4946L156.27 65.3978L165.595 76.2898L164.094 77.5751ZM133.083 81.8343L98.3987 60.2896L128.539 16.7726L163.381 52.6084L133.083 81.8343ZM101.207 59.7071L132.819 79.3426L160.582 52.5622L128.798 19.8726L101.207 59.7071Z" fill="#000355"/>
<path d="M126.328 29.4015L127.716 27.9947L153.084 53.0212L151.696 54.428L126.328 29.4015Z" fill="#000355"/>
<path d="M122.03 37.5037L123.359 36.0398L147.126 57.6189L145.797 59.0828L122.03 37.5037Z" fill="#000355"/>
<path d="M115.067 46.9622L116.243 45.3733L140.293 63.1704L139.118 64.7592L115.067 46.9622Z" fill="#000355"/>
<path d="M109.137 54.5144L110.311 52.9239L133.538 70.0679L132.364 71.6584L109.137 54.5144Z" fill="#000355"/>
<path d="M33.3629 0L4.03979 42.3965L65.9858 89.1743L106.003 51.8975L60.8695 1.82836L33.3629 0Z" fill="#00D98D"/>
<path d="M47.1078 16.532L32.6831 2.89743L34.0408 1.46057L47.152 13.855L59.3235 3.08808L60.6332 4.56776L47.1078 16.532Z" fill="#000355"/>
<path opacity="0.4" d="M32.634 10.0867L91.6054 57.3623L64.0967 78.4473L8.25562 42.208L32.634 10.0867Z" fill="white"/>
<path d="M15.5442 42.0991L34.3188 17.7171L35.8851 18.9232L17.1105 43.3052L15.5442 42.0991Z" fill="#000355"/>
<path d="M21.8145 46.9473L39.7647 24.2948L41.3138 25.5224L23.3636 48.1748L21.8145 46.9473Z" fill="#000355"/>
<path d="M29.0498 51.3223L44.9199 30.7339L46.485 31.9404L30.615 52.5287L29.0498 51.3223Z" fill="#000355"/>
<path d="M35.8069 56.0974L51.2917 36.1654L52.8526 37.378L37.3677 57.31L35.8069 56.0974Z" fill="#000355"/>
<path d="M45.7026 112.931L59.955 53.7258L122.999 80.5871L94.3102 126.894L45.7026 112.931Z" fill="#FFEC93"/>
<path d="M52.6882 99.5735L61.4599 60.2876L96.9165 73.6292L84.3501 108.715L52.6882 99.5735Z" fill="#FF6969"/>
<path d="M109.724 87.6089C109.724 93.2146 104.221 97.7587 97.4322 97.7587C90.6432 97.7587 85.1394 93.2146 85.1394 87.6089C85.1394 82.0032 90.6435 77.4595 97.4322 77.4595C104.221 77.4595 109.724 82.0032 109.724 87.6089Z" fill="#00D98D"/>
<path d="M64.5894 115.017L73.8144 83.0588L93.0866 123.911L64.5894 115.017Z" fill="#FF3C3C"/>
<path d="M62.7771 63.958L76.7664 69.3877L71.6722 79.7852L60.1413 74.9883L62.7771 63.958ZM166.244 93.2631L147.702 148.294L78.1336 174L44.4208 158.978L33.3616 98.7189L72.7464 116.953L166.244 93.2631Z" fill="#FFD500"/>
<path d="M78.8379 119.464L159.471 97.7588L145.304 146.313L82.2149 170.199L78.8379 119.464Z" fill="#FFEC93"/>
<path d="M118.679 148.162L114.823 134.092L104.52 136.467L119.803 110.59L138.636 127.619L127.792 130.189L127.726 146.22L118.679 148.162Z" fill="white"/>
<path d="M106.44 140.684L110.455 140.472L111.111 152.88L136.464 144.404L135.885 133.455L138.94 132.378L137.541 147.457L109.402 155.166L106.44 140.684Z" fill="white"/>
<path d="M72.5024 119.215L74.472 119.048L78.9206 171.761L76.9511 171.927L72.5024 119.215Z" fill="#000355"/>
</g>
<defs>
<clipPath id="clip0_53_102">
<rect width="174" height="174" fill="white"/>
</clipPath>
</defs>
</svg>
