<svg width="144" height="144" viewBox="0 0 144 144" fill="none" xmlns="http://www.w3.org/2000/svg">
<path fill-rule="evenodd" clip-rule="evenodd" d="M140.25 58.9104C135.013 58.9104 122.427 60.3141 116.466 54.2869C110.539 48.2934 102.507 45.5566 94.5655 43.3766C88.5586 41.7277 77.5322 40.1839 77.2062 49.4713C77.128 51.7044 74.988 52.729 73.3629 55.4386C72.0976 57.7859 73.8439 57.359 73.1211 60.4283C72.7602 62.5964 74.2044 63.6806 74.5661 65.666C74.9267 68.3758 72.9411 69.2781 72.2182 71.4462C71.8577 73.251 72.398 75.2389 72.2182 76.8645C71.8577 82.4605 67.6159 84.508 72.3043 88.4799C74.1985 90.0833 76.6578 91.6284 78.5427 93.458C80.6279 95.4796 81.5867 98.6684 83.8195 100.43C92.6719 107.418 105.222 104.556 114.996 101.477C119.677 100 124.203 97.6154 128.928 96.37C134.249 94.9677 138.588 96.653 144 95.9754L140.25 58.9104Z" fill="#FFA4AC"/>
<path d="M77.1448 50.0034C76.7741 51.8861 74.8526 52.9535 73.3629 55.4386C72.0975 57.7859 73.8438 57.359 73.121 60.4282C72.7601 62.5964 74.2044 63.6806 74.566 65.666C74.9266 68.3758 72.941 69.278 72.2182 71.4462C71.8576 73.251 72.3979 75.2389 72.2182 76.8645C71.8576 82.4619 67.613 84.5094 72.3082 88.4824C73.3108 89.3846 74.3807 89.991 75.4253 90.5155C75.5628 89.4794 75.3575 88.3161 74.6867 86.9749C73.6042 84.8067 73.0614 86.432 74.5073 84.2653C75.0478 83.3602 76.3129 82.9994 76.674 81.736C77.5774 79.0276 75.7701 78.1239 75.4098 75.7763C75.0478 73.6082 75.0478 75.0544 76.4929 73.0679C77.2151 72.1642 78.1185 71.4423 78.2996 70.358C79.2027 67.4679 77.5774 66.0229 77.0354 63.6767C76.4932 61.6877 76.8549 62.2302 78.1185 60.0632C78.6599 59.1609 79.0219 58.6192 79.2027 57.3547C79.5636 55.3683 79.0219 52.8404 77.9377 51.2134C77.7036 50.791 77.4386 50.3866 77.1448 50.0034Z" fill="#FD6085"/>
<path d="M77.1151 56.4604C80.1973 43.3468 49.8645 33.3701 40.9736 39.2971C36.6393 42.1861 33.0269 46.8836 28.5123 50.1348C23.4509 53.7781 19.0249 56.7293 12.5452 56.1645C8.35987 55.8023 4.17319 55.1531 0 54.6595L1.05975 96.736L16.5915 97.0917C21.4681 97.0917 27.0672 96.5503 32.1241 97.2723C39.7088 98.7174 45.8502 101.607 53.9769 101.426C58.4932 101.245 62.1045 99.2588 65.8974 96.91C70.4126 94.0199 75.2887 91.4921 72.5802 86.0752C71.4971 83.907 70.954 85.5324 72.3985 83.3653C72.9416 82.4617 74.205 82.102 74.5664 80.8375C75.4692 78.129 73.6644 77.2254 73.3025 74.8766C72.9416 72.7096 72.9416 74.1547 74.3858 72.1682C75.1087 71.266 76.0106 70.544 76.1926 69.4598C77.0948 66.5696 75.4689 65.1246 74.927 62.777C74.3858 60.7905 74.7467 61.3319 76.0106 59.1649C76.543 58.252 76.9056 57.3483 77.1151 56.4604Z" fill="#29AEFD"/>
<path d="M17.8561 97.1034C17.8952 98.3291 16.9561 99.3534 15.7605 99.3911L12.2404 99.5027C11.0442 99.5404 10.0436 98.5769 10.0045 97.3526L9.76933 89.936L12.2809 79.3773L9.0994 68.8057L8.65502 54.793C8.61536 53.5673 9.55418 52.543 10.7506 52.5039L14.2702 52.3936C15.4666 52.356 16.4676 53.3181 16.5064 54.5438L16.9539 68.6502L16.2845 77.9927L17.6151 89.5023L17.8561 97.1034Z" fill="#F9D555"/>
<path d="M12.8561 66.9951C11.4698 67.0406 10.1892 67.6585 9.09546 68.6986L9.77046 89.9726C10.9343 90.9488 12.2606 91.4891 13.6551 91.4436C15.1266 91.3969 16.4811 90.7047 17.6168 89.5454L16.9536 68.6505C15.7403 67.5547 14.3354 66.9472 12.8561 66.9951Z" fill="#FD6085"/>
<path d="M81.9428 69.9478C80.6049 71.0802 79.1534 72.0693 78.158 73.5445C76.9281 75.3687 77.7511 77.1785 79.4675 78.2706C80.3968 78.8626 81.2509 77.3863 80.3267 76.7982C79.7772 76.4503 79.2296 76.0321 79.2434 75.3284C79.2529 74.787 79.7246 74.2352 80.0559 73.8522C80.9545 72.8121 82.1073 72.0358 83.1488 71.1541C83.9886 70.444 82.7759 69.2442 81.9428 69.9478ZM79.1112 81.0387C79.0845 81.5893 78.4983 82.1476 78.1572 82.5397C77.6155 83.1629 77.0575 83.7718 76.596 84.4615C75.5804 85.9766 75.8959 87.6281 77.3137 88.7449C78.1656 89.4188 79.3818 88.2204 78.5183 87.54C78.05 87.1713 77.5522 86.743 77.6965 86.0936C77.8399 85.4509 78.365 84.8887 78.781 84.4058C79.6236 83.4268 80.7486 82.4154 80.8156 81.0389C80.8693 79.9404 79.1643 79.9454 79.1112 81.0387ZM77.9997 61.2513C77.8025 63.6546 79.8025 65.4931 81.8767 66.2865C82.905 66.68 83.3448 65.0324 82.3295 64.644C80.9224 64.1052 79.5719 62.8626 79.7038 61.2513C79.7938 60.1556 78.0888 60.1646 77.9997 61.2513ZM79.2625 53.2132C82.2865 53.2976 85.2649 52.6628 88.2771 52.5134C91.4176 52.3576 94.5423 52.9755 97.6838 52.7328C98.7725 52.6484 98.7813 50.9438 97.6838 51.0267C94.6525 51.2619 91.6355 50.7281 88.6028 50.797C85.4753 50.8684 82.3996 51.5954 79.2622 51.5099C78.1631 51.4798 78.1656 53.1834 79.2625 53.2132Z" fill="#074785"/>
<path d="M49.9948 112.751C49.6368 112.406 48.9179 107.543 48.2668 107.583C47.6118 107.623 47.0419 112.443 46.7371 112.761C46.1239 113.398 41.6422 113.85 41.6779 114.468C41.7151 115.085 46.1169 115.375 46.739 115.978C47.0861 116.313 47.8157 121.188 48.4684 121.149C49.1215 121.111 49.6801 116.304 49.999 115.975C50.5913 115.358 55.1085 114.886 55.0705 114.264C55.0337 113.646 50.5936 113.334 49.9948 112.751Z" fill="#29AEFD"/>
<path d="M94.3344 29.9202C93.9341 29.5332 93.1298 24.0969 92.401 24.1397C91.6695 24.1852 91.0336 29.5748 90.6913 29.9306C90.0062 30.6433 84.9957 31.1459 85.0354 31.8377C85.0779 32.5271 89.9992 32.8531 90.6927 33.5255C91.0814 33.9007 91.8985 39.3513 92.6277 39.3072C93.3576 39.2656 93.9828 33.8903 94.3377 33.523C95.0006 32.8348 100.05 32.3052 100.009 31.6105C99.9678 30.9183 95.0037 30.5704 94.3344 29.9202Z" fill="#FD6085"/>
<path d="M104.474 28.2321C104.617 27.9581 104.821 27.6113 104.977 27.3467C105.486 26.4858 105.797 25.9404 105.779 25.59C105.77 25.403 105.637 25.1979 105.071 24.4006C104.797 24.015 104.349 23.3867 104.126 22.9828C104.534 23.1645 105.175 23.5346 105.567 23.7605C106.398 24.2408 106.684 24.3952 106.888 24.3952L106.906 24.3941C107.242 24.3798 107.716 24.0473 108.527 23.4578C108.788 23.2708 109.129 23.023 109.399 22.8503C109.254 23.1361 109.039 23.4983 108.876 23.7762C108.373 24.6304 108.066 25.1707 108.082 25.5107C108.091 25.7002 108.228 25.9106 108.805 26.722C109.073 27.1012 109.513 27.7191 109.734 28.1151C109.32 27.932 108.67 27.5582 108.272 27.327C107.405 26.8272 107.165 26.7012 106.97 26.7012H106.951C106.606 26.7181 106.101 27.0725 105.306 27.6504C105.058 27.831 104.734 28.0644 104.474 28.2321ZM60.0052 111.18C60.1484 110.906 60.3515 110.56 60.5087 110.296C61.0177 109.435 61.3288 108.889 61.3116 108.538C61.3026 108.351 61.1691 108.146 60.6021 107.349C60.3284 106.963 59.8807 106.333 59.6565 105.931C60.0663 106.112 60.7064 106.483 61.099 106.708C61.929 107.189 62.2156 107.343 62.4198 107.343H62.4381C62.7736 107.328 63.2486 106.995 64.0597 106.407C64.3202 106.219 64.6613 105.971 64.9299 105.798C64.7851 106.085 64.5702 106.446 64.4079 106.725C63.9051 107.578 63.5977 108.118 63.6148 108.46C63.623 108.649 63.7594 108.858 64.3371 109.671C64.6051 110.049 65.0447 110.667 65.266 111.063C64.8517 110.881 64.2018 110.505 63.8027 110.275C62.9376 109.776 62.6971 109.649 62.5016 109.649H62.4828C62.1371 109.667 61.632 110.02 60.8383 110.598C60.5908 110.779 60.2657 111.015 60.0052 111.18Z" fill="#F9D555"/>
<path d="M36.2838 105.496C35.9261 105.148 35.2066 100.287 34.5547 100.325C33.9005 100.366 33.331 105.186 33.0255 105.505C32.4133 106.141 27.9307 106.592 27.9673 107.21C28.0033 107.827 32.4054 108.118 33.0281 108.72C33.374 109.057 34.1041 113.932 34.7572 113.893C35.4108 113.855 35.9688 109.047 36.2869 108.718C36.879 108.102 41.3964 107.626 41.3593 107.008C41.3227 106.387 36.8818 106.075 36.2838 105.496Z" fill="#FFA4AC"/>
<path d="M23.7703 79.8529C27.1701 80.9268 30.8826 80.8399 34.3498 80.1606C37.8908 79.4699 41.4534 77.9286 43.9829 75.2981C46.5862 72.5911 47.444 68.6932 47.482 65.046C47.5211 61.3107 46.6351 57.279 44.4768 54.1799C44.399 54.0707 44.3192 53.963 44.2375 53.8567C43.585 52.9919 42.1042 53.8399 42.7668 54.7176C44.8725 57.5119 45.6929 61.1211 45.7745 64.5659C45.8535 67.9299 45.1282 71.5603 42.7789 74.0921C40.4873 76.5618 37.1283 77.8535 33.8973 78.5181C30.7425 79.1661 27.311 79.183 24.2229 78.209C23.1727 77.8769 22.7261 79.5233 23.7703 79.8529ZM53.6669 50.3135C53.6987 54.6527 55.3753 58.5207 58.3447 61.6718C59.4011 62.7923 60.8487 63.6037 62.231 64.2427C63.8178 64.9751 65.5444 65.4982 67.305 65.4918C68.7372 65.4867 70.3906 64.9374 71.1618 63.6482C71.9094 62.3966 71.8801 60.623 71.8964 59.2193C71.9372 55.4618 71.4608 51.803 70.0981 48.2857C69.5387 46.8407 68.8668 45.4384 68.0782 44.1049C67.5188 43.1611 66.0453 44.0166 66.6058 44.9659C68.601 48.3352 69.793 52.0292 70.0714 55.9267C70.1848 57.5017 70.2441 59.0897 70.1378 60.6658C70.05 61.964 69.8878 63.1222 68.5302 63.5922C67.1059 64.0855 65.4567 63.6442 64.0892 63.1714C62.6262 62.6652 61.1684 61.8797 59.9847 60.8759C58.5691 59.6749 57.4568 57.9312 56.6392 56.2822C55.7206 54.4294 55.3862 52.365 55.3707 50.3135C55.3629 49.2164 53.6588 49.2153 53.6669 50.3135Z" fill="#074785"/>
<path d="M52.343 53.3118C49.6813 54.7077 47.7317 57.9601 49.5243 60.7931C51.4394 63.8182 55.5794 63.5339 58.6731 63.8092C59.7683 63.9065 59.759 62.2019 58.6731 62.1057C56.2471 61.89 53.2548 62.1811 51.355 60.3569C49.3508 58.4314 51.283 55.7891 53.2028 54.7828C54.1773 54.2726 53.3159 52.8014 52.343 53.3118Z" fill="#074785"/>
<path d="M50.8452 61.5123C49.2992 63.461 47.8572 65.1671 47.8862 67.7861C47.914 70.2867 49.0483 72.5201 51.1554 73.8768C53.5739 75.4389 56.8955 75.588 59.6801 75.6479C63.0396 75.7204 66.3924 75.379 69.7505 75.3686C70.8491 75.3647 70.8491 73.66 69.7505 73.6639C66.9026 73.6729 64.0628 73.9016 61.2163 73.9443C58.5419 73.9871 55.7364 73.9002 53.1925 72.9915C51.2041 72.2799 49.993 70.6726 49.6533 68.6251C49.2412 66.1413 50.6078 64.5351 52.0509 62.7174C52.7271 61.8655 51.5292 60.6502 50.8452 61.5123Z" fill="#074785"/>
<path d="M51.3894 72.673C48.9332 73.213 47.1394 75.4515 46.6728 77.8573C46.2107 80.2488 47.2561 82.7094 49.2392 84.0727C51.3745 85.5399 54.3422 85.5762 56.8192 85.6983C60.5643 85.8825 64.3176 85.727 68.0647 85.7216C69.1638 85.7202 69.1638 84.0156 68.0647 84.0167C64.978 84.0218 61.891 84.114 58.8046 84.0583C56.3166 84.0128 53.6456 84.0336 51.2693 83.1963C49.3711 82.5278 48.3308 80.9021 48.2743 78.9193C48.2169 76.8549 49.8453 74.754 51.8425 74.3153C52.916 74.0818 52.4604 72.4382 51.3894 72.673Z" fill="#074785"/>
<path d="M51.1861 83.8548C49.5891 84.5455 48.6112 86.3931 48.4096 88.051C48.1618 90.0946 49.2142 91.7526 50.8801 92.8562C51.6802 93.3821 52.6013 93.7222 53.4749 94.1064C54.6449 94.6205 55.8261 95.0606 57.0594 95.3995C59.6064 96.0954 62.2741 96.3083 64.9049 96.3175C66.0032 96.3215 66.0032 94.6179 64.9049 94.614C62.8177 94.6061 60.7474 94.4607 58.7008 94.0388C56.7869 93.6468 55.0091 92.9366 53.2293 92.1522C51.8203 91.5329 50.2278 90.6447 50.0757 88.9373C49.9511 87.5479 50.7375 85.8913 52.0458 85.3266C53.0527 84.8909 52.1837 83.4236 51.1861 83.8548Z" fill="#074785"/>
<path d="M134.996 98.0161C135.128 99.3276 134.269 100.488 133.078 100.608L130.114 100.906C128.922 101.026 127.85 100.058 127.719 98.7457L127.027 91.8446L127.637 78.4363L124.85 70.1462L123.537 57.052C123.405 55.7406 124.264 54.5798 125.455 54.4606L128.419 54.1633C129.611 54.0438 130.683 55.0113 130.815 56.3225L132.106 69.1944L131.825 79.6716L134.317 91.2422L134.996 98.0161Z" fill="#FD6085"/>
<path d="M65.5784 52.5442C62.0771 52.7987 63.0187 56.5236 64.0627 58.762C64.8418 60.2903 66.4286 63.248 68.4452 63.7219C68.8378 63.5427 69.1953 63.3 69.5001 62.9726C70.7641 61.5301 70.2229 55.5693 70.0413 53.5828C70.0373 53.5437 70.0303 53.506 70.0258 53.4672C68.6043 52.9635 66.9976 52.3754 65.5784 52.5442Z" fill="white"/>
<path d="M132.099 69.121C130.977 68.377 129.756 68.0109 128.511 68.129C127.121 68.2615 125.875 68.9781 124.847 70.1194L127.029 91.8645C128.22 92.728 129.533 93.1602 130.874 93.0331C132.166 92.9099 133.336 92.2799 134.321 91.275L132.099 69.121Z" fill="#074785"/>
<path d="M20.9449 75.6945C21.166 82.4473 17.8714 88.0329 13.5869 88.1718C9.30344 88.3133 5.65113 82.9535 5.43035 76.2021C5.21013 69.4507 8.50413 63.8637 12.7881 63.7233C17.0721 63.5844 20.7233 68.9442 20.9449 75.6945Z" fill="#FFA4AC"/>
<path d="M16.2843 68.8806C16.286 67.0927 14.8645 66.0099 13.0541 65.9435C12.1271 65.9084 11.9964 67.2691 12.9276 67.3028C13.9426 67.3405 14.7191 67.7132 14.8423 68.7259C14.9785 69.84 14.1243 70.4137 13.037 70.2801C12.115 70.1645 11.9924 71.5266 12.9115 71.6397C14.7855 71.8731 16.2829 70.6826 16.2843 68.8806ZM16.4522 83.0885C16.3993 81.302 14.9458 80.2569 13.1337 80.24C12.2053 80.231 12.1165 81.5943 13.0482 81.6021C14.0635 81.6125 14.8516 81.9644 15.0052 82.9718C15.1736 84.0819 14.3378 84.6793 13.2479 84.5741C12.3215 84.4844 12.2402 85.8465 13.1621 85.9362C15.044 86.119 16.5045 84.8883 16.4522 83.0885ZM12.1004 78.3326C12.4928 78.352 12.8649 78.1911 12.9492 77.7887C13.0181 77.4602 12.7751 77.0135 12.3814 76.9913C11.8152 76.9629 10.8314 76.903 10.596 76.3045C10.2639 75.4568 11.3486 74.9998 12.034 74.9087C12.9518 74.7905 12.8542 73.4284 11.9294 73.5494C10.3989 73.7519 9.02017 74.6724 9.13211 76.2668C9.23308 77.7018 10.7856 78.2626 12.1004 78.3326Z" fill="#074785"/>
<path d="M115.699 37.5816C115.294 37.1882 114.479 31.6819 113.741 31.7246C113 31.7702 112.355 37.2323 112.009 37.592C111.316 38.3126 106.238 38.8228 106.28 39.5228C106.321 40.2212 111.307 40.5525 112.011 41.2328C112.405 41.6134 113.232 47.1351 113.971 47.0924C114.711 47.0482 115.343 41.603 115.703 41.2314C116.374 40.5342 121.49 39.9953 121.448 39.293C121.407 38.5919 116.376 38.2386 115.699 37.5816Z" fill="#29AEFD"/>
<path fill-rule="evenodd" clip-rule="evenodd" d="M121.177 92.5823C120.038 91.0504 117.663 92.816 118.801 94.3469C119.939 95.8803 122.314 94.1146 121.177 92.5823ZM94.3003 97.8096C93.1616 96.2763 90.787 98.0419 91.9252 99.5742C93.0623 101.106 95.4383 99.3416 94.3003 97.8096ZM115.664 95.205C110.413 98.3274 103.877 100.359 97.8103 98.6731C96.403 98.2821 95.8571 100.476 97.2619 100.867C103.893 102.711 111.078 100.565 116.827 97.145C118.081 96.3997 116.917 94.4597 115.664 95.205ZM40.5903 45.516C39.9921 44.9189 38.7557 44.785 38.1806 45.516C35.3458 49.1191 31.9587 52.3624 27.8446 54.4541C25.8849 55.4486 27.6109 58.3908 29.5656 57.3974C33.9123 55.1862 37.5936 51.7364 40.5906 47.9271C41.1649 47.1987 41.3055 46.2329 40.5903 45.516ZM42.5667 40.8135C40.3684 40.8135 40.3684 44.2231 42.5667 44.2231C44.7646 44.2228 44.7646 40.8135 42.5667 40.8135ZM22.5411 56.9755C20.3434 56.9755 20.3434 60.3851 22.5411 60.3851C24.7396 60.3851 24.7396 56.9755 22.5411 56.9755ZM132.042 68.2247C131.493 68.2247 131.493 69.0766 132.042 69.0766C132.593 69.0766 132.593 68.2247 132.042 68.2247ZM18.8292 73.1468C19.0814 75.5813 19.1771 77.9494 18.5727 80.3426C18.4377 80.8775 19.2794 81.0111 19.4133 80.4829C20.0366 78.0186 19.9364 75.5659 19.676 73.0588C19.6206 72.5106 18.7726 72.6004 18.8292 73.1468ZM18.801 70.9787C18.2548 71.0372 18.3437 71.8849 18.8902 71.8278C19.4367 71.7693 19.3481 70.9227 18.801 70.9787ZM18.5378 81.5188C17.991 81.5759 18.0805 82.4224 18.6269 82.3654C19.1734 82.3083 19.0845 81.4617 18.5378 81.5188ZM43.7015 95.5959C40.6083 94.5727 37.4462 93.7639 34.3848 92.6408C32.8346 92.0733 32.1708 94.5454 33.705 95.1077C36.7659 96.2282 39.9282 97.0384 43.0217 98.0616C44.5925 98.5783 45.2599 96.11 43.7015 95.5959ZM48.2479 96.4605C46.5989 96.4605 46.5989 99.017 48.2479 99.017C49.8969 99.017 49.8969 96.4605 48.2479 96.4605ZM114.823 56.7249C112.303 54.1996 109.678 51.4886 105.966 51.0108C105.274 50.9224 104.688 51.6599 104.688 52.2896C104.688 53.0532 105.276 53.479 105.966 53.5673C108.843 53.9374 111.095 56.6082 113.016 58.5322C114.181 59.7008 115.989 57.8949 114.823 56.7249ZM116.875 58.7361C115.225 58.7361 115.225 61.2927 116.875 61.2927C118.523 61.2927 118.523 58.7361 116.875 58.7361Z" fill="white"/>
<path d="M136.993 77.2044C137.646 84.0832 134.715 89.987 130.448 90.3908C126.182 90.7958 122.193 85.5477 121.54 78.6717C120.887 71.7954 123.817 65.8917 128.085 65.4867C132.352 65.0826 136.339 70.3282 136.993 77.2044Z" fill="#A089E4"/>
<path d="M127.151 85.3906C127.415 87.1577 128.98 88.0197 130.781 87.8158C131.704 87.712 131.63 86.3485 130.704 86.4526C129.695 86.5656 128.873 86.3136 128.6 85.3295C128.301 84.2481 129.059 83.5534 130.155 83.5262C131.084 83.5028 131.003 82.1382 130.076 82.1629C128.188 82.211 126.885 83.6094 127.151 85.3906ZM124.876 71.3657C125.194 73.125 126.786 73.9417 128.581 73.6911C129.5 73.5626 129.385 72.2019 128.463 72.3304C127.456 72.4719 126.626 72.241 126.324 71.2659C125.992 70.1946 126.73 69.4794 127.825 69.4209C128.754 69.3717 128.631 68.0121 127.706 68.0616C125.819 68.1587 124.557 69.5933 124.876 71.3657ZM129.884 75.4231C129.494 75.4607 129.15 75.6762 129.127 76.0851C129.108 76.4212 129.414 76.8279 129.806 76.7902C130.371 76.7357 131.353 76.6488 131.673 77.2045C132.128 77.994 131.123 78.6054 130.458 78.7964C129.569 79.0509 129.867 80.3843 130.764 80.1272C132.247 79.7014 133.474 78.5849 133.127 77.0253C132.814 75.6202 131.196 75.2971 129.884 75.4231Z" fill="#074785"/>
<path fill-rule="evenodd" clip-rule="evenodd" d="M133.603 69.9701C133.322 69.4987 132.585 69.9273 132.868 70.3998C134.262 72.7356 135.157 75.2792 135.11 78.0239C135.101 78.5743 135.953 78.5743 135.963 78.0239C136.013 75.1363 135.072 72.429 133.603 69.9701Z" fill="white"/>
</svg>
