<svg width="72" height="75" viewBox="0 0 72 75" fill="none" xmlns="http://www.w3.org/2000/svg">
<path d="M31.7362 68.1792L52.979 75L71.5772 57.5651L50.1876 50.8811L31.7362 68.1792ZM41.3017 67.1145C40.1765 68.1693 38.343 68.6259 37.2052 68.1339C36.0685 67.6419 36.0579 66.3886 37.1839 65.3338C38.309 64.2789 40.1426 63.8223 41.2804 64.3143C42.418 64.8064 42.4267 66.0596 41.3017 67.1145ZM48.1615 69.3672C47.0363 70.422 45.2028 70.8787 44.065 70.3866C42.9283 69.8946 42.9177 68.6413 44.0437 67.5865C45.1698 66.5316 47.0023 66.075 48.1402 66.567C49.277 67.0591 49.2867 68.3123 48.1615 69.3672ZM61.9924 59.2804C63.1176 58.2256 64.9511 57.769 66.0889 58.261C67.2256 58.753 67.2362 60.0063 66.1112 61.0611C64.9862 62.116 63.1525 62.5726 62.0147 62.0806C60.8769 61.5885 60.8674 60.3353 61.9924 59.2804ZM55.1529 57.1727C56.278 56.1178 58.1115 55.6612 59.2494 56.1532C60.386 56.6453 60.3966 57.8985 59.2707 58.9534C58.1455 60.0082 56.312 60.4648 55.1742 59.9728C54.0375 59.4808 54.0279 58.2275 55.1529 57.1727ZM54.9799 68.6748C56.1166 69.1668 56.1272 70.4201 55.0013 71.4749C53.8761 72.5298 52.0426 72.9864 50.9048 72.4944C49.7669 72.0024 49.7575 70.7491 50.8825 69.6942C52.0086 68.6405 53.8421 68.1837 54.9799 68.6748ZM52.3894 53.8996C53.5261 54.3917 53.5366 55.6449 52.4107 56.6998C51.2855 57.7546 49.452 58.2112 48.3142 57.7192C47.1775 57.2272 47.167 55.9739 48.2929 54.9191C49.4181 53.8642 51.2517 53.4085 52.3894 53.8996ZM71.9223 55.1556L64.899 35.4017L43.8283 28.8165L50.8515 48.5695L71.9223 55.1556ZM56.2761 39.6662C57.063 38.9286 58.6443 39.214 59.808 40.3052C60.9717 41.3963 61.2771 42.8788 60.4895 43.6163C59.7026 44.354 58.1213 44.0685 56.9577 42.9773C55.7938 41.8864 55.4883 40.4038 56.2761 39.6662ZM21.5185 0L1.652 9.31188L21.5183 18.6238L41.3836 9.31188L21.5185 0ZM21.5185 11.2012C19.8734 11.2012 18.5385 10.3549 18.5385 9.31188C18.5385 8.268 19.8724 7.42253 21.5185 7.42253C23.1645 7.42253 24.4985 8.26889 24.4985 9.31188C24.4974 10.3558 23.1636 11.2012 21.5185 11.2012ZM26.625 35.7035C27.5742 35.3755 28.3677 35.8946 28.6422 36.8897L40.54 25.7355L42.9574 26.4912V11.2439L22.7913 20.6972V42.3749L24.8298 40.4638C24.622 40.1185 24.4974 39.6708 24.4974 39.1408C24.4974 37.6482 25.4505 36.1095 26.625 35.7035ZM39.6015 15.3743C40.7769 14.9682 41.7289 15.8482 41.7289 17.3397C41.7289 18.8312 40.7769 20.3699 39.6015 20.7759C38.4261 21.182 37.474 20.302 37.474 18.8105C37.4739 17.3188 38.4261 15.7803 39.6015 15.3743ZM33.539 25.1329C34.7143 24.7268 35.6664 25.6068 35.6664 27.0983C35.6664 28.5898 34.7143 30.1285 33.539 30.5345C32.3636 30.9406 31.4115 30.0606 31.4115 28.5691C31.4115 27.0776 32.3645 25.5389 33.539 25.1329ZM24.4974 24.8093C24.4974 23.3178 25.4494 21.7791 26.6248 21.3731C27.8002 20.9671 28.7523 21.8471 28.7523 23.3386C28.7523 24.8302 27.8002 26.3688 26.6248 26.7748C25.4496 27.1808 24.4974 26.301 24.4974 24.8093ZM0.0775146 35.9001L19.9593 45.029L20.2444 44.7617V20.6972L0.0775146 11.2439V35.9001ZM16.3616 35.7035C17.537 36.1095 18.489 37.6482 18.489 39.1397C18.489 40.6312 17.537 41.5112 16.3616 41.1052C15.1862 40.6992 14.2341 39.1604 14.2341 37.6689C14.2341 36.1775 15.1873 35.2975 16.3616 35.7035ZM10.161 24.8311C11.3364 25.2371 12.2885 26.7757 12.2885 28.2673C12.2885 29.7588 11.3364 30.6388 10.161 30.2328C8.98564 29.8268 8.03358 28.288 8.03358 26.7965C8.03339 25.3051 8.98658 24.4251 10.161 24.8311ZM3.77945 15.3743C4.95484 15.7803 5.90689 17.3188 5.90689 18.8105C5.90689 20.302 4.95484 21.182 3.77945 20.7759C2.60406 20.3699 1.652 18.8314 1.652 17.3397C1.652 15.8482 2.60406 14.9682 3.77945 15.3743ZM41.2572 29.1392L22.6589 46.5732L29.9354 66.4902L48.3867 49.1903L41.2572 29.1392ZM33.3147 59.922C32.1895 60.9769 30.8518 60.9678 30.3279 59.9011C29.804 58.8346 30.2901 57.1155 31.4153 56.0607C32.5405 55.0058 33.8782 55.0148 34.4021 56.0807C34.926 57.1465 34.4399 58.8672 33.3147 59.922ZM39.5201 39.2512C38.3949 40.3061 37.0572 40.2969 36.5333 39.2312C36.0085 38.1656 36.4956 36.4456 37.6207 35.3907C38.7459 34.3359 40.0837 34.3451 40.6075 35.4107C41.1326 36.4773 40.6453 38.1964 39.5201 39.2512Z" fill="white"/>
</svg>
