<svg width="200" height="200" viewBox="0 0 200 200" fill="none" xmlns="http://www.w3.org/2000/svg">
<path d="M114.28 8.46278C143.27 11.9304 156.427 41.7209 161.534 58.1944L166.47 56.3037C166.47 56.3037 152.18 -0.981348 109.931 0.0127913C34.7684 1.78154 30.8691 58.3053 30.8691 58.3053L35.1648 59.9889C39.8668 46.6131 59.0039 1.85107 114.28 8.46278Z" fill="#EC7E96"/>
<path d="M105.892 25.5491C66.8183 21.8277 49.2562 53.8011 45.1558 63.651L49.0425 65.6237C49.0425 65.6237 69.08 29.032 102.631 32.9351C136.182 36.8382 144.569 64.6917 144.569 64.6917L148.025 63.3686C142.381 48.3077 130.295 27.873 105.892 25.5491Z" fill="#648F9F"/>
<path d="M114.28 8.46281C59.004 1.8511 39.8669 46.6132 35.1646 59.9889L40.3821 62.0733C55.1149 27.8171 78.4251 10.8507 111.135 16.9648C132.506 21.6851 148.782 44.9913 155.39 60.5479L161.533 58.1952C156.427 41.721 143.27 11.9308 114.28 8.46281Z" fill="#F7D76F"/>
<path d="M110.848 17.0479C78.1378 10.9338 55.1151 27.8166 40.3823 62.0728L45.1558 63.6509C49.2562 53.8009 66.9538 22.5389 106.028 26.2603C130.431 28.5846 141.549 48.806 147.192 63.8673L154.781 60.7939C148.174 45.2373 132.998 21.1881 110.848 17.0479Z" fill="#A8D5CB"/>
<path d="M37.0347 54.8271C36.9551 54.8271 36.8768 54.8068 36.8073 54.7679C36.7378 54.7291 36.6794 54.6731 36.6377 54.6053C36.596 54.5375 36.5723 54.4601 36.569 54.3806C36.5657 54.3011 36.5828 54.222 36.6187 54.151C53.9066 19.9502 73.723 6.87134 107.251 7.55845C147.168 8.35649 160.219 52.0357 160.346 52.4767C160.378 52.5948 160.362 52.7206 160.302 52.8272C160.243 52.9338 160.143 53.0126 160.026 53.0465C159.908 53.0804 159.782 53.0668 159.674 53.0086C159.567 52.9504 159.487 52.8523 159.451 52.7353C159.325 52.3006 146.457 9.27446 107.233 8.49048C74.0874 7.8311 54.5488 20.7479 37.4511 54.5713C37.3687 54.7338 37.205 54.8271 37.0347 54.8271Z" fill="#241726"/>
<path d="M154.984 62.5498C154.791 62.5498 154.611 62.4291 154.543 62.2362C154.39 61.7936 138.785 17.939 103.713 16.5636C67.7687 15.1655 53.3406 37.1686 41.6621 59.8401C41.6342 59.8945 41.5958 59.9429 41.5491 59.9824C41.5025 60.022 41.4485 60.0519 41.3903 60.0706C41.332 60.0892 41.2707 60.0962 41.2097 60.0911C41.1488 60.086 41.0894 60.0689 41.0351 60.0409C40.9806 60.0129 40.9322 59.9745 40.8925 59.9278C40.8529 59.8812 40.8229 59.8271 40.8042 59.7688C40.7855 59.7105 40.7785 59.649 40.7836 59.588C40.7887 59.527 40.8058 59.4675 40.8339 59.4131C52.65 36.4753 67.266 14.1886 103.75 15.6323C139.461 17.0331 155.269 61.4823 155.424 61.9311C155.448 62.0013 155.456 62.0764 155.445 62.1499C155.434 62.2235 155.406 62.2935 155.363 62.354C155.32 62.4145 155.263 62.4639 155.197 62.498C155.131 62.532 155.058 62.5498 154.984 62.5498Z" fill="#241726"/>
<path d="M147.26 66.4112C147.045 66.4112 146.852 66.2612 146.805 66.0421C146.722 65.6487 138.013 26.7367 100.919 26.3929C100.729 26.3909 100.534 26.3902 100.345 26.3902C63.5868 26.3902 47.7927 59.1409 47.6368 59.4737C47.584 59.5852 47.4891 59.6711 47.373 59.7128C47.2569 59.7545 47.129 59.7485 47.0173 59.6961C46.9057 59.6438 46.8193 59.5493 46.7771 59.4333C46.7349 59.3174 46.7404 59.1895 46.7923 59.0776C46.9505 58.7401 62.988 25.4581 100.344 25.4581C100.539 25.4581 100.732 25.4589 100.929 25.4609C138.776 25.8117 147.632 65.4479 147.717 65.8479C147.732 65.9159 147.731 65.9863 147.715 66.0539C147.698 66.1215 147.667 66.1847 147.623 66.2387C147.579 66.2927 147.524 66.3362 147.461 66.366C147.398 66.3959 147.33 66.4113 147.26 66.4112ZM165.595 191.841C165.319 191.841 164.602 191.816 162.608 188.424C162.372 188.426 162.139 188.428 161.91 188.428C157.715 188.428 157.468 187.999 157.335 187.768C157.252 187.624 157.254 187.356 157.338 187.212C157.357 187.177 157.381 187.146 157.409 187.118C157.423 187.104 158.78 185.732 160.446 184.164C159.176 181.176 159.552 180.6 159.697 180.379C159.841 180.156 160.072 180.034 160.347 180.034C160.37 180.034 160.472 180.042 160.496 180.046C161.123 180.14 162.181 180.562 163.642 181.3C165.796 179.504 166.53 179.267 166.93 179.267C167.222 179.267 167.46 179.406 167.584 179.649C167.913 180.293 167.869 182.099 167.76 183.606C168.632 184.136 170.9 185.546 171.331 186.102C171.516 186.341 171.559 186.624 171.448 186.879C171.329 187.154 171.054 187.786 167.194 188.177C166.855 190.066 166.484 191.228 166.091 191.634C165.961 191.767 165.788 191.841 165.601 191.841H165.595ZM163.681 188.4C164.648 189.984 165.25 190.637 165.517 190.841C165.684 190.528 165.949 189.759 166.23 188.263C165.421 188.326 164.558 188.373 163.681 188.4ZM158.525 187.321C159.124 187.415 160.321 187.511 162.08 187.496C161.641 186.701 161.23 185.891 160.847 185.067C160.064 185.809 159.29 186.561 158.525 187.321ZM161.565 184.394C162.043 185.447 162.568 186.477 163.14 187.482C164.265 187.457 165.377 187.4 166.395 187.315C166.558 186.289 166.694 185.172 166.786 184.107C165.796 183.515 164.79 182.951 163.77 182.413C163.022 183.059 162.287 183.719 161.565 184.394ZM167.672 184.645C167.589 185.507 167.483 186.367 167.352 187.224C169.485 186.992 170.237 186.706 170.489 186.566C170.145 186.254 169.146 185.554 167.672 184.645ZM160.467 180.988C160.456 181.22 160.517 181.883 161.173 183.486C161.732 182.968 162.298 182.459 162.872 181.958C161.5 181.284 160.804 181.059 160.467 180.988ZM164.541 181.767C165.323 182.185 166.097 182.619 166.861 183.069C166.957 181.441 166.889 180.581 166.804 180.226C166.565 180.304 165.957 180.61 164.541 181.767ZM20.7657 31.3964C20.3696 31.3964 20.1759 31.1179 20.1642 30.8593C20.1617 30.8195 20.1647 30.7795 20.1731 30.7406C20.1767 30.721 20.5743 28.8335 21.1251 26.6132C18.3673 24.7417 18.4247 24.0452 18.4466 23.7777C18.4692 23.4917 18.6477 23.2538 18.9345 23.1245C19.5142 22.8644 20.6317 22.6453 22.2602 22.4738C23.1966 19.4706 23.7509 18.8562 24.3325 18.8562C24.4536 18.8562 24.57 18.8874 24.6774 18.9503C25.3036 19.314 26.2446 20.8546 26.97 22.1804C27.4971 22.1662 28.0244 22.1588 28.5517 22.1581C30.0407 22.1581 30.9727 22.221 31.3231 22.3441C31.6079 22.4445 31.7974 22.6593 31.8427 22.9335C31.8907 23.2288 32.0028 23.9097 28.9704 26.3296C29.7087 28.1007 30.027 29.2784 29.9161 29.8335C29.8895 29.9683 29.7485 30.4093 29.0759 30.4097H29.0751C28.1696 30.4097 26.3821 29.5906 25.2497 29.0218C24.0138 29.8409 21.5618 31.3964 20.7657 31.3964ZM21.9513 27.1546C21.6954 28.2031 21.4515 29.2545 21.2196 30.3085C21.7802 30.0605 22.804 29.5027 24.3032 28.5284C23.5035 28.0979 22.7191 27.6397 21.9513 27.1546ZM26.138 28.4206C27.6462 29.1484 28.5833 29.4433 29.004 29.4745C28.9739 29.1206 28.7794 28.3308 28.2067 26.9238C27.529 27.4389 26.8392 27.938 26.138 28.4206ZM22.1892 26.2003C23.1616 26.8259 24.162 27.407 25.1872 27.9417C26.0873 27.3337 26.9689 26.6987 27.8309 26.0378C27.3964 25.0518 26.9264 24.0818 26.422 23.1296C25.2208 23.1718 24.0165 23.2456 22.97 23.341C22.6909 24.2888 22.4306 25.2422 22.1892 26.2003ZM19.4204 23.932C19.538 24.1335 19.9481 24.6574 21.3681 25.6495C21.5573 24.9116 21.7575 24.1764 21.9688 23.4445C20.4497 23.621 19.7427 23.8097 19.4204 23.932ZM27.4595 23.1015C27.8566 23.8712 28.2323 24.6519 28.586 25.4425C30.2517 24.0941 30.7294 23.446 30.8657 23.1917C30.5681 23.1445 29.872 23.0902 28.5513 23.0902C28.2067 23.0902 27.8399 23.0941 27.4595 23.1015ZM24.336 19.8581C24.1813 20.0535 23.8317 20.6421 23.2677 22.3792C24.097 22.3105 25.0059 22.2546 25.9235 22.2163C25.1231 20.798 24.5989 20.1117 24.336 19.8581ZM9.28798 84.0381C8.93837 84.0381 8.60829 84.0385 7.65712 80.3178C4.49189 79.7237 4.21493 79.3557 4.12236 79.2327C4.03486 79.1167 3.99657 78.9014 4.03603 78.7616C4.0915 78.5608 4.22157 78.0952 7.82587 76.6256C9.10751 73.2389 9.5415 73.2389 9.83095 73.2389C9.97743 73.2389 10.1813 73.3444 10.2688 73.462C10.5009 73.7706 10.7138 74.5772 11.038 75.8698C11.1407 76.2792 11.2645 76.7741 11.3349 76.987C11.5231 77.0706 11.9466 77.2206 12.297 77.3444C14.1517 78.0003 14.6298 78.2233 14.7181 78.6592C14.7501 78.8198 14.6681 79.0573 14.547 79.1678C14.172 79.5069 12.3755 80.1823 11.438 80.5202C9.92548 84.0026 9.60322 84.0213 9.31845 84.0373L9.28798 84.0381ZM5.2954 78.826C5.92236 79.0073 7.09657 79.2694 8.11962 79.4553C8.29892 79.4877 8.44345 79.6229 8.48837 79.7999C8.75322 80.8561 9.10087 82.06 9.34657 82.7311C9.69423 82.1041 10.2286 80.9682 10.6618 79.9647C10.7126 79.8459 10.811 79.7542 10.9329 79.7108C11.8056 79.3995 12.7923 79.0167 13.3919 78.7487C12.9649 78.569 12.3688 78.3581 11.9856 78.2225C10.9282 77.8483 10.7286 77.7674 10.5942 77.5881C10.4759 77.4311 10.4013 77.1651 10.1337 76.096C10.0298 75.6827 9.86962 75.0448 9.73056 74.5784C9.4165 75.1772 8.97157 76.2202 8.62665 77.1432C8.60392 77.2037 8.56889 77.2588 8.52378 77.3051C8.47866 77.3513 8.42444 77.3877 8.36454 77.412C7.2329 77.869 5.9497 78.4522 5.2954 78.826ZM183.412 136.987C183.064 136.987 182.733 136.988 181.782 133.267C178.616 132.672 178.34 132.304 178.247 132.181C178.16 132.065 178.122 131.85 178.161 131.71C178.217 131.51 178.346 131.044 181.95 129.574C183.231 126.188 183.665 126.188 183.956 126.188C184.101 126.188 184.305 126.294 184.393 126.411C184.625 126.72 184.838 127.526 185.163 128.819C185.265 129.228 185.389 129.723 185.459 129.936C185.648 130.019 186.072 130.17 186.423 130.294C188.276 130.949 188.754 131.172 188.841 131.608C188.874 131.769 188.791 132.007 188.67 132.117C188.295 132.456 186.499 133.131 185.563 133.469C184.049 136.953 183.727 136.97 183.442 136.986C183.432 136.987 183.422 136.987 183.412 136.987ZM179.42 131.775C180.049 131.956 181.222 132.218 182.245 132.404C182.424 132.437 182.568 132.572 182.613 132.749C182.878 133.805 183.226 135.009 183.472 135.68C183.819 135.053 184.354 133.917 184.787 132.914C184.838 132.795 184.936 132.703 185.058 132.66C185.93 132.348 186.916 131.965 187.517 131.698C187.09 131.518 186.495 131.307 186.112 131.172C185.053 130.797 184.854 130.717 184.719 130.537C184.601 130.38 184.526 130.114 184.259 129.044C184.155 128.631 183.995 127.993 183.855 127.527C183.541 128.125 183.096 129.169 182.751 130.092C182.728 130.153 182.693 130.208 182.648 130.254C182.603 130.3 182.549 130.336 182.489 130.361C181.358 130.819 180.075 131.401 179.42 131.775ZM162.74 28.8113C162.391 28.8113 162.061 28.8116 161.109 25.0906C157.944 24.4964 157.667 24.1285 157.575 24.0054C157.487 23.8894 157.449 23.6745 157.488 23.5347C157.544 23.3339 157.673 22.8683 161.277 21.3984C162.558 18.0117 162.993 18.0117 163.283 18.0117C163.429 18.0117 163.633 18.1171 163.721 18.2343C163.953 18.5437 164.166 19.3499 164.49 20.6425C164.593 21.0519 164.716 21.5468 164.787 21.7601C164.975 21.8433 165.399 21.9937 165.75 22.1179C167.604 22.7734 168.081 22.996 168.169 23.432C168.201 23.5929 168.119 23.8308 167.997 23.9406C167.623 24.2792 165.826 24.9546 164.889 25.2925C163.377 28.7749 163.055 28.7937 162.769 28.8101C162.759 28.8109 162.749 28.8113 162.74 28.8113ZM158.748 23.5988C159.376 23.78 160.549 24.0421 161.572 24.2281C161.751 24.2605 161.896 24.3956 161.941 24.5726C162.206 25.6288 162.553 26.8324 162.798 27.5038C163.146 26.8769 163.681 25.7409 164.113 24.7378C164.164 24.6191 164.263 24.5265 164.384 24.4835C165.257 24.1722 166.243 23.7894 166.843 23.5214C166.418 23.3421 165.822 23.132 165.44 22.9964C164.381 22.6218 164.181 22.541 164.047 22.3613C163.928 22.2042 163.854 21.9382 163.586 20.8687C163.482 20.4558 163.322 19.8171 163.182 19.3511C162.868 19.9496 162.423 20.9933 162.078 21.9163C162.055 21.9768 162.02 22.0319 161.975 22.0782C161.93 22.1245 161.876 22.1609 161.816 22.1851C160.686 22.6425 159.402 23.2249 158.748 23.5988ZM40.3825 20.0511C38.4567 20.0511 36.8895 18.4843 36.8895 16.5581C36.8895 14.632 38.4567 13.0652 40.3825 13.0652C42.3083 13.0652 43.8755 14.632 43.8755 16.5581C43.8755 18.4843 42.3083 20.0511 40.3825 20.0511ZM40.3825 13.9972C38.97 13.9972 37.8216 15.1464 37.8216 16.5581C37.8216 17.9699 38.97 19.1191 40.3825 19.1191C41.795 19.1191 42.9434 17.9699 42.9434 16.5581C42.9434 15.1464 41.795 13.9972 40.3825 13.9972ZM190.119 33.178C188.193 33.178 186.626 31.6113 186.626 29.6851C186.626 27.7589 188.193 26.1921 190.119 26.1921C192.045 26.1921 193.612 27.7589 193.612 29.6851C193.612 31.6113 192.045 33.178 190.119 33.178ZM190.119 27.1238C189.44 27.1245 188.789 27.3945 188.309 27.8746C187.829 28.3547 187.559 29.0057 187.558 29.6847C187.559 30.3637 187.829 31.0146 188.309 31.4947C188.789 31.9749 189.44 32.2449 190.119 32.2456C190.798 32.2449 191.449 31.9749 191.929 31.4947C192.409 31.0146 192.679 30.3637 192.68 29.6847C192.679 29.0057 192.409 28.3547 191.929 27.8746C191.449 27.3945 190.798 27.1245 190.119 27.1238ZM40.072 200C38.1462 200 36.579 198.433 36.579 196.507C36.579 194.581 38.1462 193.014 40.072 193.014C41.9977 193.014 43.5649 194.581 43.5649 196.507C43.5649 198.433 41.9977 200 40.072 200ZM40.072 193.946C38.6595 193.946 37.511 195.095 37.511 196.507C37.511 197.918 38.6595 199.068 40.072 199.068C41.4845 199.068 42.6329 197.918 42.6329 196.507C42.6329 195.095 41.4845 193.946 40.072 193.946Z" fill="#241726"/>
<path d="M26.61 54.9177C26.61 54.9177 25.4194 46.5134 33.546 49.1572C41.6725 51.8009 39.1085 59.5314 35.9948 56.9252C32.8811 54.3189 38.5878 45.3201 44.8249 49.2412C51.062 53.1623 49.7511 60.9025 45.36 61.5154C40.969 62.1283 47.9339 52.4935 53.53 58.3474C59.1261 64.2013 47.1389 75.0908 42.155 71.1786C37.171 67.2665 40.9788 60.8369 42.203 64.7208C43.4272 68.6048 40.2655 72.456 31.4929 72.3908C22.7202 72.3255 26.5811 58.7923 29.685 62.6904C32.7889 66.5884 27.7429 71.0712 21.5104 66.5044C15.278 61.9376 22.2432 52.3021 26.61 54.9177Z" fill="white"/>
<path d="M31.7113 72.858L31.4891 72.8573C27.6856 72.8291 26.368 70.4772 25.9117 68.8592C24.3945 68.6963 22.7856 68.017 21.2348 66.8807C18.8156 65.1073 17.9848 62.3877 18.9559 59.419C19.9481 56.3862 22.6055 54.0096 25.0055 54.0096C25.3797 54.0096 25.741 54.0647 26.0867 54.1741C26.0504 53.037 26.175 50.9565 27.3863 49.5608C28.6742 48.0776 30.8148 47.7792 33.6898 48.7147C34.8395 49.0889 35.8441 49.5819 36.6824 50.1835C38.0668 48.6639 39.857 47.8007 41.6516 47.8007C42.8176 47.8007 43.9688 48.153 45.0727 48.8471C47.7711 50.5432 49.4129 53.1835 49.5414 55.9866C51.1223 55.9905 52.5766 56.6764 53.8664 58.0253C55.591 59.8295 55.9195 62.2768 54.7922 64.9163C53.0711 68.942 48.3648 72.4733 44.7199 72.4733C43.6113 72.4733 42.652 72.1612 41.8676 71.5448C41.4676 71.2326 41.0988 70.8824 40.7664 70.4991C38.8168 72.0444 35.7024 72.858 31.7113 72.858ZM26.8961 68.8909C27.3957 70.3741 28.6109 71.9038 31.4969 71.9252L31.7117 71.926C36.3961 71.926 38.8953 70.8002 40.2066 69.7541C38.9172 67.7709 38.9863 65.5823 39.6652 64.2291C40.0402 63.4815 40.5828 63.0522 41.1531 63.0522C41.5309 63.0522 42.2281 63.251 42.6477 64.5807C43.2684 66.5502 42.8453 68.4131 41.4563 69.8717C41.743 70.2065 42.0734 70.5221 42.443 70.8123C43.0602 71.2959 43.8254 71.5413 44.7199 71.5413C47.9789 71.5413 52.3715 68.2088 53.9348 64.5499C54.6227 62.9409 55.0523 60.6143 53.193 58.6694C52.0828 57.5077 50.8492 56.9186 49.5277 56.9182C49.3219 59.61 47.6793 61.662 45.425 61.9768C45.2648 61.9991 45.1172 62.0096 44.9828 62.0096C43.9391 62.0096 43.5375 61.3725 43.5113 60.776C43.4402 59.2124 45.7102 56.5506 48.6117 56.0639C48.5098 53.5542 47.0246 51.1749 44.577 49.6362C43.6231 49.0366 42.6395 48.7323 41.652 48.7323C40.1367 48.7323 38.6113 49.4694 37.409 50.7698C39.3785 52.5612 39.7625 54.7979 39.2391 56.2889C38.8852 57.2952 38.1234 57.9202 37.2496 57.921H37.2488C36.7238 57.921 36.2012 57.7061 35.6953 57.2831C33.9996 55.8631 34.5559 53.0202 36.0922 50.9073C35.3414 50.3768 34.4395 49.9385 33.4027 49.6014C30.9309 48.7967 29.1223 48.9858 28.093 50.1694C26.666 51.8096 27.0672 54.8237 27.0719 54.8538C27.0839 54.9408 27.0711 55.0294 27.0349 55.1095C26.9988 55.1896 26.9408 55.2578 26.8675 55.3063C26.7943 55.3549 26.7089 55.3817 26.621 55.3838C26.5332 55.3859 26.4466 55.3632 26.3711 55.3182C25.9592 55.0698 25.4869 54.9397 25.0059 54.9421C23.018 54.9421 20.702 57.0807 19.8418 59.7092C19.0043 62.2698 19.7125 64.6096 21.7867 66.1291C23.1008 67.0924 24.4461 67.6956 25.7129 67.894C25.4481 65.9252 25.9313 63.667 26.9297 62.4159C27.8625 61.2456 29.1176 61.2303 30.0504 62.401C31.1344 63.7627 31.3902 65.3026 30.752 66.6264C30.1106 67.9565 28.6488 68.8088 26.8961 68.8909ZM41.1531 63.9842C40.9977 63.9842 40.7262 64.1916 40.4977 64.6467C39.9742 65.6897 39.9098 67.4706 40.8973 69.1014C41.9465 67.9159 42.2535 66.4291 41.759 64.8612C41.5547 64.2139 41.3051 63.9842 41.1531 63.9842ZM28.5043 62.4518C28.1641 62.4518 27.8563 62.7479 27.6578 62.9963C26.8887 63.9612 26.3391 66.0331 26.6656 67.9651C28.1582 67.951 29.3996 67.2854 29.9129 66.2209C30.3891 65.2327 30.1731 64.051 29.3203 62.9807C29.1285 62.7393 28.8309 62.4518 28.5043 62.4518ZM48.5836 57.0182C46.2383 57.5104 44.3961 59.7057 44.4426 60.7342C44.4481 60.8627 44.4582 61.078 44.9832 61.078C45.0789 61.078 45.1836 61.0702 45.2961 61.0542C47.0598 60.8081 48.3586 59.1815 48.5836 57.0182ZM36.8172 51.4921C35.4231 53.4174 35.1707 55.6284 36.2938 56.5682C36.6223 56.8432 36.9527 56.9885 37.2492 56.9885C37.7227 56.9881 38.1375 56.6112 38.3598 55.9796C38.777 54.7928 38.441 52.9893 36.8172 51.4921Z" fill="#241726"/>
<path d="M13.7879 171.04C13.7879 171.04 12.7442 163.672 19.8688 165.99C26.9934 168.308 24.7454 175.085 22.0157 172.8C19.286 170.515 24.2891 162.626 29.7571 166.063C35.225 169.501 34.0758 176.287 30.2262 176.824C26.3766 177.362 32.4829 168.915 37.3887 174.047C42.295 179.179 31.7856 188.726 27.4161 185.296C23.0465 181.867 26.3848 176.23 27.4583 179.635C28.5317 183.04 25.7594 186.417 18.0688 186.359C10.3778 186.302 13.7626 174.437 16.484 177.854C19.2055 181.272 14.7813 185.202 9.31724 181.198C3.85318 177.194 9.95943 168.747 13.7879 171.04Z" fill="white"/>
<path d="M18.261 186.825L18.0653 186.825C15.5504 186.806 13.7704 185.532 13.1313 183.315C11.8024 183.164 10.3965 182.566 9.04106 181.574C6.89848 180.003 6.16332 177.596 7.02348 174.968C7.90082 172.286 10.2536 170.186 12.3813 170.186C12.6872 170.186 12.9836 170.227 13.2688 170.309C13.2461 169.289 13.3782 167.51 14.4254 166.305C15.5704 164.987 17.4688 164.72 20.0125 165.547C21.0075 165.87 21.8793 166.295 22.6102 166.813C23.8297 165.492 25.3997 164.743 26.975 164.743C28.0071 164.743 29.0266 165.055 30.0047 165.669C32.3684 167.156 33.8137 169.465 33.9457 171.921C35.3274 171.94 36.5989 172.547 37.7254 173.725C39.2543 175.325 39.5465 177.493 38.5473 179.829C37.0309 183.377 32.8801 186.489 29.6645 186.489C28.6797 186.489 27.8262 186.211 27.1282 185.663C26.789 185.398 26.4751 185.102 26.1907 184.78C24.4688 186.119 21.743 186.825 18.261 186.825ZM14.118 183.343C14.5649 184.601 15.6235 185.875 18.0727 185.893L18.261 185.893C22.3039 185.893 24.4789 184.936 25.6313 184.034C24.5172 182.288 24.5848 180.368 25.1817 179.178C25.5211 178.502 26.0153 178.114 26.5379 178.114C26.8856 178.114 27.5247 178.293 27.9032 179.494C28.4403 181.198 28.0668 182.872 26.8801 184.151C27.1296 184.435 27.4054 184.696 27.7039 184.929C28.2344 185.345 28.8946 185.557 29.6653 185.557C32.502 185.557 36.3274 182.651 37.6918 179.462C38.2879 178.067 38.661 176.051 37.0528 174.369C36.1055 173.378 35.0559 172.868 33.9329 172.852C33.7336 175.212 32.2809 177.008 30.2914 177.285C30.1606 177.304 30.0287 177.314 29.8965 177.315H29.8957C28.9403 177.315 28.5735 176.728 28.5477 176.179C28.486 174.797 30.47 172.452 33.0172 171.997C32.9106 169.834 31.6219 167.786 29.5086 166.458C27.427 165.148 25.0563 165.573 23.3372 167.4C25.0465 168.981 25.3766 170.946 24.9145 172.261C24.4047 173.709 22.9286 174.173 21.7164 173.157C20.2164 171.901 20.6844 169.406 22.0204 167.537C21.377 167.09 20.6071 166.719 19.7258 166.433C17.5661 165.73 16.0243 165.886 15.1297 166.916C13.893 168.34 14.2461 170.948 14.2497 170.974C14.2622 171.061 14.2498 171.15 14.2138 171.231C14.1778 171.311 14.1198 171.38 14.0464 171.428C13.973 171.477 13.8872 171.504 13.7992 171.506C13.7111 171.508 13.6243 171.485 13.5489 171.439C13.1968 171.227 12.7932 171.115 12.3821 171.117C10.6629 171.117 8.6559 172.974 7.90981 175.257C7.56567 176.307 7.04262 178.951 9.5934 180.821C10.7118 181.641 11.8559 182.162 12.9352 182.346C12.7239 180.624 13.1528 178.668 14.0239 177.576C14.4442 177.049 14.9375 176.77 15.4493 176.77C15.7997 176.77 16.3266 176.908 16.8489 177.564C17.8145 178.775 18.0411 180.148 17.4715 181.329C16.9082 182.496 15.6414 183.25 14.118 183.343ZM26.5375 179.046C26.4383 179.046 26.2172 179.192 26.0141 179.595C25.57 180.481 25.5098 181.985 26.3219 183.377C27.1856 182.363 27.4332 181.103 27.0145 179.775C26.8325 179.198 26.6231 179.046 26.5375 179.046ZM15.4485 177.702C15.2336 177.702 14.986 177.864 14.7512 178.158C14.0914 178.985 13.6192 180.756 13.8848 182.42C15.15 182.394 16.1965 181.825 16.6317 180.924C17.0395 180.078 16.8528 179.065 16.1192 178.144C15.959 177.943 15.7114 177.702 15.4485 177.702ZM32.9856 172.953C30.8997 173.421 29.4434 175.364 29.4778 176.137C29.4825 176.241 29.4895 176.383 29.8946 176.383C29.9754 176.383 30.0649 176.376 30.1614 176.363C31.6606 176.153 32.7692 174.784 32.9856 172.953ZM22.745 168.122C21.5735 169.774 21.3633 171.646 22.3145 172.442C23.0309 173.043 23.7305 172.817 24.0348 171.952C24.3895 170.941 24.1094 169.409 22.745 168.122Z" fill="#241726"/>
<path d="M146.512 58.24C146.512 58.24 145.321 49.8357 153.448 52.4795C161.574 55.1232 159.01 62.8537 155.897 60.2474C152.783 57.6412 158.49 48.6424 164.727 52.5634C170.964 56.4849 169.653 64.2248 165.262 64.8376C160.871 65.4505 167.836 55.8158 173.432 61.6697C179.028 67.5236 167.041 78.413 162.057 74.5009C157.073 70.5888 160.881 64.1591 162.105 68.0431C163.329 71.9271 160.167 75.7783 151.395 75.713C142.622 75.6478 146.483 62.1146 149.587 66.0126C152.691 69.9107 147.644 74.3935 141.412 69.8267C135.18 65.2599 142.145 55.624 146.512 58.24Z" fill="white"/>
<path d="M151.615 76.1799L151.391 76.1791C147.588 76.151 146.27 73.7991 145.814 72.1815C144.297 72.0186 142.687 71.3385 141.136 70.2026C138.717 68.4292 137.886 65.7092 138.858 62.7405C139.85 59.7077 142.507 57.3315 144.907 57.3315C145.281 57.3315 145.642 57.3866 145.988 57.496C145.951 56.3589 146.076 54.2784 147.287 52.8827C148.575 51.3991 150.716 51.1014 153.591 52.0366C154.741 52.4108 155.745 52.9038 156.584 53.5061C157.969 51.9862 159.758 51.1229 161.554 51.1229C162.719 51.1229 163.87 51.4753 164.975 52.1694C167.673 53.8655 169.314 56.5057 169.443 59.3089C171.024 59.3128 172.479 59.9987 173.769 61.3475C175.493 63.1518 175.822 65.5991 174.693 68.2385C172.972 72.2643 168.266 75.7955 164.621 75.7955C163.512 75.7955 162.553 75.4834 161.769 74.867C161.369 74.5549 161 74.2047 160.667 73.8213C158.719 75.3662 155.604 76.1799 151.615 76.1799ZM146.798 72.2127C147.297 73.6959 148.512 75.2256 151.398 75.2471L151.615 75.2479C156.298 75.2479 158.797 74.1225 160.108 73.0764C158.818 71.0932 158.888 68.9045 159.567 67.5514C159.942 66.8034 160.485 66.3745 161.054 66.3745C161.433 66.3745 162.13 66.5729 162.549 67.9026C163.169 69.8721 162.746 71.735 161.357 73.1936C161.654 73.5387 161.985 73.8536 162.344 74.1338C162.961 74.6182 163.726 74.8631 164.621 74.8631C167.88 74.8631 172.273 71.5307 173.837 67.8717C174.524 66.2628 174.955 63.9362 173.095 61.9913C171.985 60.8296 170.751 60.2401 169.429 60.2401C169.223 62.9319 167.582 64.9838 165.326 65.2987C163.923 65.494 163.443 64.771 163.412 64.0983C163.342 62.535 165.612 59.8733 168.514 59.3858C168.411 56.876 166.925 54.4968 164.478 52.9581C163.525 52.3585 162.541 52.0542 161.554 52.0542C160.037 52.0542 158.512 52.7913 157.311 54.0921C159.28 55.8835 159.664 58.1202 159.14 59.6116C158.786 60.6174 158.025 61.2424 157.151 61.2424H157.151C156.626 61.2424 156.103 61.0276 155.597 60.6046C153.901 59.1846 154.458 56.3421 155.994 54.2292C155.243 53.6987 154.341 53.26 153.304 52.9225C150.831 52.1175 149.022 52.3073 147.992 53.4928C146.563 55.1393 146.969 58.1444 146.973 58.1745C146.986 58.2617 146.973 58.3508 146.937 58.4313C146.902 58.5118 146.843 58.5804 146.77 58.6291C146.696 58.6778 146.611 58.7047 146.523 58.7065C146.434 58.7083 146.348 58.685 146.272 58.6393C145.86 58.3909 145.388 58.2608 144.907 58.2632C142.92 58.2632 140.604 60.4014 139.744 63.0299C138.905 65.5909 139.614 67.9311 141.688 69.4502C143.003 70.4139 144.348 71.0166 145.615 71.2151C145.35 69.2463 145.834 66.9877 146.831 65.737C147.765 64.5667 149.018 64.5514 149.952 65.7221C151.036 67.0838 151.292 68.6237 150.653 69.9475C150.011 71.2784 148.55 72.1307 146.798 72.2127ZM161.054 67.3065C160.899 67.3065 160.628 67.5135 160.4 67.969C159.876 69.012 159.812 70.792 160.798 72.4233C161.847 71.2377 162.155 69.751 161.66 68.1831C161.456 67.5362 161.206 67.3065 161.054 67.3065ZM148.405 65.7737C148.066 65.7737 147.758 66.0698 147.56 66.3182C146.791 67.2831 146.241 69.3545 146.567 71.287C148.059 71.2725 149.301 70.6073 149.814 69.5428C150.29 68.5545 150.074 67.3729 149.221 66.3026C149.029 66.0612 148.732 65.7737 148.405 65.7737ZM168.484 60.3401C166.139 60.8335 164.297 63.028 164.343 64.0565C164.35 64.185 164.359 64.3995 164.884 64.3995C164.98 64.3995 165.084 64.3917 165.197 64.3756C166.96 64.1299 168.26 62.5038 168.484 60.3401ZM156.72 54.8151C155.484 56.5397 154.949 58.8464 156.196 59.8901C157.046 60.6042 157.9 60.3296 158.261 59.3022C158.678 58.1159 158.342 56.3128 156.72 54.8151Z" fill="#241726"/>
<path d="M167.795 149.35C167.795 149.35 166.752 141.982 173.876 144.3C181.001 146.618 178.753 153.395 176.023 151.11C173.293 148.825 178.296 140.936 183.764 144.374C189.233 147.812 188.083 154.597 184.234 155.135C180.384 155.672 186.49 147.225 191.396 152.357C196.302 157.489 185.793 167.036 181.423 163.607C177.054 160.177 180.392 154.54 181.466 157.945C182.539 161.35 179.767 164.727 172.076 164.669C164.385 164.612 167.77 152.748 170.491 156.165C173.213 159.582 168.789 163.512 163.325 159.509C157.86 155.504 163.967 147.057 167.795 149.35Z" fill="white"/>
<path d="M172.268 165.136L172.072 165.135C169.557 165.116 167.777 163.843 167.138 161.626C165.809 161.474 164.403 160.877 163.049 159.884C160.906 158.314 160.17 155.907 161.03 153.279C161.907 150.597 164.261 148.496 166.388 148.496C166.695 148.496 166.991 148.538 167.276 148.62C167.254 147.599 167.386 145.821 168.432 144.616C169.579 143.297 171.477 143.03 174.019 143.857C175.014 144.181 175.886 144.606 176.617 145.123C177.837 143.802 179.407 143.054 180.983 143.054C182.015 143.054 183.034 143.365 184.012 143.98C186.376 145.466 187.821 147.775 187.954 150.231C189.334 150.25 190.605 150.857 191.732 152.036C193.261 153.635 193.554 155.803 192.555 158.14C191.039 161.687 186.888 164.8 183.672 164.8C182.687 164.8 181.834 164.522 181.136 163.974C180.797 163.709 180.483 163.413 180.198 163.091C178.477 164.43 175.751 165.136 172.268 165.136ZM168.125 161.654C168.571 162.912 169.63 164.185 172.079 164.203L172.268 164.204C176.311 164.203 178.486 163.246 179.639 162.344C178.525 160.598 178.591 158.678 179.189 157.487C179.529 156.811 180.022 156.424 180.545 156.424C180.892 156.424 181.531 156.604 181.91 157.804C182.448 159.508 182.073 161.182 180.887 162.461C181.137 162.746 181.413 163.006 181.711 163.239C182.242 163.656 182.902 163.866 183.673 163.866C186.509 163.866 190.335 160.961 191.698 157.772C192.294 156.377 192.667 154.361 191.059 152.679C190.112 151.688 189.062 151.178 187.94 151.162C187.739 153.523 186.287 155.318 184.298 155.595C183.027 155.772 182.583 155.107 182.555 154.489C182.492 153.107 184.477 150.762 187.024 150.307C186.918 148.144 185.629 146.096 183.516 144.768C181.434 143.458 179.063 143.882 177.344 145.71C179.052 147.291 179.383 149.257 178.92 150.571C178.602 151.477 177.913 152.04 177.123 152.04H177.122C176.648 152.04 176.177 151.847 175.723 151.467C174.223 150.211 174.691 147.716 176.027 145.847C175.382 145.4 174.612 145.029 173.732 144.743C171.575 144.04 170.033 144.195 169.138 145.224C167.904 146.641 168.253 149.259 168.256 149.285C168.268 149.372 168.255 149.46 168.219 149.54C168.183 149.62 168.125 149.688 168.052 149.737C167.978 149.785 167.893 149.812 167.805 149.815C167.718 149.817 167.631 149.794 167.555 149.749C167.203 149.537 166.799 149.425 166.388 149.427C164.669 149.427 162.663 151.284 161.916 153.567C161.573 154.618 161.048 157.262 163.6 159.131C164.719 159.951 165.862 160.472 166.941 160.656C166.73 158.934 167.16 156.978 168.03 155.886C168.452 155.359 168.944 155.08 169.455 155.08C169.806 155.08 170.333 155.218 170.856 155.874C171.821 157.085 172.048 158.458 171.478 159.639C170.915 160.806 169.648 161.56 168.125 161.654ZM180.545 157.357C180.445 157.357 180.224 157.503 180.022 157.906C179.578 158.792 179.518 160.295 180.33 161.688C181.193 160.673 181.44 159.413 181.021 158.085C180.839 157.509 180.63 157.357 180.545 157.357ZM169.455 156.013C169.241 156.013 168.994 156.175 168.759 156.468C168.1 157.296 167.626 159.067 167.893 160.731C169.157 160.704 170.204 160.137 170.639 159.235C171.046 158.389 170.86 157.376 170.126 156.455C169.966 156.253 169.719 156.013 169.455 156.013ZM186.993 151.264C184.907 151.732 183.451 153.675 183.486 154.447C183.491 154.551 183.497 154.693 183.902 154.693C183.983 154.693 184.072 154.686 184.169 154.673C185.668 154.464 186.776 153.095 186.993 151.264ZM176.753 146.433C175.58 148.085 175.371 149.957 176.322 150.753C176.6 150.985 176.877 151.108 177.122 151.108C177.512 151.108 177.855 150.792 178.041 150.263C178.396 149.252 178.116 147.72 176.753 146.433ZM185.475 94.6794H185.467C184.837 94.668 184.207 94.6387 183.578 94.5915C183.454 94.5822 183.34 94.5242 183.259 94.4305C183.179 94.3367 183.139 94.2148 183.148 94.0915C183.159 93.9687 183.217 93.8548 183.31 93.7745C183.404 93.6942 183.525 93.6539 183.648 93.6622C184.108 93.6974 184.74 93.7341 185.483 93.7474C185.604 93.7532 185.717 93.8054 185.8 93.893C185.882 93.9805 185.928 94.0967 185.927 94.2172C185.926 94.3376 185.878 94.453 185.794 94.5392C185.71 94.6254 185.596 94.6756 185.475 94.6794ZM187.339 94.6587C187.22 94.6556 187.105 94.6063 187.021 94.5212C186.936 94.4361 186.888 94.3216 186.885 94.2017C186.883 94.0817 186.927 93.9655 187.008 93.8771C187.089 93.7887 187.201 93.735 187.321 93.7271C187.932 93.7031 188.542 93.6583 189.15 93.5927C189.391 93.5677 189.636 93.7497 189.664 94.0056C189.692 94.2615 189.507 94.4915 189.25 94.5193C188.64 94.5857 188.003 94.6326 187.357 94.6579C187.351 94.6587 187.346 94.6587 187.339 94.6587ZM191.043 94.2454C190.927 94.2469 190.814 94.2044 190.727 94.1264C190.64 94.0485 190.586 93.9407 190.575 93.8245C190.563 93.7084 190.596 93.5923 190.667 93.4992C190.737 93.4062 190.84 93.3431 190.955 93.3224C191.549 93.2077 192.137 93.0603 192.714 92.881C192.831 92.8502 192.954 92.8654 193.059 92.9234C193.165 92.9815 193.243 93.0779 193.279 93.1926C193.315 93.3073 193.305 93.4314 193.252 93.5391C193.198 93.6467 193.106 93.7296 192.993 93.7704C192.416 93.9521 191.789 94.1091 191.133 94.2372C191.104 94.2427 191.073 94.2454 191.043 94.2454ZM194.587 93.1056C194.482 93.1055 194.38 93.0698 194.297 93.0045C194.215 92.9391 194.157 92.8478 194.134 92.7455C194.11 92.6432 194.121 92.5358 194.166 92.4408C194.211 92.3457 194.286 92.2687 194.38 92.222C194.939 91.9462 195.441 91.6318 195.871 91.2872C195.968 91.2104 196.091 91.1749 196.214 91.1885C196.337 91.2021 196.449 91.2637 196.527 91.3599C196.687 91.5611 196.655 91.8544 196.454 92.0154C195.971 92.4017 195.412 92.7521 194.794 93.0576C194.729 93.089 194.658 93.1054 194.587 93.1056ZM197.438 90.7708C197.353 90.7712 197.269 90.748 197.196 90.7039C197.123 90.6598 197.063 90.5965 197.024 90.5208C196.985 90.4452 196.967 90.3601 196.972 90.275C196.978 90.1898 197.007 90.1078 197.056 90.038C197.383 89.5688 197.635 89.0508 197.8 88.5033C197.818 88.4447 197.847 88.3901 197.886 88.3428C197.925 88.2955 197.973 88.2564 198.027 88.2276C198.081 88.1989 198.14 88.1811 198.201 88.1753C198.262 88.1695 198.324 88.1758 198.382 88.1939C198.629 88.2689 198.767 88.5294 198.692 88.7755C198.497 89.4162 198.203 90.0223 197.82 90.5716C197.729 90.7013 197.585 90.7708 197.438 90.7708ZM198.537 87.2748L198.521 87.2744C198.398 87.2703 198.281 87.2174 198.196 87.1273C198.112 87.0372 198.067 86.9173 198.071 86.7939L198.074 86.5537C198.071 86.0424 198.027 85.5321 197.943 85.0279C197.933 84.9675 197.935 84.9058 197.949 84.8462C197.963 84.7867 197.988 84.7304 198.024 84.6807C198.06 84.631 198.105 84.5889 198.157 84.5566C198.209 84.5243 198.267 84.5026 198.327 84.4927C198.449 84.4735 198.573 84.5032 198.674 84.5753C198.774 84.6474 198.842 84.7561 198.862 84.8779C198.958 85.4595 199.006 86.0232 199.006 86.5541L199.002 86.8244C198.998 86.9452 198.947 87.0597 198.861 87.1437C198.774 87.2277 198.658 87.2747 198.537 87.2748ZM197.979 83.6048C197.775 83.6048 197.588 83.4705 197.53 83.2654C197.365 82.6768 197.181 82.0937 196.978 81.5169C196.958 81.4592 196.949 81.3981 196.952 81.337C196.956 81.2759 196.971 81.2161 196.997 81.1609C197.024 81.1057 197.061 81.0563 197.106 81.0155C197.152 80.9746 197.205 80.9431 197.263 80.9228C197.321 80.9025 197.382 80.8937 197.443 80.8971C197.504 80.9004 197.564 80.9157 197.619 80.9421C197.674 80.9686 197.724 81.0056 197.764 81.0512C197.805 81.0967 197.837 81.1499 197.857 81.2076C198.057 81.7783 198.248 82.3794 198.427 83.0123C198.446 83.0815 198.449 83.1544 198.436 83.225C198.423 83.2957 198.393 83.3624 198.35 83.4197C198.306 83.4771 198.25 83.5237 198.186 83.5558C198.121 83.5879 198.05 83.6047 197.979 83.6048ZM196.734 80.0951C196.644 80.0951 196.556 80.0688 196.48 80.0194C196.404 79.97 196.345 79.8997 196.309 79.8169C196.064 79.2618 195.795 78.7184 195.5 78.1884C195.439 78.0805 195.424 77.9531 195.458 77.8341C195.492 77.7152 195.571 77.6144 195.679 77.5541C195.787 77.4937 195.914 77.4787 196.033 77.5123C196.152 77.546 196.253 77.6255 196.313 77.7334C196.622 78.289 196.905 78.8589 197.161 79.4412C197.192 79.5121 197.205 79.5897 197.199 79.667C197.193 79.7442 197.167 79.8187 197.125 79.8837C197.082 79.9486 197.025 80.002 196.956 80.0389C196.888 80.0758 196.812 80.0951 196.734 80.0951ZM186.373 77.2162H186.364C186.028 77.2162 185.717 77.1877 185.445 77.1314C185.324 77.1065 185.218 77.0346 185.15 76.9314C185.082 76.8282 185.058 76.7023 185.083 76.5812C185.107 76.4602 185.179 76.3539 185.283 76.2859C185.386 76.2179 185.512 76.1937 185.633 76.2185C185.846 76.2631 186.098 76.3045 186.373 76.2841C186.666 76.2841 186.985 76.2584 187.324 76.2072C187.577 76.1779 187.816 76.3443 187.854 76.599C187.863 76.6595 187.86 76.7212 187.845 76.7806C187.83 76.84 187.804 76.8959 187.768 76.9452C187.731 76.9944 187.686 77.036 187.633 77.0675C187.581 77.0991 187.523 77.12 187.462 77.1291C187.078 77.1869 186.712 77.2162 186.373 77.2162ZM194.907 76.856C194.763 76.856 194.62 76.7892 194.529 76.6634C194.18 76.1779 193.795 75.7193 193.377 75.2916C193.333 75.2481 193.299 75.1964 193.275 75.1395C193.251 75.0825 193.239 75.0215 193.24 74.9599C193.24 74.8982 193.252 74.8373 193.276 74.7805C193.3 74.7237 193.335 74.6722 193.379 74.629C193.423 74.5858 193.475 74.5517 193.532 74.5287C193.589 74.5058 193.65 74.4944 193.712 74.4952C193.774 74.4961 193.834 74.5091 193.891 74.5337C193.948 74.5582 193.999 74.5937 194.041 74.6381C194.492 75.0993 194.908 75.5935 195.285 76.1166C195.335 76.1861 195.366 76.2683 195.372 76.354C195.379 76.4397 195.362 76.5256 195.323 76.6022C195.284 76.6788 195.224 76.743 195.151 76.7878C195.077 76.8326 194.993 76.8562 194.907 76.856ZM189.2 76.681C189.09 76.6805 188.984 76.6412 188.9 76.57C188.817 76.4987 188.761 76.4002 188.742 76.2917C188.724 76.1833 188.745 76.0718 188.801 75.9772C188.857 75.8825 188.945 75.8107 189.048 75.7744C189.614 75.5786 190.165 75.3407 190.695 75.0627C190.804 75.0052 190.932 74.9936 191.05 75.0304C191.168 75.0671 191.267 75.1493 191.324 75.2588C191.382 75.3682 191.393 75.496 191.357 75.614C191.32 75.732 191.238 75.8306 191.128 75.888C190.556 76.1876 189.963 76.444 189.352 76.6552C189.302 76.6728 189.251 76.681 189.2 76.681ZM184.445 75.915C184.376 75.915 184.307 75.8995 184.245 75.8696C184.182 75.8397 184.127 75.7963 184.083 75.7424C184.039 75.6885 184.008 75.6256 183.992 75.5581C183.976 75.4907 183.974 75.4204 183.989 75.3525C184.031 75.1502 184.115 74.9361 184.236 74.717C184.471 74.2932 184.764 73.9049 185.108 73.5638C185.197 73.483 185.314 73.4397 185.434 73.4429C185.554 73.4461 185.669 73.4956 185.753 73.5811C185.838 73.6666 185.886 73.7814 185.888 73.9016C185.89 74.0219 185.845 74.1382 185.764 74.2263C185.483 74.5051 185.243 74.8226 185.052 75.1693C184.984 75.2867 184.933 75.4134 184.901 75.5455C184.854 75.765 184.66 75.915 184.445 75.915ZM192.495 74.9588C192.408 74.9591 192.322 74.9346 192.248 74.8883C192.173 74.8419 192.114 74.7755 192.075 74.6968C192.037 74.618 192.022 74.53 192.032 74.443C192.041 74.356 192.075 74.2734 192.13 74.2049C192.093 74.1915 192.057 74.1735 192.025 74.1513C191.522 73.8084 191.002 73.54 190.48 73.3537C190.422 73.3332 190.369 73.3015 190.324 73.2605C190.278 73.2194 190.241 73.1698 190.215 73.1145C190.189 73.0592 190.174 72.9993 190.171 72.9382C190.168 72.8771 190.177 72.816 190.198 72.7584C190.283 72.5162 190.55 72.3888 190.793 72.4763C191.415 72.7019 192.005 73.006 192.55 73.3814C192.664 73.4591 192.734 73.5795 192.75 73.7068C193.039 73.4692 193.315 73.2176 193.579 72.9529C193.622 72.9075 193.673 72.8711 193.73 72.8459C193.787 72.8207 193.849 72.8072 193.911 72.8061C193.973 72.805 194.035 72.8165 194.093 72.8397C194.151 72.863 194.203 72.8976 194.247 72.9415C194.292 72.9854 194.326 73.0377 194.35 73.0953C194.374 73.1529 194.386 73.2147 194.385 73.277C194.384 73.3393 194.371 73.4008 194.346 73.4579C194.321 73.515 194.285 73.5666 194.24 73.6095C193.785 74.0675 193.294 74.4887 192.771 74.8693C192.691 74.9274 192.594 74.9587 192.495 74.9588ZM186.989 73.3552C186.802 73.3552 186.626 73.242 186.554 73.0572C186.51 72.9418 186.513 72.8136 186.563 72.7007C186.613 72.5878 186.706 72.4994 186.821 72.4548C187.429 72.2216 188.074 72.1032 188.725 72.1056L188.82 72.1064C188.941 72.1122 189.054 72.1643 189.137 72.2519C189.22 72.3394 189.265 72.4555 189.264 72.576C189.263 72.6964 189.216 72.8119 189.132 72.8981C189.048 72.9843 188.933 73.0346 188.813 73.0384H188.797C188.171 73.0384 187.647 73.1349 187.156 73.3236C187.103 73.3447 187.046 73.3555 186.989 73.3552ZM195.104 72.3201C195.018 72.3201 194.935 72.2967 194.862 72.2525C194.789 72.2083 194.73 72.1449 194.69 72.0693C194.651 71.9936 194.633 71.9087 194.639 71.8236C194.644 71.7385 194.673 71.6566 194.722 71.5869C195.062 71.1012 195.358 70.5857 195.605 70.0467C195.658 69.9372 195.752 69.8528 195.867 69.8117C195.982 69.7706 196.108 69.7759 196.218 69.8266C196.329 69.8772 196.416 69.9692 196.46 70.0828C196.503 70.1964 196.501 70.3226 196.453 70.4345C196.182 71.0251 195.858 71.5898 195.485 72.1216C195.395 72.2509 195.25 72.3201 195.104 72.3201ZM196.647 68.9521C196.576 68.9521 196.506 68.9359 196.443 68.9047C196.379 68.8735 196.323 68.8282 196.279 68.7721C196.236 68.7161 196.206 68.6509 196.191 68.5814C196.177 68.5119 196.178 68.44 196.196 68.3713C196.339 67.8092 196.435 67.2181 196.482 66.615C196.493 66.4922 196.551 66.3783 196.645 66.2982C196.738 66.218 196.86 66.1779 196.983 66.1865C197.044 66.1912 197.103 66.2079 197.158 66.2356C197.212 66.2633 197.261 66.3015 197.301 66.3479C197.34 66.3944 197.37 66.4483 197.389 66.5065C197.408 66.5646 197.415 66.6259 197.411 66.6869C197.362 67.3328 197.257 67.9733 197.098 68.6013C197.073 68.7016 197.015 68.7906 196.933 68.8541C196.851 68.9176 196.751 68.9521 196.647 68.9521ZM196.946 65.256C196.704 65.256 196.5 65.0685 196.482 64.8232C196.447 64.3377 196.387 63.8543 196.3 63.3752L196.238 63.0349C196.226 62.9749 196.226 62.913 196.238 62.853C196.25 62.7929 196.273 62.7358 196.307 62.6849C196.341 62.634 196.385 62.5903 196.436 62.5563C196.487 62.5224 196.544 62.4988 196.604 62.4869C196.725 62.4641 196.851 62.4897 196.953 62.5584C197.055 62.627 197.126 62.733 197.151 62.8537C197.175 62.9728 197.198 63.0935 197.218 63.215C197.31 63.7314 197.376 64.2513 197.412 64.7568C197.417 64.8207 197.408 64.8849 197.387 64.9454C197.366 65.0059 197.332 65.0613 197.288 65.1081C197.245 65.155 197.192 65.1923 197.133 65.2178C197.074 65.2432 197.011 65.2563 196.946 65.256ZM196.245 61.6033C196.046 61.6033 195.861 61.4744 195.799 61.274C195.624 60.6984 195.413 60.1346 195.167 59.5857C195.121 59.4737 195.12 59.348 195.164 59.2353C195.209 59.1225 195.296 59.0316 195.406 58.9818C195.517 58.9319 195.642 58.9271 195.756 58.9683C195.871 59.0095 195.964 59.0935 196.017 59.2025C196.279 59.7875 196.504 60.3881 196.691 61.001C196.712 61.0706 196.716 61.1443 196.704 61.216C196.691 61.2877 196.662 61.3555 196.619 61.414C196.576 61.4725 196.519 61.5201 196.454 61.553C196.389 61.5858 196.318 61.6031 196.245 61.6033ZM194.698 58.2287C194.546 58.2287 194.398 58.1549 194.309 58.0193C193.984 57.5251 193.613 57.0629 193.2 56.6389C193.157 56.5952 193.123 56.5434 193.1 56.4865C193.076 56.4295 193.065 56.3686 193.065 56.3071C193.066 56.2456 193.078 56.1848 193.102 56.1282C193.126 56.0716 193.161 56.0203 193.205 55.9773C193.249 55.9343 193.301 55.9004 193.358 55.8777C193.416 55.8549 193.477 55.8436 193.538 55.8446C193.6 55.8455 193.66 55.8586 193.717 55.8831C193.773 55.9076 193.824 55.943 193.867 55.9873C194.321 56.4536 194.729 56.9623 195.086 57.5064C195.133 57.5767 195.159 57.6581 195.163 57.7421C195.166 57.8261 195.147 57.9095 195.107 57.9835C195.068 58.0576 195.008 58.1194 194.936 58.1626C194.864 58.2058 194.782 58.2286 194.698 58.2287ZM178.759 58.192C177.806 58.192 177.464 57.7123 177.464 57.2631C177.464 56.9697 177.603 56.667 177.889 56.3381C177.971 56.2449 178.085 56.1877 178.209 56.1792C178.332 56.1706 178.453 56.2113 178.546 56.2924C178.64 56.3734 178.697 56.4882 178.705 56.6114C178.714 56.7346 178.673 56.8562 178.592 56.9494C178.468 57.0932 178.421 57.185 178.405 57.2307C178.454 57.2248 178.552 57.2592 178.766 57.26C179.019 57.26 179.273 57.4619 179.279 57.7154C179.284 57.9685 179.133 58.1791 178.88 58.19L178.759 58.192ZM180.657 57.7334C180.566 57.7335 180.476 57.7066 180.4 57.6562C180.324 57.6057 180.264 57.534 180.229 57.4498C180.204 57.3935 180.192 57.3331 180.191 57.2719C180.19 57.2107 180.202 57.15 180.225 57.0932C180.247 57.0364 180.281 56.9847 180.324 56.941C180.367 56.8973 180.418 56.8624 180.474 56.8385C181.015 56.6066 181.527 56.3152 182.003 55.9697C182.053 55.9337 182.109 55.9079 182.168 55.8937C182.228 55.8795 182.29 55.8772 182.35 55.8869C182.411 55.8967 182.469 55.9183 182.521 55.9506C182.573 55.9828 182.618 56.025 182.654 56.0748C182.69 56.1243 182.716 56.1805 182.73 56.24C182.744 56.2996 182.746 56.3613 182.737 56.4217C182.727 56.4821 182.705 56.54 182.673 56.5921C182.641 56.6442 182.599 56.6894 182.549 56.7252C182.017 57.111 181.444 57.4366 180.84 57.6959C180.782 57.7208 180.72 57.7336 180.657 57.7334ZM179.701 55.9611C179.599 55.961 179.501 55.9277 179.42 55.8664C179.339 55.8051 179.28 55.719 179.253 55.6214C179.225 55.5237 179.23 55.4197 179.267 55.3252C179.304 55.2307 179.371 55.1509 179.458 55.0978C180.01 54.7622 180.587 54.4699 181.184 54.2236C181.299 54.1766 181.427 54.1766 181.541 54.2237C181.655 54.2708 181.746 54.3612 181.794 54.4752C181.841 54.5893 181.842 54.7176 181.794 54.8318C181.747 54.946 181.657 55.0369 181.543 55.0846C180.99 55.3121 180.455 55.5821 179.944 55.8924C179.871 55.9374 179.787 55.9612 179.701 55.9611ZM192.103 55.5916C192.011 55.5918 191.922 55.5648 191.846 55.5139C191.355 55.1888 190.831 54.9162 190.283 54.7006C190.168 54.6552 190.076 54.566 190.027 54.4526C189.977 54.3392 189.975 54.2109 190.021 54.0959C190.066 53.9809 190.155 53.8886 190.269 53.8394C190.382 53.7902 190.51 53.788 190.625 53.8334C191.234 54.0731 191.816 54.3762 192.361 54.7377C192.444 54.7931 192.507 54.8738 192.541 54.968C192.575 55.0621 192.578 55.1645 192.549 55.2603C192.52 55.356 192.461 55.4399 192.381 55.4996C192.3 55.5592 192.203 55.5915 192.103 55.5916ZM183.661 55.5709C183.57 55.5711 183.482 55.545 183.406 55.4959C183.331 55.4468 183.271 55.3767 183.234 55.2942C183.197 55.2118 183.186 55.1204 183.2 55.0313C183.214 54.9422 183.254 54.8592 183.315 54.7924C183.429 54.6662 183.539 54.5361 183.644 54.4029C183.512 54.4342 183.38 54.4682 183.248 54.5033C183.131 54.5298 183.008 54.5098 182.904 54.4476C182.801 54.3854 182.726 54.2857 182.695 54.1695C182.664 54.0533 182.679 53.9295 182.737 53.8239C182.795 53.7184 182.891 53.6394 183.006 53.6033C183.462 53.4805 183.924 53.3796 184.39 53.301C184.467 53.2065 184.578 53.1461 184.699 53.1326C184.82 53.1192 184.941 53.1538 185.037 53.2291C185.146 53.2494 185.244 53.3078 185.314 53.394C185.384 53.4801 185.421 53.5883 185.418 53.6991C185.415 53.8099 185.373 53.9162 185.299 53.9988C185.225 54.0813 185.124 54.1349 185.014 54.1498L184.958 54.1576C184.678 54.6041 184.359 55.0253 184.006 55.4166C183.963 55.4653 183.91 55.5043 183.85 55.5309C183.79 55.5575 183.726 55.5711 183.661 55.5709ZM188.665 54.2236C188.637 54.2236 188.609 54.2213 188.58 54.2158C187.994 54.1092 187.4 54.0517 186.804 54.0439C186.683 54.0396 186.568 53.9881 186.484 53.9005C186.4 53.8128 186.354 53.6959 186.355 53.5745C186.356 53.4532 186.404 53.337 186.489 53.2507C186.574 53.1644 186.69 53.1147 186.811 53.1123H186.819C187.478 53.1217 188.127 53.185 188.749 53.2998C189.002 53.3467 189.17 53.5896 189.123 53.8428C189.103 53.9497 189.047 54.0462 188.963 54.1157C188.879 54.1852 188.774 54.2234 188.665 54.2236ZM185.495 52.36C185.421 52.3601 185.349 52.3429 185.283 52.3098C185.218 52.2767 185.161 52.2286 185.118 52.1694C185.075 52.1103 185.046 52.0417 185.034 51.9693C185.023 51.8969 185.028 51.8228 185.05 51.7529C185.228 51.1883 185.352 50.6083 185.422 50.0205C185.452 49.7647 185.705 49.5842 185.939 49.6127C185.999 49.6199 186.058 49.639 186.112 49.6689C186.165 49.6988 186.212 49.739 186.25 49.7871C186.288 49.8352 186.316 49.8903 186.332 49.9493C186.349 50.0082 186.354 50.0699 186.346 50.1307C186.271 50.7769 186.135 51.4146 185.939 52.035C185.909 52.1293 185.85 52.2116 185.77 52.27C185.69 52.3285 185.593 52.36 185.495 52.36ZM185.946 48.6818C185.698 48.6818 185.492 48.4865 185.481 48.2369C185.452 47.6369 185.383 47.0394 185.276 46.4482C185.264 46.3875 185.264 46.325 185.277 46.2644C185.289 46.2037 185.313 46.1462 185.348 46.095C185.383 46.0439 185.428 46.0002 185.48 45.9666C185.532 45.9329 185.59 45.9099 185.651 45.899C185.712 45.888 185.774 45.8893 185.835 45.9028C185.895 45.9163 185.952 45.9416 186.003 45.9774C186.053 46.0132 186.096 46.0587 186.129 46.1112C186.162 46.1638 186.183 46.2223 186.193 46.2834C186.31 46.9322 186.384 47.576 186.411 48.1951C186.414 48.2562 186.405 48.3173 186.384 48.3749C186.363 48.4324 186.331 48.4853 186.29 48.5305C186.249 48.5757 186.199 48.6123 186.143 48.6382C186.088 48.6641 186.028 48.6788 185.967 48.6814L185.946 48.6818ZM185.294 45.0221C185.096 45.0221 184.913 44.8955 184.85 44.6967C184.673 44.1299 184.446 43.5797 184.173 43.0526C184.119 42.9434 184.111 42.8176 184.148 42.7021C184.186 42.5865 184.268 42.4903 184.375 42.4339C184.483 42.3775 184.609 42.3654 184.725 42.4002C184.842 42.435 184.94 42.5139 184.999 42.6201C185.298 43.1958 185.545 43.7965 185.738 44.4154C185.76 44.4853 185.766 44.5593 185.754 44.6315C185.742 44.7037 185.713 44.7721 185.67 44.8312C185.627 44.8903 185.57 44.9383 185.505 44.9715C185.439 45.0046 185.367 45.022 185.294 45.0221ZM183.553 41.7572C183.421 41.7572 183.29 41.7014 183.198 41.5928C182.821 41.148 182.391 40.7519 181.916 40.4139C181.816 40.3419 181.748 40.2332 181.728 40.1116C181.708 39.9901 181.737 39.8654 181.808 39.765C181.879 39.6645 181.988 39.5964 182.109 39.5756C182.231 39.5548 182.355 39.5828 182.456 39.6537C182.994 40.0368 183.481 40.4855 183.908 40.9893C183.965 41.057 184.002 41.1399 184.015 41.228C184.027 41.3161 184.013 41.4059 183.976 41.4866C183.939 41.5674 183.879 41.6358 183.804 41.6837C183.729 41.7317 183.642 41.7572 183.553 41.7572ZM167.868 40.9264C167.693 40.9264 167.525 40.8272 167.446 40.658C167.394 40.546 167.388 40.418 167.43 40.3019C167.472 40.1858 167.559 40.0911 167.67 40.0385C167.698 40.0252 168.368 39.7131 169.449 39.333C169.507 39.3126 169.568 39.3037 169.629 39.307C169.69 39.3102 169.75 39.3255 169.805 39.352C169.86 39.3784 169.91 39.4155 169.951 39.4611C169.991 39.5068 170.023 39.56 170.043 39.6178C170.063 39.6755 170.072 39.7367 170.069 39.7978C170.066 39.8589 170.05 39.9188 170.024 39.974C169.998 40.0292 169.96 40.0787 169.915 40.1195C169.869 40.1603 169.816 40.1917 169.758 40.2119C168.724 40.5752 168.072 40.8791 168.065 40.8819C168.004 40.9112 167.936 40.9264 167.868 40.9264ZM171.384 39.6822C171.271 39.6817 171.163 39.6404 171.078 39.5661C170.994 39.4918 170.939 39.3895 170.924 39.278C170.909 39.1664 170.935 39.0533 170.997 38.9593C171.059 38.8653 171.153 38.7969 171.261 38.7666C171.872 38.5987 172.49 38.4548 173.113 38.3354C173.234 38.3132 173.359 38.3396 173.461 38.4089C173.563 38.4782 173.634 38.5848 173.658 38.7057C173.67 38.7658 173.669 38.8276 173.657 38.8875C173.644 38.9475 173.62 39.0044 173.586 39.0551C173.552 39.1057 173.508 39.1491 173.456 39.1827C173.405 39.2163 173.348 39.2395 173.288 39.251C172.71 39.3612 172.111 39.501 171.507 39.6658C171.467 39.6766 171.425 39.6821 171.384 39.6822ZM180.552 39.6154C180.494 39.6154 180.436 39.6049 180.38 39.5826C179.83 39.3667 179.26 39.2056 178.678 39.1018C178.556 39.0795 178.449 39.0101 178.378 38.9086C178.308 38.8071 178.281 38.6819 178.303 38.5604C178.325 38.4387 178.395 38.3308 178.496 38.2605C178.598 38.1902 178.724 38.1632 178.845 38.1854C179.508 38.3061 180.14 38.485 180.724 38.7166C180.963 38.8115 181.08 39.083 180.985 39.3217C180.95 39.4084 180.891 39.4827 180.813 39.535C180.736 39.5874 180.645 39.6154 180.552 39.6154ZM175.045 38.9936C174.925 38.9949 174.808 38.9494 174.72 38.8665C174.633 38.7837 174.581 38.67 174.575 38.5495C174.569 38.4289 174.611 38.3109 174.691 38.2204C174.77 38.1298 174.882 38.0737 175.002 38.0639C175.662 38.0014 176.299 37.9768 176.921 37.9928C177.04 38.0002 177.152 38.0534 177.234 38.1412C177.315 38.2291 177.36 38.345 177.358 38.4648C177.356 38.5846 177.309 38.6991 177.225 38.7847C177.141 38.8703 177.028 38.9203 176.908 38.9244H176.895L176.55 38.9197C176.062 38.9208 175.575 38.9445 175.089 38.9908C175.075 38.993 175.06 38.9939 175.045 38.9936ZM42.5176 168.606C42.2754 168.606 42.0707 168.418 42.0535 168.172L42.0453 168.053C42.0371 167.93 42.078 167.808 42.1592 167.715C42.2404 167.622 42.3552 167.565 42.4785 167.556C42.6014 167.55 42.7221 167.591 42.8149 167.672C42.9077 167.753 42.9653 167.867 42.9754 167.989L42.9836 168.108C42.9919 168.232 42.9509 168.353 42.8697 168.446C42.7885 168.539 42.6737 168.596 42.5504 168.605L42.5176 168.606ZM42.298 166.637C42.1872 166.637 42.08 166.597 41.9958 166.525C41.9116 166.453 41.8557 166.353 41.8383 166.244C41.7451 165.648 41.6188 165.058 41.4598 164.476C41.4267 164.357 41.4423 164.23 41.5031 164.122C41.5638 164.015 41.6648 163.936 41.7838 163.903C41.9028 163.87 42.03 163.885 42.1375 163.946C42.245 164.007 42.324 164.108 42.357 164.227C42.5199 164.813 42.6555 165.443 42.7594 166.098C42.77 166.165 42.7661 166.233 42.7477 166.298C42.7294 166.363 42.6972 166.423 42.6533 166.474C42.6095 166.526 42.555 166.567 42.4936 166.595C42.4323 166.623 42.3655 166.637 42.298 166.637ZM41.2824 163.066C41.1051 163.066 40.9348 162.964 40.8574 162.791C40.6172 162.252 40.3252 161.737 39.9855 161.254C39.9193 161.154 39.8948 161.031 39.917 160.912C39.9393 160.794 40.0067 160.689 40.1049 160.619C40.2032 160.549 40.3248 160.52 40.4441 160.538C40.5633 160.555 40.671 160.619 40.7445 160.714C41.1196 161.247 41.4421 161.814 41.7074 162.409C41.7394 162.48 41.7531 162.557 41.7472 162.635C41.7414 162.713 41.7162 162.788 41.6739 162.853C41.6316 162.918 41.5737 162.972 41.5053 163.009C41.4369 163.047 41.3603 163.066 41.2824 163.066ZM39.1254 160.068C39.0152 160.068 38.9051 160.029 38.8168 159.951C38.3769 159.565 37.8949 159.229 37.3797 158.95C37.3258 158.921 37.2783 158.882 37.2397 158.834C37.2011 158.787 37.1723 158.732 37.1549 158.674C37.1374 158.615 37.1318 158.553 37.1382 158.492C37.1446 158.432 37.1629 158.373 37.1922 158.319C37.2514 158.21 37.351 158.13 37.4694 158.095C37.5877 158.06 37.7151 158.073 37.8238 158.131C38.4098 158.449 38.9516 158.827 39.434 159.253C39.505 159.316 39.5552 159.398 39.5779 159.49C39.6007 159.582 39.595 159.679 39.5614 159.767C39.5279 159.856 39.4682 159.932 39.3903 159.986C39.3124 160.039 39.22 160.068 39.1254 160.068ZM35.8871 158.284C35.8398 158.284 35.7914 158.277 35.7441 158.262C35.1728 158.081 34.5894 157.941 33.9984 157.841C33.8811 157.816 33.7782 157.746 33.7111 157.646C33.644 157.547 33.618 157.425 33.6384 157.307C33.6588 157.188 33.724 157.082 33.8206 157.011C33.9171 156.939 34.0375 156.908 34.1566 156.923C34.8254 157.038 35.4563 157.19 36.0297 157.375C36.1357 157.408 36.2262 157.479 36.2847 157.574C36.3432 157.668 36.3659 157.781 36.3487 157.891C36.3314 158 36.2754 158.101 36.1907 158.173C36.1061 158.245 35.9984 158.284 35.8871 158.284ZM19.1945 158.088C19.0709 158.089 18.9521 158.04 18.8642 157.953C18.7763 157.866 18.7265 157.748 18.7258 157.625C18.7251 157.501 18.7735 157.382 18.8603 157.294C18.9472 157.206 19.0655 157.157 19.1891 157.156C19.7988 157.149 20.416 157.129 21.0356 157.101C21.1563 157.1 21.2727 157.146 21.3603 157.229C21.4479 157.312 21.4999 157.426 21.5053 157.546C21.5107 157.667 21.4692 157.785 21.3894 157.876C21.3095 157.966 21.1977 158.022 21.0773 158.032C20.4465 158.061 19.8203 158.081 19.1996 158.088H19.1945ZM17.3324 158.063L17.3133 158.063C16.6807 158.038 16.0493 157.99 15.4203 157.918C15.2976 157.904 15.1855 157.842 15.1087 157.745C15.0319 157.648 14.9968 157.525 15.0109 157.402C15.0256 157.279 15.0882 157.168 15.185 157.091C15.2819 157.014 15.405 156.979 15.5277 156.993C16.0957 157.059 16.709 157.106 17.3516 157.132C17.4706 157.141 17.5816 157.195 17.6619 157.283C17.7422 157.372 17.7855 157.487 17.7831 157.607C17.7806 157.726 17.7325 157.84 17.6487 157.925C17.5649 158.01 17.4517 158.059 17.3324 158.063ZM22.9188 157.928C22.8004 157.928 22.6865 157.883 22.6001 157.802C22.5137 157.721 22.4613 157.61 22.4535 157.492C22.4457 157.369 22.4871 157.247 22.5687 157.154C22.6503 157.062 22.7654 157.005 22.8887 156.997L24.7461 156.871C24.9945 156.861 25.225 157.047 25.243 157.304C25.2512 157.427 25.2103 157.549 25.1291 157.642C25.0479 157.735 24.933 157.792 24.8098 157.801L22.9484 157.927L22.9188 157.928ZM26.6395 157.679C26.5181 157.68 26.4013 157.633 26.314 157.548C26.2267 157.464 26.1758 157.349 26.1721 157.228C26.1684 157.106 26.2121 156.988 26.2941 156.899C26.3761 156.809 26.4897 156.755 26.6109 156.748C27.2406 156.71 27.8668 156.677 28.4859 156.656C28.7398 156.616 28.9582 156.847 28.9684 157.105C28.9726 157.229 28.9276 157.349 28.8433 157.439C28.759 157.53 28.6423 157.583 28.5188 157.587C27.907 157.609 27.2902 157.641 26.6676 157.679L26.6395 157.679ZM32.2285 157.628C31.6072 157.583 30.9846 157.56 30.3617 157.557C30.2414 157.552 30.1279 157.5 30.0448 157.413C29.9618 157.326 29.9156 157.21 29.9161 157.089C29.9165 156.969 29.9635 156.853 30.0473 156.767C30.131 156.68 30.2449 156.629 30.3652 156.625H30.3688C31.0512 156.63 31.6711 156.653 32.2617 156.697C32.3822 156.705 32.4946 156.76 32.5753 156.85C32.656 156.94 32.6987 157.058 32.6944 157.178C32.6901 157.299 32.6391 157.413 32.5522 157.497C32.4653 157.581 32.3493 157.628 32.2285 157.628ZM13.6363 157.616C13.6035 157.616 13.5691 157.612 13.5352 157.605C12.9074 157.467 12.2899 157.286 11.6867 157.064C11.571 157.021 11.477 156.934 11.4255 156.821C11.3739 156.709 11.369 156.581 11.4117 156.465C11.4551 156.349 11.5424 156.256 11.6546 156.204C11.7668 156.153 11.8948 156.148 12.0105 156.191C12.5465 156.39 13.1273 156.56 13.7371 156.695C13.8489 156.72 13.9475 156.785 14.0142 156.879C14.0808 156.972 14.1107 157.086 14.0982 157.2C14.0858 157.314 14.0318 157.42 13.9466 157.496C13.8614 157.573 13.7509 157.615 13.6363 157.616ZM10.166 156.302C10.0859 156.302 10.0059 156.282 9.93203 156.239C9.36808 155.912 8.83709 155.532 8.34649 155.102C8.25932 155.02 8.20757 154.906 8.20205 154.786C8.19653 154.666 8.23768 154.548 8.31688 154.458C8.39609 154.367 8.50722 154.311 8.62704 154.3C8.74685 154.29 8.86607 154.326 8.95977 154.402C9.40552 154.791 9.88769 155.136 10.3996 155.433C10.4886 155.484 10.5581 155.563 10.5974 155.658C10.6367 155.753 10.6436 155.858 10.6169 155.957C10.5903 156.056 10.5316 156.144 10.4501 156.206C10.3685 156.269 10.2687 156.302 10.166 156.302ZM7.35938 153.879C7.22813 153.879 7.09805 153.824 7.00625 153.717C6.58722 153.232 6.19784 152.723 5.84024 152.191C5.8063 152.141 5.78273 152.083 5.77086 152.023C5.759 151.963 5.75907 151.902 5.77108 151.842C5.78308 151.782 5.80679 151.725 5.84084 151.674C5.87489 151.623 5.91862 151.579 5.96953 151.545C6.02045 151.511 6.07754 151.488 6.13757 151.476C6.19759 151.464 6.25936 151.464 6.31936 151.476C6.37935 151.488 6.4364 151.512 6.48723 151.546C6.53806 151.58 6.58169 151.624 6.61563 151.675C6.95184 152.175 7.31814 152.654 7.7125 153.11C7.77071 153.177 7.80829 153.26 7.82077 153.349C7.83326 153.437 7.82012 153.527 7.78293 153.608C7.74573 153.689 7.68605 153.758 7.61096 153.806C7.53588 153.854 7.44856 153.879 7.35938 153.879ZM5.31953 150.775C5.14219 150.775 4.97266 150.673 4.89453 150.5C4.62199 149.902 4.41834 149.275 4.2875 148.631C4.27556 148.571 4.27558 148.509 4.28755 148.449C4.29953 148.389 4.32323 148.332 4.35729 148.281C4.39136 148.23 4.43513 148.186 4.48609 148.152C4.53705 148.118 4.59421 148.095 4.6543 148.083C4.77537 148.06 4.90064 148.085 5.00299 148.154C5.10534 148.223 5.17654 148.329 5.20117 148.45C5.31871 149.024 5.50099 149.584 5.74453 150.118C5.77642 150.189 5.79004 150.266 5.78414 150.344C5.77824 150.422 5.75301 150.496 5.71075 150.562C5.6685 150.627 5.61056 150.681 5.54223 150.718C5.47389 150.755 5.39733 150.775 5.31953 150.775ZM4.63711 147.152C4.57248 147.153 4.50852 147.139 4.44931 147.113C4.3901 147.087 4.33693 147.049 4.29318 147.002C4.24943 146.954 4.21605 146.898 4.19516 146.837C4.17428 146.776 4.16635 146.711 4.17188 146.647C4.22953 145.983 4.38281 145.332 4.62696 144.712C4.6746 144.601 4.76372 144.512 4.87545 144.465C4.98718 144.419 5.11276 144.417 5.2256 144.461C5.33844 144.505 5.42969 144.592 5.48003 144.702C5.53037 144.812 5.53585 144.937 5.49532 145.052C5.28363 145.588 5.15061 146.152 5.10039 146.726C5.09052 146.842 5.03747 146.95 4.95171 147.029C4.86594 147.108 4.75369 147.152 4.63711 147.152ZM5.94961 143.715C5.86412 143.716 5.7802 143.692 5.70708 143.648C5.63395 143.604 5.57445 143.54 5.53513 143.464C5.4958 143.388 5.47817 143.303 5.48417 143.218C5.49017 143.133 5.51957 143.051 5.56914 142.981C5.94586 142.451 6.37029 141.957 6.83711 141.504C6.92622 141.421 7.0443 141.376 7.16609 141.379C7.28789 141.382 7.40373 141.432 7.48885 141.52C7.57397 141.607 7.62161 141.724 7.62157 141.846C7.62154 141.967 7.57384 142.084 7.48867 142.172C7.06219 142.584 6.67438 143.035 6.33008 143.518C6.28714 143.579 6.23016 143.629 6.16394 143.663C6.09772 143.697 6.0242 143.715 5.94961 143.715ZM8.58633 141.101C8.48834 141.101 8.39292 141.069 8.31362 141.012C8.23432 140.954 8.17517 140.873 8.14455 140.78C8.11394 140.687 8.11343 140.587 8.14309 140.493C8.17274 140.4 8.23106 140.318 8.30977 140.26C8.82489 139.882 9.36018 139.532 9.91328 139.212C9.96625 139.179 10.0253 139.157 10.087 139.147C10.1487 139.137 10.2118 139.14 10.2724 139.155C10.333 139.17 10.39 139.197 10.44 139.234C10.4899 139.272 10.5319 139.319 10.5632 139.373C10.5946 139.427 10.6148 139.487 10.6226 139.549C10.6305 139.611 10.6257 139.673 10.6088 139.734C10.5918 139.794 10.5629 139.85 10.5238 139.899C10.4847 139.947 10.4363 139.988 10.3813 140.017C9.85773 140.321 9.351 140.652 8.86328 141.01C8.78301 141.069 8.68598 141.101 8.58633 141.101ZM12.577 139.614C12.5613 139.614 12.5461 139.613 12.5305 139.612C11.8798 139.547 11.2375 139.415 10.6137 139.219C10.5003 139.179 10.4071 139.096 10.3535 138.988C10.2998 138.88 10.29 138.756 10.326 138.641C10.3619 138.526 10.441 138.429 10.5465 138.371C10.652 138.313 10.7759 138.298 10.8922 138.33C11.0695 138.385 11.2488 138.435 11.4281 138.479C11.4734 138.418 11.5348 138.367 11.6082 138.333C12.1859 138.067 12.7753 137.827 13.3746 137.613C13.4323 137.593 13.4934 137.584 13.5545 137.587C13.6156 137.591 13.6755 137.606 13.7308 137.632C13.786 137.658 13.8355 137.695 13.8764 137.741C13.9173 137.786 13.9489 137.839 13.9693 137.897C13.9898 137.955 13.9986 138.016 13.9954 138.077C13.9922 138.138 13.977 138.198 13.9506 138.253C13.9243 138.309 13.8873 138.358 13.8418 138.399C13.7963 138.44 13.7432 138.471 13.6855 138.492C13.418 138.587 13.1496 138.689 12.882 138.797C12.9914 138.893 13.0539 139.038 13.0395 139.194C13.0284 139.309 12.9749 139.416 12.8894 139.493C12.8039 139.571 12.6925 139.614 12.577 139.614ZM14.4336 139.584C14.2043 139.584 14.0039 139.415 13.973 139.181C13.9648 139.12 13.9685 139.059 13.9841 138.999C13.9997 138.94 14.0269 138.885 14.064 138.836C14.1011 138.787 14.1475 138.746 14.2005 138.716C14.2534 138.685 14.312 138.665 14.3727 138.657C14.9805 138.575 15.5539 138.416 16.0309 138.198C16.1434 138.147 16.2714 138.143 16.387 138.186C16.5027 138.229 16.5968 138.316 16.6488 138.428C16.7 138.54 16.7045 138.668 16.6614 138.784C16.6183 138.9 16.531 138.994 16.4188 139.045C15.8598 139.301 15.1957 139.486 14.4965 139.581C14.4754 139.583 14.4547 139.584 14.4336 139.584ZM9.03867 138.521C8.96485 138.521 8.89024 138.504 8.8211 138.466C8.25052 138.163 7.70458 137.816 7.18828 137.427C7.08946 137.353 7.02408 137.243 7.0065 137.12C6.98892 136.998 7.02058 136.874 7.09453 136.775C7.16899 136.677 7.27939 136.611 7.40167 136.594C7.52394 136.576 7.64817 136.608 7.74727 136.682C8.22457 137.041 8.72909 137.362 9.25625 137.643C9.4836 137.763 9.5711 138.045 9.45117 138.272C9.36719 138.431 9.20508 138.521 9.03867 138.521ZM15.3184 137.986C15.2044 137.985 15.0945 137.943 15.0094 137.867C14.9244 137.791 14.8701 137.687 14.8569 137.574C14.8437 137.46 14.8724 137.346 14.9376 137.253C15.0029 137.159 15.1001 137.093 15.2109 137.066C15.441 137.011 15.6633 136.965 15.8746 136.926C16.5383 136.806 17.025 136.818 17.3508 136.97C17.5836 137.079 17.6848 137.356 17.5754 137.59C17.466 137.824 17.1875 137.923 16.9555 137.815C16.9316 137.804 16.5676 137.749 16.0398 137.844C15.8449 137.879 15.6395 137.923 15.4254 137.974C15.3902 137.981 15.3539 137.986 15.3184 137.986ZM6.05586 136.307C5.93828 136.307 5.8211 136.263 5.73008 136.174C5.27469 135.728 4.84336 135.258 4.43789 134.765C4.35921 134.67 4.32163 134.547 4.33342 134.424C4.34522 134.301 4.40542 134.188 4.50078 134.109C4.59615 134.03 4.71886 133.993 4.84193 134.005C4.965 134.016 5.07835 134.077 5.15703 134.172C5.54111 134.639 5.95004 135.084 6.38203 135.507C6.44841 135.572 6.49397 135.655 6.51287 135.746C6.53177 135.836 6.52315 135.931 6.48813 136.017C6.45311 136.103 6.39327 136.176 6.31626 136.228C6.23926 136.279 6.14859 136.307 6.05586 136.307ZM3.67617 133.446C3.52891 133.446 3.38203 133.375 3.29219 133.244C3.02033 132.849 2.75994 132.445 2.51133 132.035L2.27852 131.641C2.24769 131.588 2.22757 131.53 2.2193 131.469C2.21104 131.409 2.2148 131.347 2.23036 131.288C2.24592 131.229 2.27298 131.173 2.31 131.124C2.34701 131.076 2.39326 131.035 2.4461 131.004C2.49893 130.973 2.55732 130.953 2.61794 130.945C2.67855 130.937 2.7402 130.94 2.79936 130.956C2.85852 130.971 2.91404 130.998 2.96274 131.035C3.01144 131.072 3.05238 131.119 3.08321 131.172L3.30977 131.553C3.54879 131.948 3.79915 132.336 4.06055 132.716C4.10844 132.787 4.13632 132.868 4.14119 132.953C4.14607 133.038 4.12775 133.122 4.08821 133.197C4.04868 133.272 3.98941 133.335 3.91681 133.379C3.84421 133.423 3.76101 133.446 3.67617 133.446ZM1.81407 130.224C1.63946 130.224 1.4711 130.124 1.3918 129.956C1.11964 129.377 0.88045 128.784 0.675393 128.179C0.593362 127.935 0.724612 127.671 0.968362 127.588C1.21328 127.508 1.47617 127.638 1.55821 127.882C1.75226 128.453 1.97866 129.014 2.23633 129.559C2.26958 129.631 2.28437 129.709 2.27932 129.787C2.27427 129.865 2.24955 129.941 2.20745 130.007C2.16535 130.074 2.10723 130.128 2.03847 130.166C1.96971 130.204 1.89252 130.223 1.81407 130.224ZM0.644534 126.694C0.53579 126.694 0.430507 126.656 0.347003 126.586C0.263498 126.517 0.207058 126.42 0.187503 126.313C0.0675031 125.675 0.00475357 125.027 2.64561e-06 124.378C-0.000413198 124.255 0.0482086 124.136 0.135204 124.048C0.2222 123.96 0.340466 123.911 0.464065 123.91H0.466018C0.722659 123.91 0.931253 124.117 0.932034 124.374C0.934768 124.946 0.99219 125.541 1.10313 126.144C1.11558 126.211 1.11306 126.28 1.09576 126.346C1.07845 126.413 1.04679 126.474 1.00301 126.527C0.959228 126.579 0.904412 126.621 0.842456 126.65C0.7805 126.679 0.712925 126.694 0.644534 126.694ZM0.648831 122.991C0.579604 122.992 0.511224 122.976 0.448669 122.947C0.386115 122.917 0.330959 122.874 0.287218 122.82C0.243477 122.766 0.21225 122.704 0.195811 122.636C0.179373 122.569 0.178136 122.499 0.19219 122.431C0.324221 121.79 0.528128 121.162 0.799221 120.566C0.906643 120.332 1.18321 120.23 1.41641 120.335C1.65039 120.442 1.75391 120.718 1.64766 120.952C1.40504 121.486 1.22279 122.045 1.1043 122.62C1.08267 122.725 1.02557 122.819 0.942619 122.886C0.859667 122.954 0.75592 122.991 0.648831 122.991ZM2.16992 119.626C2.08358 119.626 1.99893 119.602 1.92542 119.557C1.85191 119.512 1.79244 119.447 1.75363 119.37C1.71482 119.293 1.6982 119.206 1.70563 119.12C1.71306 119.034 1.74425 118.952 1.79571 118.883C2.18536 118.362 2.62252 117.878 3.10157 117.438C3.14658 117.397 3.19932 117.364 3.25678 117.343C3.31424 117.322 3.37529 117.313 3.43644 117.315C3.4976 117.318 3.55766 117.332 3.61321 117.358C3.66875 117.384 3.71868 117.42 3.76016 117.465C3.80163 117.51 3.83383 117.563 3.85493 117.62C3.87602 117.678 3.88558 117.739 3.88308 117.8C3.88058 117.861 3.86605 117.921 3.84034 117.977C3.81462 118.032 3.77822 118.082 3.73321 118.124C3.29659 118.524 2.89837 118.964 2.54375 119.439C2.45196 119.561 2.31172 119.626 2.16992 119.626ZM11.0461 117.237L10.9852 116.771L11.0461 116.305C11.6094 116.305 12.1617 116.192 12.6023 115.988C12.7145 115.936 12.8424 115.931 12.9583 115.973C13.0741 116.016 13.1686 116.102 13.2211 116.214C13.2732 116.326 13.2786 116.454 13.2363 116.57C13.194 116.686 13.1073 116.781 12.9953 116.833C12.427 117.098 11.7523 117.237 11.0461 117.237ZM4.88555 117.101C4.78522 117.102 4.68747 117.07 4.60684 117.01C4.52621 116.95 4.46702 116.866 4.43809 116.77C4.40915 116.674 4.41202 116.571 4.44627 116.477C4.48051 116.382 4.5443 116.302 4.62813 116.247C5.16539 115.892 5.72679 115.576 6.30821 115.299C6.36348 115.273 6.42339 115.258 6.48452 115.255C6.54564 115.252 6.60679 115.261 6.66446 115.281C6.72214 115.302 6.77521 115.333 6.82065 115.374C6.86609 115.415 6.90301 115.465 6.9293 115.52C6.95559 115.575 6.97073 115.635 6.97387 115.696C6.97701 115.757 6.96807 115.819 6.94758 115.876C6.92709 115.934 6.89543 115.987 6.85443 116.032C6.81342 116.078 6.76387 116.115 6.7086 116.141C6.16679 116.398 5.64376 116.693 5.14336 117.024C5.0669 117.075 4.97722 117.101 4.88555 117.101ZM9.16875 116.874C9.11133 116.874 9.05391 116.863 8.99766 116.842C8.37458 116.593 7.79416 116.248 7.27735 115.82C7.19039 115.747 7.1329 115.645 7.11563 115.533C7.09835 115.421 7.12247 115.307 7.18347 115.211C7.24448 115.115 7.3382 115.045 7.44713 115.014C7.55606 114.982 7.67274 114.991 7.77539 115.04C7.77188 114.84 7.89844 114.653 8.09844 114.588C8.71144 114.389 9.33808 114.234 9.97344 114.125C10.0951 114.105 10.2195 114.135 10.3199 114.206C10.4203 114.277 10.4888 114.385 10.5105 114.506C10.5535 114.76 10.382 115 10.1281 115.044C9.53726 115.145 8.95449 115.289 8.38438 115.474L8.38164 115.475C8.69024 115.677 9.01055 115.845 9.33985 115.974C9.5793 116.068 9.69649 116.339 9.60196 116.578C9.53008 116.762 9.3543 116.874 9.16875 116.874ZM13.6336 115.489C13.5629 115.489 13.4931 115.473 13.4296 115.442C13.366 115.411 13.3103 115.366 13.2668 115.311C13.232 115.267 13.082 115.115 12.5941 115.007C12.3608 114.957 12.1236 114.927 11.8852 114.918C11.824 114.915 11.764 114.9 11.7086 114.874C11.6532 114.848 11.6035 114.812 11.5623 114.766C11.5211 114.721 11.4893 114.668 11.4686 114.61C11.4479 114.553 11.4388 114.492 11.4418 114.431C11.4445 114.369 11.4592 114.309 11.4851 114.254C11.5111 114.198 11.5478 114.149 11.593 114.107C11.6383 114.066 11.6913 114.034 11.7489 114.014C11.8066 113.993 11.8677 113.984 11.9289 113.987C12.2445 114.002 12.5359 114.039 12.7961 114.097C13.3605 114.222 13.7652 114.436 14 114.735C14.0542 114.804 14.0879 114.887 14.0973 114.974C14.1067 115.061 14.0914 115.148 14.0531 115.227C14.0149 115.306 13.9553 115.372 13.8811 115.418C13.8068 115.465 13.7211 115.489 13.6336 115.489ZM6.29453 114.576C6.15352 114.576 6.01328 114.511 5.92149 114.389C5.53519 113.868 5.1956 113.314 4.90664 112.733C4.87915 112.679 4.86268 112.619 4.85819 112.558C4.85369 112.497 4.86125 112.436 4.88044 112.378C4.89963 112.32 4.93007 112.266 4.97002 112.22C5.00997 112.173 5.05865 112.135 5.11328 112.108C5.16792 112.08 5.22743 112.064 5.28842 112.059C5.34942 112.055 5.4107 112.063 5.46878 112.082C5.52685 112.101 5.58057 112.131 5.62688 112.171C5.67319 112.211 5.71118 112.26 5.73867 112.315C6.00357 112.846 6.31452 113.353 6.66797 113.83C6.71965 113.9 6.75104 113.982 6.75865 114.068C6.76625 114.154 6.74977 114.241 6.71104 114.318C6.67231 114.395 6.61286 114.46 6.53932 114.506C6.46577 114.552 6.38102 114.576 6.29453 114.576ZM4.60078 111.274C4.50418 111.274 4.40996 111.244 4.3312 111.188C4.25244 111.132 4.19307 111.053 4.16133 110.962C4.05267 110.651 3.95225 110.338 3.86016 110.022C3.77452 109.726 3.69625 109.427 3.62539 109.127C3.61136 109.068 3.6092 109.006 3.61902 108.945C3.62884 108.885 3.65045 108.827 3.68262 108.775C3.7148 108.723 3.7569 108.678 3.80653 108.642C3.85616 108.607 3.91235 108.581 3.97188 108.567C4.03141 108.553 4.09312 108.551 4.15349 108.561C4.21386 108.57 4.2717 108.592 4.32371 108.624C4.37573 108.656 4.4209 108.698 4.45664 108.748C4.49239 108.798 4.518 108.854 4.53203 108.913C4.67167 109.502 4.84142 110.083 5.04063 110.654C5.06522 110.725 5.07263 110.8 5.06223 110.873C5.05182 110.947 5.02392 111.017 4.98084 111.078C4.93777 111.139 4.88078 111.188 4.81466 111.222C4.74853 111.256 4.67519 111.274 4.60078 111.274ZM3.76524 107.65C3.65031 107.65 3.53957 107.607 3.45423 107.53C3.36889 107.453 3.31495 107.347 3.30274 107.233C3.23493 106.593 3.21157 105.949 3.23282 105.306C3.24297 105.049 3.41406 104.843 3.71602 104.858C3.83947 104.862 3.95606 104.915 4.0402 105.006C4.12435 105.096 4.16917 105.217 4.16485 105.34C4.15938 105.484 4.15664 105.629 4.15664 105.776C4.1573 106.23 4.18156 106.684 4.2293 107.136C4.23622 107.201 4.22936 107.266 4.20917 107.329C4.18898 107.391 4.15591 107.448 4.11213 107.496C4.06835 107.545 4.01482 107.584 3.95505 107.61C3.89528 107.637 3.83061 107.65 3.76524 107.65ZM3.90547 103.94C3.83685 103.94 3.76903 103.925 3.70686 103.896C3.64469 103.867 3.5897 103.824 3.54585 103.772C3.50199 103.719 3.47034 103.657 3.45316 103.591C3.43599 103.524 3.43371 103.455 3.44649 103.387C3.56563 102.757 3.73594 102.129 3.95235 101.522C3.99396 101.406 4.07997 101.311 4.19153 101.257C4.3031 101.204 4.43115 101.198 4.54766 101.239C4.78985 101.325 4.91641 101.592 4.82969 101.834C4.62929 102.397 4.47283 102.974 4.36172 103.56C4.34193 103.667 4.28547 103.763 4.20213 103.832C4.1188 103.902 4.01384 103.94 3.90547 103.94ZM5.14688 100.442C5.06636 100.442 4.98724 100.421 4.91723 100.381C4.84722 100.342 4.78871 100.284 4.74737 100.215C4.70604 100.146 4.6833 100.068 4.68136 99.9871C4.67943 99.9066 4.69836 99.827 4.73633 99.756C5.04064 99.1897 5.38337 98.645 5.76211 98.1255C5.83489 98.0256 5.94438 97.9587 6.0665 97.9395C6.18862 97.9203 6.31336 97.9504 6.41328 98.0232C6.51321 98.096 6.58012 98.2054 6.59932 98.3276C6.61851 98.4497 6.58841 98.5744 6.51563 98.6743C6.16178 99.1592 5.84162 99.6679 5.55742 100.197C5.51763 100.271 5.45842 100.333 5.38612 100.376C5.31382 100.419 5.23114 100.442 5.14688 100.442ZM7.3293 97.4314C7.23846 97.4313 7.14963 97.4046 7.07373 97.3547C6.99782 97.3048 6.93813 97.2338 6.902 97.1505C6.86587 97.0672 6.85486 96.9751 6.87032 96.8856C6.88579 96.796 6.92706 96.713 6.98906 96.6466C7.42692 96.1806 7.89026 95.7391 8.37696 95.3243C8.42351 95.2847 8.47742 95.2545 8.53561 95.2357C8.59381 95.2169 8.65514 95.2097 8.71612 95.2145C8.77709 95.2194 8.83651 95.2362 8.89098 95.264C8.94546 95.2919 8.99392 95.3301 9.0336 95.3767C9.07328 95.4232 9.1034 95.4772 9.12224 95.5354C9.14108 95.5935 9.14828 95.6549 9.14342 95.7159C9.13856 95.7768 9.12174 95.8363 9.09391 95.8907C9.06609 95.9452 9.02781 95.9937 8.98125 96.0333C8.52121 96.4254 8.08342 96.8428 7.66992 97.2837C7.6263 97.3304 7.57355 97.3675 7.51495 97.3929C7.45635 97.4183 7.39316 97.4314 7.3293 97.4314ZM10.1598 95.0103C10.0602 95.0104 9.96318 94.9786 9.88299 94.9196C9.8028 94.8605 9.74366 94.7773 9.71425 94.6822C9.68484 94.587 9.6867 94.485 9.71957 94.391C9.75244 94.297 9.81459 94.216 9.89688 94.1599C10.8578 93.5009 11.5344 93.1755 11.5625 93.1619C11.6177 93.1355 11.6776 93.1202 11.7387 93.117C11.7998 93.1137 11.861 93.1225 11.9187 93.1429C11.9764 93.1633 12.0296 93.1948 12.0751 93.2358C12.1206 93.2767 12.1576 93.3262 12.184 93.3814C12.2104 93.4366 12.2256 93.4965 12.2289 93.5576C12.2321 93.6187 12.2233 93.6799 12.2029 93.7376C12.1825 93.7953 12.151 93.8484 12.1101 93.8939C12.0692 93.9395 12.0197 93.9765 11.9645 94.0029C11.9582 94.0056 11.3199 94.3142 10.4227 94.929C10.3426 94.9841 10.2508 95.0103 10.1598 95.0103Z" fill="#241726"/>
<path d="M155.333 131.129C155.333 131.129 157.369 90.9216 154.569 90.9216C151.77 90.9216 147.444 91.9396 145.917 95.2478C144.39 98.556 143.118 135.964 141.591 138.254C140.064 140.545 155.333 131.129 155.333 131.129Z" fill="#EC7E96"/>
<path d="M102.018 196.255L142.403 194.391C142.403 194.391 139.337 168.428 145.154 161.157C150.97 153.886 167.259 140.227 171.11 130.874C174.961 121.522 176.247 87.9955 176.247 87.9955C176.247 87.9955 177.623 81.6685 172.396 80.8435C167.17 80.0181 165.519 83.0443 164.969 87.4455C164.969 87.4455 158.917 83.0443 155.616 87.7205C152.315 92.3966 155.086 123.927 151.215 127.607C125.075 152.454 110.278 148.547 106.152 159.55C102.026 170.554 102.018 196.255 102.018 196.255Z" fill="#EC7E96"/>
<path d="M158.643 128.348C158.543 128.348 158.445 128.315 158.365 128.255C158.284 128.195 158.226 128.11 158.197 128.014C158.169 127.918 158.172 127.815 158.207 127.721C158.241 127.627 158.305 127.546 158.389 127.491C158.425 127.467 162.055 125.018 162.578 117.945C163.123 110.605 164.491 89.2806 164.504 89.0665C164.521 88.8091 164.746 88.6193 164.999 88.631C165.122 88.6389 165.237 88.6955 165.319 88.7882C165.401 88.8809 165.442 89.0023 165.434 89.1255C165.421 89.3404 164.053 110.669 163.508 118.014C162.948 125.586 159.059 128.168 158.894 128.274C158.816 128.324 158.73 128.348 158.643 128.348ZM153.329 136.072C153.244 136.072 153.16 136.049 153.087 136.005C153.014 135.961 152.954 135.897 152.915 135.822C152.876 135.746 152.858 135.661 152.863 135.576C152.869 135.491 152.897 135.409 152.946 135.339C153.591 134.418 154.432 132.782 154.193 132.195C154.173 132.145 154.132 132.043 153.888 131.997C152.237 131.681 150.733 133.313 150.717 133.33C150.546 133.522 150.25 133.537 150.059 133.365C150.014 133.324 149.977 133.274 149.95 133.219C149.924 133.164 149.908 133.104 149.905 133.043C149.902 132.982 149.91 132.92 149.931 132.863C149.951 132.805 149.983 132.752 150.024 132.706C150.099 132.623 151.899 130.672 154.063 131.081C154.675 131.198 154.941 131.56 155.056 131.844C155.572 133.113 154.026 135.423 153.71 135.874C153.62 136.003 153.475 136.072 153.329 136.072ZM151.216 128.073C151.149 128.073 151.082 128.058 151.02 128.03C150.958 128.001 150.904 127.96 150.86 127.908C150.816 127.856 150.784 127.796 150.766 127.73C150.748 127.665 150.745 127.597 150.756 127.53C151.713 121.806 153.829 92.4564 153.85 92.1607C153.86 92.0376 153.918 91.9233 154.011 91.8425C154.104 91.7618 154.226 91.7211 154.349 91.7294C154.41 91.7338 154.47 91.7501 154.524 91.7775C154.579 91.8049 154.628 91.8427 154.668 91.889C154.708 91.9352 154.738 91.9888 154.758 92.0468C154.777 92.1048 154.785 92.1661 154.78 92.2271C154.693 93.4365 152.64 121.916 151.675 127.684C151.657 127.792 151.601 127.891 151.517 127.962C151.433 128.033 151.326 128.073 151.216 128.073Z" fill="#241726"/>
<path d="M107.925 170.66C107.731 170.66 107.55 170.537 107.484 170.342C107.384 170.041 105.128 162.873 113.807 154.194C118.106 149.894 120.71 148.936 123.467 147.92C126.219 146.907 129.338 145.758 134.819 140.87C142.954 133.615 151.113 127.016 155.739 127.853C156.989 128.079 157.954 128.822 158.605 130.061C159.958 132.63 157.052 137.368 149.722 144.544C144.443 149.713 138.729 154.252 138.672 154.297C138.624 154.335 138.569 154.363 138.51 154.38C138.451 154.397 138.389 154.402 138.329 154.394C138.268 154.387 138.209 154.368 138.156 154.339C138.102 154.309 138.055 154.269 138.017 154.221C137.979 154.173 137.951 154.118 137.934 154.059C137.917 154 137.912 153.939 137.919 153.878C137.926 153.817 137.945 153.758 137.975 153.705C138.005 153.651 138.045 153.604 138.093 153.566C144.341 148.616 160.058 134.822 157.781 130.494C157.262 129.509 156.54 128.944 155.574 128.77C151.323 127.994 143.017 134.806 135.44 141.565C129.827 146.571 126.618 147.752 123.789 148.794C121.016 149.815 118.62 150.697 114.466 154.852C106.221 163.096 108.347 169.979 108.369 170.048C108.407 170.165 108.398 170.293 108.342 170.403C108.286 170.513 108.189 170.597 108.072 170.636C108.025 170.652 107.975 170.661 107.925 170.66ZM137.696 183.691C137.611 183.691 137.529 183.668 137.456 183.624C137.384 183.581 137.325 183.519 137.285 183.445C137.245 183.37 137.226 183.287 137.23 183.202C137.234 183.118 137.261 183.037 137.308 182.966C137.787 182.248 137.591 180.8 137.474 180.302C137.446 180.182 137.467 180.055 137.532 179.95C137.598 179.845 137.702 179.771 137.822 179.742C137.882 179.728 137.943 179.726 138.004 179.736C138.064 179.746 138.122 179.767 138.174 179.799C138.226 179.832 138.271 179.874 138.307 179.924C138.342 179.973 138.368 180.03 138.382 180.089C138.434 180.312 138.872 182.301 138.083 183.483C137.993 183.618 137.846 183.691 137.696 183.691ZM138.278 176.584C138.194 176.584 138.111 176.562 138.039 176.518C137.967 176.475 137.907 176.413 137.867 176.338C137.828 176.264 137.809 176.18 137.813 176.096C137.817 176.012 137.844 175.93 137.89 175.86C138.369 175.142 138.174 173.694 138.057 173.196C138.029 173.076 138.05 172.949 138.115 172.844C138.18 172.739 138.284 172.664 138.404 172.636C138.464 172.622 138.526 172.62 138.586 172.629C138.646 172.639 138.704 172.661 138.756 172.693C138.808 172.725 138.854 172.768 138.889 172.817C138.925 172.867 138.95 172.923 138.964 172.983C139.017 173.206 139.454 175.195 138.666 176.377C138.576 176.511 138.428 176.584 138.278 176.584ZM133.735 181.244C133.651 181.244 133.568 181.221 133.495 181.178C133.423 181.135 133.364 181.073 133.324 180.998C133.284 180.924 133.265 180.84 133.269 180.756C133.273 180.672 133.3 180.59 133.347 180.52C133.826 179.802 133.63 178.354 133.513 177.856C133.485 177.736 133.506 177.609 133.571 177.504C133.637 177.399 133.741 177.324 133.861 177.296C133.921 177.282 133.982 177.279 134.043 177.289C134.103 177.299 134.161 177.321 134.213 177.353C134.265 177.385 134.31 177.427 134.346 177.477C134.381 177.527 134.407 177.583 134.421 177.643C134.474 177.866 134.91 179.854 134.122 181.037C134.08 181.101 134.022 181.153 133.955 181.189C133.887 181.225 133.812 181.244 133.735 181.244ZM134.667 187.652C134.583 187.652 134.5 187.629 134.428 187.585C134.355 187.542 134.296 187.48 134.256 187.406C134.216 187.331 134.197 187.248 134.201 187.163C134.206 187.079 134.232 186.998 134.279 186.927C134.758 186.209 134.562 184.761 134.445 184.263C134.417 184.143 134.438 184.016 134.503 183.911C134.569 183.806 134.673 183.732 134.793 183.703C134.853 183.689 134.914 183.687 134.975 183.696C135.035 183.706 135.093 183.728 135.145 183.76C135.197 183.792 135.242 183.835 135.278 183.884C135.314 183.934 135.339 183.99 135.353 184.05C135.406 184.273 135.842 186.262 135.054 187.444C134.965 187.579 134.817 187.652 134.667 187.652ZM138.395 191.379C138.31 191.379 138.228 191.356 138.155 191.313C138.083 191.27 138.024 191.208 137.984 191.133C137.944 191.059 137.925 190.975 137.929 190.891C137.933 190.807 137.96 190.725 138.007 190.655C138.486 189.937 138.29 188.489 138.173 187.991C138.145 187.871 138.166 187.744 138.231 187.639C138.296 187.534 138.401 187.459 138.521 187.431C138.58 187.417 138.642 187.414 138.703 187.424C138.763 187.434 138.821 187.456 138.873 187.488C138.925 187.52 138.97 187.562 139.006 187.612C139.041 187.662 139.067 187.718 139.081 187.778C139.133 188.001 139.57 189.989 138.782 191.172C138.692 191.307 138.545 191.379 138.395 191.379Z" fill="#241726"/>
<path d="M39.8397 131.129C39.8397 131.129 37.8038 90.9216 40.603 90.9216C43.4022 90.9216 47.7284 91.9396 49.2554 95.2478C50.7823 98.556 52.0546 135.964 53.5815 138.254C55.1085 140.545 39.8397 131.129 39.8397 131.129Z" fill="#EC7E96"/>
<path d="M93.1554 196.255L52.7703 194.391C52.7703 194.391 55.8359 168.428 50.0195 161.157C44.2027 153.886 27.914 140.227 24.0629 130.874C20.2117 121.522 18.9257 87.9955 18.9257 87.9955C18.9257 87.9955 17.5504 81.6685 22.7769 80.8435C28.0035 80.0181 29.6539 83.0443 30.2043 87.4455C30.2043 87.4455 36.2562 83.0443 39.557 87.7205C42.8578 92.3966 40.0871 123.927 43.9582 127.607C70.0976 152.454 84.8949 148.547 89.0211 159.55C93.1468 170.554 93.1554 196.255 93.1554 196.255Z" fill="#EC7E96"/>
<path d="M36.5304 128.348C36.4441 128.348 36.3566 128.324 36.2785 128.274C36.1136 128.168 32.225 125.585 31.664 118.014C31.1199 110.669 29.7519 89.3404 29.7382 89.1256C29.7304 89.0023 29.7719 88.881 29.8535 88.7882C29.9351 88.6955 30.0501 88.639 30.1734 88.631C30.4183 88.6177 30.6523 88.8088 30.6683 89.0666C30.682 89.281 32.05 110.605 32.5941 117.945C33.1203 125.058 36.7461 127.467 36.7824 127.49C36.8672 127.545 36.9322 127.625 36.9675 127.719C37.0028 127.814 37.0065 127.917 36.9781 128.014C36.9497 128.11 36.8908 128.195 36.81 128.256C36.7293 128.316 36.6312 128.348 36.5304 128.348ZM41.8441 136.072C41.6976 136.072 41.5527 136.003 41.4628 135.874C41.1472 135.424 39.6007 133.113 40.1168 131.844C40.2316 131.56 40.4972 131.198 41.1097 131.081C43.2832 130.665 45.0734 132.623 45.1488 132.706C45.2243 132.799 45.2612 132.918 45.2519 133.037C45.2426 133.156 45.1878 133.268 45.0988 133.348C45.0098 133.428 44.8935 133.471 44.7738 133.467C44.6542 133.464 44.5403 133.415 44.4558 133.33C44.4402 133.313 42.9304 131.682 41.2839 131.996C41.041 132.043 40.9992 132.145 40.9789 132.195C40.7406 132.783 41.5812 134.418 42.225 135.339C42.274 135.409 42.303 135.49 42.3087 135.575C42.3145 135.661 42.2967 135.746 42.2574 135.821C42.2181 135.897 42.1588 135.96 42.0859 136.005C42.013 136.049 41.9294 136.072 41.8441 136.072ZM43.9562 128.073C43.8462 128.072 43.7398 128.033 43.6558 127.962C43.5719 127.891 43.5159 127.792 43.4976 127.684C42.5339 121.916 40.4804 93.4365 40.3933 92.2271C40.3889 92.1661 40.3966 92.1048 40.4159 92.0468C40.4351 91.9887 40.4657 91.9351 40.5057 91.8889C40.5458 91.8426 40.5946 91.8048 40.6493 91.7774C40.704 91.7501 40.7636 91.7338 40.8246 91.7295C40.9476 91.7217 41.0688 91.7625 41.1621 91.8431C41.2554 91.9238 41.3133 92.0378 41.3234 92.1607C41.3445 92.4564 43.4605 121.806 44.4168 127.53C44.4279 127.597 44.4244 127.665 44.4064 127.73C44.3884 127.796 44.3564 127.856 44.3125 127.908C44.2687 127.96 44.2141 128.001 44.1525 128.03C44.091 128.058 44.024 128.073 43.9562 128.073Z" fill="#241726"/>
<path d="M87.2472 170.66C87.1735 170.66 87.1009 170.643 87.0352 170.609C86.9696 170.576 86.9128 170.527 86.8696 170.467C86.8264 170.408 86.7978 170.339 86.7864 170.266C86.775 170.193 86.781 170.118 86.8038 170.048C86.8257 169.98 88.9519 163.097 80.7077 154.853C76.5523 150.698 74.1577 149.816 71.3843 148.795C68.5538 147.753 65.3456 146.572 59.7327 141.566C52.155 134.807 43.8128 128.007 39.5999 128.77C38.6335 128.945 37.9116 129.509 37.3929 130.495C35.1148 134.823 50.8327 148.617 57.0808 153.567C57.1734 153.645 57.2319 153.756 57.244 153.877C57.2561 153.997 57.2207 154.118 57.1455 154.213C57.0703 154.308 56.961 154.37 56.8409 154.386C56.7207 154.401 56.5992 154.37 56.5019 154.298C56.4445 154.252 50.73 149.713 45.4511 144.545C38.1218 137.368 35.2159 132.631 36.5683 130.061C37.2198 128.823 38.1839 128.08 39.4343 127.854C44.0441 127.019 52.2179 133.615 60.3534 140.871C65.8343 145.759 68.953 146.907 71.7054 147.921C74.462 148.936 77.0659 149.895 81.3663 154.195C90.0445 162.873 87.7882 170.042 87.6882 170.343C87.6234 170.537 87.4421 170.66 87.2472 170.66ZM58.6511 182.081C58.5011 182.081 58.3534 182.008 58.2632 181.873C57.4749 180.691 57.912 178.702 57.9648 178.479C57.9786 178.42 58.0042 178.363 58.0398 178.314C58.0755 178.264 58.1206 178.222 58.1726 178.19C58.2246 178.157 58.2825 178.136 58.3429 178.126C58.4033 178.116 58.465 178.118 58.5245 178.132C58.7749 178.191 58.9304 178.442 58.8722 178.693C58.7558 179.19 58.5601 180.638 59.0386 181.357C59.0854 181.427 59.1123 181.508 59.1164 181.593C59.1206 181.677 59.1017 181.761 59.0619 181.835C59.0221 181.909 58.9629 181.971 58.8906 182.015C58.8182 182.058 58.7354 182.081 58.6511 182.081ZM58.0687 174.975C57.9187 174.975 57.771 174.902 57.6808 174.767C56.8925 173.584 57.3296 171.596 57.3823 171.373C57.3961 171.313 57.4215 171.257 57.4571 171.207C57.4928 171.157 57.5379 171.115 57.5899 171.083C57.642 171.051 57.6999 171.029 57.7603 171.019C57.8208 171.01 57.8826 171.012 57.9421 171.026C58.1925 171.085 58.348 171.336 58.2898 171.586C58.1734 172.084 57.9777 173.532 58.4562 174.25C58.503 174.32 58.5299 174.402 58.534 174.486C58.5381 174.571 58.5193 174.654 58.4795 174.729C58.4397 174.803 58.3805 174.865 58.3081 174.908C58.2358 174.952 58.153 174.975 58.0687 174.975ZM62.612 179.635C62.462 179.635 62.3144 179.562 62.2241 179.427C61.4359 178.245 61.873 176.256 61.9257 176.033C61.9395 175.974 61.9649 175.917 62.0006 175.867C62.0362 175.818 62.0814 175.775 62.1334 175.743C62.1854 175.711 62.2433 175.689 62.3037 175.68C62.3642 175.67 62.4259 175.672 62.4855 175.686C62.7359 175.745 62.8913 175.996 62.8331 176.246C62.7167 176.744 62.521 178.192 62.9995 178.911C63.0464 178.981 63.0733 179.062 63.0774 179.146C63.0815 179.231 63.0626 179.314 63.0229 179.389C62.9831 179.463 62.9238 179.525 62.8515 179.569C62.7791 179.612 62.6964 179.635 62.612 179.635ZM61.68 186.042C61.53 186.042 61.3823 185.969 61.2921 185.834C60.5038 184.652 60.9409 182.663 60.9937 182.44C61.0074 182.381 61.0328 182.324 61.0685 182.274C61.1041 182.225 61.1492 182.182 61.2013 182.15C61.2533 182.118 61.3112 182.096 61.3717 182.087C61.4321 182.077 61.4939 182.079 61.5534 182.093C61.8038 182.152 61.9593 182.403 61.9011 182.653C61.7847 183.151 61.589 184.599 62.0675 185.318C62.1143 185.388 62.1412 185.469 62.1454 185.553C62.1495 185.638 62.1306 185.721 62.0908 185.796C62.051 185.87 61.9918 185.932 61.9195 185.976C61.8471 186.019 61.7643 186.042 61.68 186.042ZM57.9523 189.77C57.8023 189.77 57.6546 189.697 57.5644 189.562C56.7761 188.38 57.2132 186.391 57.2659 186.168C57.2796 186.109 57.305 186.052 57.3406 186.002C57.3763 185.953 57.4214 185.91 57.4735 185.878C57.5255 185.846 57.5834 185.824 57.6439 185.815C57.7044 185.805 57.7662 185.807 57.8257 185.821C58.0761 185.88 58.2316 186.131 58.1734 186.382C58.057 186.879 57.8612 188.327 58.3398 189.046C58.3866 189.116 58.4135 189.197 58.4176 189.282C58.4217 189.366 58.4029 189.45 58.3631 189.524C58.3233 189.598 58.2641 189.66 58.1917 189.704C58.1194 189.747 58.0366 189.77 57.9523 189.77ZM97.0757 145.348C95.5195 145.348 94.3925 145.211 94.2316 144.835C93.8585 143.966 92.4023 134.468 92.1136 132.573C92.1043 132.513 92.107 132.451 92.1216 132.392C92.1362 132.332 92.1624 132.276 92.1987 132.227C92.235 132.178 92.2807 132.136 92.3331 132.105C92.3855 132.073 92.4437 132.052 92.5042 132.043C92.7546 132.008 92.9964 132.179 93.0347 132.434C93.6644 136.57 94.7304 143.219 95.0468 144.343C96.8554 144.873 110.602 143.497 112.116 142.631C112.086 141.404 110.845 134.584 110.032 130.383C110.011 130.263 110.038 130.139 110.107 130.039C110.177 129.938 110.283 129.869 110.403 129.845C110.523 129.822 110.647 129.847 110.749 129.914C110.851 129.982 110.922 130.086 110.948 130.206C111.174 131.381 113.165 141.72 113.039 142.862C112.995 143.257 112.945 143.705 108.494 144.363C108.395 144.378 101.217 145.348 97.0757 145.348Z" fill="#241726"/>
<path d="M85.5591 134.39C85.5591 134.39 83.9903 113.117 78.3524 112.073C57.772 108.265 41.8501 81.7283 66.5364 57.9908C96.572 29.1096 140.508 54.0658 136.89 86.8095C134.613 107.422 117.927 103.903 117.525 112.377C117.123 120.851 117.752 132.142 117.752 132.142L85.5591 134.39Z" fill="#A8D5CB"/>
<path d="M82.3723 119.106L117.895 117.682C117.895 117.682 119.286 136.244 118.338 136.356C117.39 136.468 85.5235 138.729 85.075 138.236C84.627 137.743 82.3723 119.106 82.3723 119.106Z" fill="#BB8397"/>
<path d="M88.9628 118.33C88.8592 118.33 88.7586 118.296 88.6768 118.232C88.5951 118.168 88.5368 118.079 88.5113 117.979C87.8058 115.206 81.7082 90.7849 84.6105 87.2291C84.9171 86.8548 85.3249 86.6736 85.7765 86.6904C87.9124 86.792 90.0824 88.7509 91.6359 91.0334C92.4496 88.6466 93.7554 86.2373 95.2507 84.9689C96.8054 83.6482 98.1031 83.8896 98.9187 84.3267C99.9898 84.9009 100.85 85.8818 101.514 87.0459C102.218 86.3236 102.991 85.7611 103.766 85.4509C105.06 84.9341 106.287 85.1017 107.316 85.9373C109.236 87.4986 109.846 93.0513 109.178 102.914C108.695 110.058 107.675 116.866 107.664 116.934C107.626 117.188 107.385 117.355 107.135 117.325C107.012 117.307 106.903 117.24 106.829 117.141C106.756 117.041 106.725 116.917 106.743 116.795C107.868 109.331 110.059 89.3677 106.728 86.6607C105.967 86.042 105.086 85.9259 104.113 86.3162C103.377 86.6107 102.634 87.1845 101.964 87.9244C102.908 89.9763 103.327 92.383 103.299 94.1373C103.271 95.897 102.81 97.0865 102.003 97.4865C101.593 97.6896 100.907 97.7837 99.9535 97.081C98.816 96.2419 98.3171 94.7787 98.5499 92.9619C98.7785 91.1787 99.6667 89.2818 100.843 87.808C100.212 86.6158 99.4082 85.647 98.4781 85.1486C97.6542 84.7068 96.7953 84.8802 95.8542 85.6798C94.2714 87.0216 92.98 89.6423 92.2703 92.0416C92.4066 92.2767 92.5359 92.5134 92.6582 92.7494C93.1667 93.7369 94.2671 96.1634 93.491 97.3728C93.3062 97.6599 92.9105 97.9931 92.2406 97.9603C91.8867 97.9435 91.2468 97.7775 90.9328 96.8552C90.5898 95.8478 90.7582 94.0916 91.2777 92.1978C89.8734 89.9091 87.7253 87.7158 85.7332 87.6216C85.6238 87.6162 85.4839 87.6349 85.3335 87.8185C83.3605 90.2353 86.6933 107.043 89.4144 117.75C89.4319 117.818 89.4335 117.89 89.4189 117.96C89.4044 118.029 89.3742 118.094 89.3307 118.15C89.2871 118.206 89.2313 118.252 89.1676 118.283C89.1038 118.314 89.0338 118.33 88.9628 118.33ZM91.93 93.3748C91.646 94.7193 91.5871 95.8849 91.8144 96.5544C91.971 97.0134 92.1902 97.024 92.2839 97.0287C92.6007 97.0455 92.6726 96.9208 92.7062 96.8685C92.971 96.4556 92.8335 95.1951 91.93 93.3748ZM101.29 88.7572C100.36 90.0416 99.6617 91.6177 99.4742 93.0802C99.3414 94.1177 99.4132 95.524 100.507 96.3306C100.824 96.563 101.266 96.8115 101.589 96.6505C101.948 96.4724 102.342 95.715 102.368 94.1216C102.394 92.4326 102.002 90.4556 101.29 88.7572ZM124.949 67.6611C124.842 67.661 124.737 67.6236 124.654 67.5553C124.571 67.487 124.514 67.392 124.493 67.2865C124.133 65.49 122.525 64.481 122.508 64.4709C122.407 64.4047 122.335 64.3016 122.308 64.1834C122.281 64.0652 122.302 63.9413 122.365 63.8378C122.428 63.7344 122.529 63.6596 122.646 63.6293C122.764 63.599 122.888 63.6156 122.993 63.6756C123.073 63.7248 124.966 64.8978 125.407 67.1037C125.421 67.1714 125.419 67.2412 125.402 67.3082C125.385 67.3751 125.354 67.4375 125.31 67.4909C125.266 67.5442 125.211 67.5872 125.149 67.6166C125.086 67.646 125.018 67.6612 124.949 67.6611ZM124.402 72.7459C124.294 72.7458 124.19 72.7084 124.107 72.6401C124.023 72.5718 123.967 72.4768 123.946 72.3713C123.585 70.5748 121.977 69.5658 121.96 69.5556C121.859 69.4895 121.787 69.3864 121.761 69.2682C121.734 69.15 121.754 69.026 121.817 68.9226C121.88 68.8191 121.981 68.7444 122.099 68.7141C122.216 68.6838 122.34 68.7004 122.446 68.7603C122.526 68.8096 124.418 69.9826 124.859 72.1885C124.873 72.2561 124.871 72.326 124.854 72.3929C124.838 72.4599 124.806 72.5223 124.762 72.5756C124.719 72.629 124.664 72.6719 124.601 72.7014C124.539 72.7308 124.471 72.746 124.402 72.7459ZM130.25 71.7853C130.142 71.7852 130.038 71.7478 129.955 71.6795C129.872 71.6112 129.815 71.5162 129.794 71.4107C129.433 69.6014 127.827 68.606 127.811 68.5967C127.705 68.5324 127.629 68.4289 127.6 68.3088C127.571 68.1887 127.591 68.0619 127.655 67.9562C127.719 67.8506 127.823 67.7748 127.943 67.7456C128.063 67.7163 128.19 67.7359 128.295 67.8002C128.375 67.8494 130.268 69.0221 130.708 71.2275C130.722 71.2953 130.72 71.3652 130.703 71.4322C130.687 71.4993 130.655 71.5617 130.611 71.6151C130.568 71.6685 130.512 71.7115 130.45 71.7409C130.387 71.7704 130.319 71.7855 130.25 71.7853ZM118.7 67.449C118.593 67.4489 118.489 67.4115 118.405 67.3432C118.322 67.2749 118.265 67.1799 118.244 67.0744C117.882 65.265 116.277 64.2697 116.26 64.2603C116.155 64.1961 116.079 64.0925 116.05 63.9724C116.021 63.8523 116.04 63.7255 116.104 63.6199C116.169 63.5143 116.272 63.4385 116.392 63.4092C116.512 63.38 116.639 63.3996 116.745 63.4639C116.825 63.5131 118.716 64.6857 119.159 66.8912C119.172 66.9589 119.171 67.0289 119.154 67.0959C119.137 67.1629 119.106 67.2254 119.062 67.2788C119.018 67.3322 118.963 67.3752 118.9 67.4046C118.838 67.434 118.769 67.4492 118.7 67.449ZM129.778 77.9072C129.67 77.9071 129.566 77.8697 129.483 77.8014C129.4 77.7331 129.343 77.6381 129.322 77.5326C128.96 75.7232 127.355 74.7275 127.339 74.7181C127.286 74.6864 127.241 74.6446 127.205 74.5953C127.168 74.5459 127.142 74.4898 127.128 74.4303C127.113 74.3708 127.111 74.3091 127.12 74.2486C127.13 74.1881 127.151 74.1301 127.183 74.0779C127.215 74.0256 127.257 73.9801 127.306 73.944C127.355 73.9078 127.411 73.8817 127.471 73.8672C127.53 73.8527 127.592 73.8501 127.652 73.8594C127.713 73.8687 127.771 73.8899 127.823 73.9217C127.903 73.9709 129.795 75.1443 130.236 77.3498C130.249 77.4175 130.248 77.4874 130.231 77.5544C130.214 77.6213 130.183 77.6838 130.139 77.7371C130.095 77.7904 130.04 77.8334 129.977 77.8628C129.915 77.8922 129.847 77.9074 129.778 77.9072ZM132.173 84.9603C132.107 84.9605 132.041 84.9466 131.981 84.9194C131.92 84.8922 131.866 84.8525 131.822 84.8028C131.779 84.7531 131.746 84.6946 131.726 84.6312C131.707 84.5678 131.701 84.5011 131.71 84.4353C131.944 82.6056 130.741 81.1494 130.728 81.1349C130.654 81.0397 130.62 80.9195 130.633 80.7996C130.646 80.6796 130.704 80.5693 130.797 80.4917C130.889 80.4141 131.008 80.3753 131.128 80.3835C131.249 80.3916 131.361 80.446 131.442 80.5353C131.502 80.6072 132.92 82.3232 132.634 84.5541C132.62 84.6662 132.565 84.7692 132.48 84.8439C132.395 84.9187 132.286 84.96 132.173 84.9603ZM126.687 81.567C126.622 81.5671 126.558 81.5538 126.499 81.5278C126.439 81.5018 126.386 81.4637 126.342 81.416C126.299 81.3683 126.265 81.312 126.245 81.2507C126.224 81.1894 126.216 81.1244 126.222 81.0599C126.382 79.2353 125.121 77.8154 125.109 77.8013C125.033 77.7089 124.996 77.5909 125.004 77.4716C125.013 77.3523 125.067 77.2409 125.156 77.1605C125.244 77.08 125.36 77.0366 125.48 77.0392C125.599 77.0417 125.713 77.0902 125.798 77.1744C125.862 77.2439 127.347 78.9013 127.15 81.142C127.14 81.2579 127.087 81.3657 127.001 81.4444C126.915 81.523 126.803 81.5667 126.687 81.567ZM91.8179 130.79C90.8011 130.79 89.8558 130.112 89.1531 128.886C88.6199 129.405 87.9554 129.761 87.1925 129.919C86.2249 130.122 85.3687 129.944 84.6523 129.392C82.8039 127.968 82.6007 124.508 82.5937 124.361C82.5904 124.3 82.5992 124.239 82.6195 124.181C82.6399 124.124 82.6714 124.071 82.7124 124.025C82.7533 123.98 82.8028 123.943 82.858 123.916C82.9133 123.89 82.9732 123.875 83.0343 123.872C83.2929 123.866 83.5113 124.056 83.5238 124.312C83.5257 124.344 83.7132 127.493 85.2222 128.654C85.7183 129.036 86.2988 129.151 87.0035 129.007C87.789 128.843 88.3386 128.448 88.7218 127.985C88.6953 127.921 88.671 127.855 88.6453 127.787C88.0683 126.229 87.7734 123.803 88.9273 123.29C89.273 123.138 89.6371 123.186 89.9238 123.427C90.5343 123.941 90.7273 125.303 90.3835 126.666C90.26 127.169 90.0596 127.65 89.7894 128.091C90.2152 128.958 91.0425 130.157 92.2449 129.793C92.8203 129.621 93.2734 129.215 93.6 128.584C93.5136 128.442 93.4367 128.295 93.3699 128.142C92.5726 126.345 92.9749 123.885 93.641 123.352C93.8484 123.187 94.1179 123.161 94.3425 123.285C95.0414 123.667 95.1753 125.564 95.0468 126.788C94.9804 127.415 94.8539 127.979 94.6699 128.472C95.2476 129.115 96.1187 129.346 97.2757 129.159C98.9187 128.894 99.9359 127.86 100.539 126.903C99.905 125.164 99.9234 123.027 100.993 122.385C101.332 122.181 101.687 122.183 101.964 122.387C102.579 122.839 102.53 124.109 102.28 125.146C102.126 125.785 101.889 126.402 101.577 126.981C102.016 127.951 102.995 129.356 104.839 128.858C105.881 128.578 106.701 127.92 107.284 127.123C107.057 126.69 106.889 126.229 106.784 125.752C106.471 124.306 106.846 123.067 107.718 122.671C108.242 122.432 108.602 122.624 108.771 122.759C109.248 123.141 109.393 124.035 109.16 125.151C109.008 125.854 108.745 126.528 108.379 127.148C109.023 128.091 110.086 128.842 111.639 128.842C113.194 128.842 114.017 127.626 114.434 126.607C114.44 126.589 114.447 126.572 114.455 126.554C113.639 124.82 113.385 122.666 114.305 121.951C114.616 121.71 114.975 121.686 115.266 121.888C116.062 122.44 116.031 124.696 115.506 126.374C115.493 126.415 115.48 126.456 115.467 126.496C115.547 126.642 115.632 126.786 115.725 126.927C116.347 127.877 117.371 128.855 118.717 128.122C118.77 128.093 118.829 128.074 118.89 128.067C118.951 128.061 119.013 128.066 119.071 128.084C119.13 128.101 119.185 128.13 119.232 128.168C119.28 128.207 119.319 128.254 119.348 128.308C119.378 128.362 119.396 128.421 119.403 128.481C119.409 128.542 119.404 128.604 119.387 128.662C119.369 128.721 119.341 128.776 119.302 128.823C119.264 128.871 119.217 128.911 119.163 128.94C117.706 129.734 116.163 129.216 115.02 127.549C114.256 128.977 113.068 129.774 111.64 129.774C109.944 129.774 108.66 129.007 107.822 127.949C107.159 128.762 106.254 129.443 105.082 129.758C103.414 130.206 101.93 129.51 100.994 127.886C100.176 128.962 98.9999 129.825 97.4246 130.079C96.1031 130.292 95.0144 130.035 94.2355 129.35C93.8058 130.017 93.2242 130.473 92.5125 130.686C92.2872 130.755 92.0533 130.79 91.8179 130.79ZM94.0269 124.553C93.8667 125.17 93.7648 126.26 94.0386 127.251C94.2406 126.193 94.1605 125.151 94.0269 124.553ZM89.3117 124.131C89.075 124.243 88.8968 125.381 89.3343 126.901C89.4925 126.472 89.5593 126.09 89.5855 125.877C89.7156 124.823 89.439 124.193 89.3117 124.131ZM108.188 123.486C108.194 123.49 108.161 123.494 108.105 123.519C107.664 123.72 107.489 124.594 107.696 125.554C107.737 125.744 107.793 125.938 107.862 126.133C108.062 125.694 108.2 125.244 108.277 124.812C108.426 123.964 108.262 123.538 108.188 123.486ZM101.449 123.211C101.101 123.514 100.933 124.5 101.155 125.65L101.196 125.535C101.607 124.349 101.555 123.492 101.449 123.211ZM114.805 122.775C114.576 123.129 114.588 124.02 114.868 125.016C115.024 124.004 114.952 123.125 114.805 122.775ZM93.9242 142.909C93.8015 142.91 93.6832 142.864 93.5947 142.779C93.5062 142.694 93.4548 142.578 93.4515 142.455C93.4483 142.332 93.4935 142.213 93.5774 142.124C93.6613 142.035 93.777 141.982 93.8996 141.977L112.796 140.995C113.083 140.984 113.273 141.18 113.286 141.437C113.293 141.56 113.25 141.681 113.167 141.773C113.085 141.865 112.969 141.92 112.846 141.927L93.9488 142.908L93.9242 142.909ZM94.1687 140.455C94.0492 140.455 93.9341 140.409 93.8474 140.327C93.7606 140.245 93.7088 140.132 93.7027 140.013C93.6966 139.894 93.7366 139.776 93.8145 139.686C93.8923 139.595 94.0021 139.538 94.121 139.526L111.791 137.685C112.041 137.652 112.276 137.843 112.302 138.1C112.309 138.161 112.303 138.222 112.286 138.281C112.268 138.34 112.24 138.394 112.201 138.442C112.162 138.489 112.115 138.529 112.061 138.558C112.007 138.587 111.948 138.605 111.887 138.611L94.2175 140.452C94.2013 140.454 94.185 140.455 94.1687 140.455Z" fill="#241726"/>
</svg>
