<svg width="71" height="71" viewBox="0 0 71 71" fill="none" xmlns="http://www.w3.org/2000/svg">
<path d="M40.2167 14.8137C40.1997 12.7689 38.82 10.272 37.1502 9.26549L23.0094 0.738428C21.34 -0.268086 18.6223 -0.242526 16.9698 0.795939L2.97313 9.59079C1.32122 10.629 -0.0172527 13.1514 0.000168147 15.1962L0.14497 32.519C0.161973 34.5639 1.54198 37.0606 3.21117 38.0671L17.3525 46.5945C19.0217 47.601 21.7397 47.5755 23.3918 46.5373L37.3886 37.742C39.0406 36.7037 40.3788 34.1812 40.3615 32.1364L40.2167 14.8137Z" fill="#F1854F"/>
<path d="M29.5401 39.58L29.3564 42.7895L37.3886 37.7423C39.0407 36.704 40.3789 34.1816 40.3616 32.1367L40.3391 29.473L32.8805 33.9747C31.1599 35.0127 29.6566 37.5353 29.5401 39.58ZM10.1915 23.7693C10.1915 25.7249 8.81627 27.3104 7.11963 27.3104C5.42326 27.3104 4.04785 25.7249 4.04785 23.7693C4.04785 21.8138 5.42326 20.2283 7.11963 20.2283C8.81627 20.2281 10.1915 21.8136 10.1915 23.7693ZM15.7957 34.8885C15.7957 36.8443 14.4203 38.4298 12.7238 38.4298C11.027 38.4298 9.65191 36.8444 9.65191 34.8885C9.65191 32.933 11.027 31.3475 12.7238 31.3475C14.4203 31.3476 15.7957 32.933 15.7957 34.8885Z" fill="#074785"/>
<path d="M38.7407 20.228C38.7407 22.1838 37.3656 23.769 35.6687 23.769C33.9722 23.769 32.597 22.1838 32.597 20.228C32.597 18.2725 33.9722 16.687 35.6687 16.687C37.3656 16.6872 38.7407 18.2725 38.7407 20.228ZM34.4519 28.1788C34.4519 30.1343 33.0766 31.7198 31.3797 31.7198C29.6833 31.7198 28.308 30.1344 28.308 28.1788C28.308 26.2231 29.6833 24.6376 31.3797 24.6376C33.0766 24.6376 34.4519 26.2231 34.4519 28.1788ZM29.4468 36.6828C29.4468 38.6385 28.0714 40.2241 26.3746 40.2241C24.6778 40.2241 23.303 38.6386 23.303 36.6828C23.303 34.7271 24.6778 33.1418 26.3746 33.1418C28.0714 33.1418 29.4468 34.7271 29.4468 36.6828Z" fill="#FFA4AC"/>
<path d="M21.315 44.2496C21.315 44.8344 20.807 45.3086 20.1806 45.3086C19.5544 45.3086 19.0465 44.8345 19.0465 44.2496V23.4999C19.0465 22.9152 19.5542 22.4409 20.1806 22.4409C20.807 22.4409 21.315 22.9152 21.315 23.4999V44.2496ZM18.41 20.7887C18.1122 21.4227 17.3407 21.6533 16.6861 21.3038L3.69978 14.3651C3.04588 14.0154 2.75697 13.2185 3.0548 12.5847C3.35262 11.9509 4.12429 11.7203 4.7782 12.07L17.7652 19.0089C18.4191 19.3581 18.7079 20.1551 18.41 20.7887ZM37.4736 11.6864C37.7665 12.3227 37.4489 13.1286 36.7653 13.4862L23.1868 20.5826C22.5031 20.9399 21.7114 20.7137 21.419 20.0769C21.1262 19.4407 21.4432 18.6347 22.1269 18.2776L35.706 11.1809C36.3898 10.8235 37.1813 11.0496 37.4736 11.6864Z" fill="#F9D555"/>
<path d="M70.8551 38.4806C70.838 36.4357 69.4583 33.9388 67.7885 32.9323L53.6476 24.4053C51.9782 23.3988 49.2605 23.4242 47.6083 24.4625L33.6116 33.2576C31.9595 34.2958 30.6212 36.8182 30.6386 38.8631L30.7833 56.1859C30.8004 58.2307 32.1804 60.7275 33.8497 61.7341L47.9907 70.2616C49.6599 71.2681 52.3779 71.2424 54.0303 70.2041L68.027 61.409C69.6789 60.3707 71.0174 57.8482 70.9999 55.8034L70.8551 38.4806Z" fill="#A089E4"/>
<path d="M40.83 47.4358C40.83 49.3914 39.4546 50.9768 37.7581 50.9768C36.0615 50.9768 34.6863 49.3914 34.6863 47.4358C34.6863 45.4801 36.0615 43.8948 37.7581 43.8948C39.4546 43.8948 40.83 45.4803 40.83 47.4358ZM46.4342 58.5553C46.4342 60.5111 45.0588 62.0964 43.3621 62.0964C41.6655 62.0964 40.2903 60.5111 40.2903 58.5553C40.2903 56.5996 41.6655 55.0141 43.3621 55.0141C45.0588 55.0141 46.4342 56.5996 46.4342 58.5553Z" fill="#074785"/>
<path d="M69.3786 43.8945C69.3786 45.8502 68.0038 47.4355 66.3069 47.4355C64.6102 47.4355 63.2352 45.8502 63.2352 43.8945C63.2352 41.9389 64.6102 40.3535 66.3069 40.3535C68.0037 40.3535 69.3786 41.939 69.3786 43.8945ZM65.0898 51.8451C65.0898 53.8008 63.7149 55.3863 62.0179 55.3863C60.3214 55.3863 58.946 53.8008 58.946 51.8451C58.946 49.8896 60.3214 48.3041 62.0179 48.3041C63.7149 48.3041 65.0898 49.8896 65.0898 51.8451ZM60.0847 60.3493C60.0847 62.3051 58.7096 63.8905 57.0129 63.8905C55.316 63.8905 53.9412 62.3051 53.9412 60.3493C53.9412 58.3938 55.316 56.8082 57.0129 56.8082C58.7096 56.8082 60.0847 58.3938 60.0847 60.3493Z" fill="#7BEFE5"/>
<path d="M51.9532 67.9161C51.9532 68.501 51.4455 68.9749 50.8192 68.9749C50.1929 68.9749 49.685 68.5008 49.685 67.9161V47.1665C49.685 46.5816 50.1927 46.1076 50.8192 46.1076C51.4455 46.1076 51.9532 46.5816 51.9532 47.1665V67.9161ZM49.0487 44.4555C48.7509 45.0893 47.9793 45.32 47.3247 44.9704L34.3381 38.0317C33.6844 37.6822 33.3957 36.885 33.6934 36.2514C33.9913 35.6177 34.7629 35.3871 35.4167 35.7364L48.4038 42.6753C49.0577 43.0246 49.3464 43.8218 49.0487 44.4555ZM68.1122 35.353C68.4051 35.9895 68.0875 36.7954 67.4038 37.1527L53.8255 44.2492C53.1417 44.6065 52.3501 44.3803 52.0573 43.7435C51.7648 43.1073 52.0819 42.3013 52.7657 41.9442L66.3443 34.8475C67.0282 34.4901 67.8199 34.7163 68.1122 35.353Z" fill="#F9D555"/>
<path d="M13.1896 7.59461C11.3533 7.60457 10.2495 9.16851 10.1918 11.1514C10.1633 12.1672 11.5614 12.3004 11.5908 11.2808C11.622 10.1692 11.9994 9.31622 13.0397 9.1746C14.1822 9.01931 14.7774 9.94959 14.6457 11.1408C14.5339 12.1522 15.9326 12.2765 16.0438 11.27C16.2704 9.21562 15.0398 7.58376 13.1896 7.59461ZM27.7781 7.31687C25.9446 7.38641 24.8805 8.98453 24.8738 10.9704C24.8703 11.9864 26.2703 12.0745 26.2739 11.054C26.2778 9.94171 26.6326 9.07741 27.6691 8.90191C28.807 8.71006 29.4255 9.62161 29.3241 10.8163C29.2378 11.8314 30.6377 11.9105 30.723 10.9007C30.8992 8.8386 29.6269 7.24776 27.7781 7.31687ZM22.9168 10.2426C22.9645 9.8151 22.8232 9.39751 22.4172 9.27625C22.0848 9.17713 21.6099 9.41029 21.5611 9.83872C21.4928 10.4553 21.3669 11.526 20.7383 11.7403C19.8466 12.0423 19.4519 10.824 19.4051 10.0686C19.3435 9.05765 17.9423 9.06641 18.0036 10.0866C18.107 11.7721 18.9592 13.346 20.6004 13.3377C22.0783 13.3302 22.7566 11.6743 22.9168 10.2426ZM44.1897 31.1433C42.3536 31.1534 41.2499 32.717 41.1922 34.7001C41.1635 35.7158 42.5614 35.8491 42.591 34.8295C42.6224 33.7179 42.9997 32.8648 44.0399 32.7233C45.1823 32.5678 45.7777 33.4983 45.6458 34.6894C45.5343 35.7008 46.933 35.825 47.0438 34.8185C47.2708 32.7643 46.0402 31.1323 44.1897 31.1433ZM58.7783 30.8656C56.9448 30.9351 55.8806 32.5332 55.8738 34.5189C55.8704 35.5349 57.2705 35.6232 57.2739 34.6027C57.2779 33.4904 57.6329 32.626 58.6693 32.4504C59.8071 32.2586 60.4259 33.1702 60.3243 34.3648C60.2379 35.3798 61.638 35.459 61.7235 34.4492C61.8996 32.3873 60.6273 30.7965 58.7783 30.8656ZM53.9172 33.7913C53.9646 33.3636 53.8234 32.9462 53.4173 32.8249C53.0851 32.7258 52.6101 32.959 52.561 33.3874C52.4929 34.0038 52.367 35.0747 51.7385 35.2888C50.8468 35.591 50.4521 34.3725 50.4055 33.6173C50.3436 32.6063 48.9424 32.6153 49.0039 33.6351C49.1074 35.3208 49.9596 36.8945 51.6007 36.8862C53.0787 36.8788 53.7569 35.223 53.9172 33.7913Z" fill="#074785"/>
<path d="M56.0033 49.3888C56.0033 49.8659 55.6409 50.2527 55.1928 50.2527C54.9797 50.2497 54.7762 50.1573 54.6265 49.9955C54.4767 49.8338 54.3928 49.6156 54.3928 49.3883C54.3928 49.161 54.4767 48.9429 54.6265 48.7811C54.7762 48.6193 54.9797 48.5269 55.1928 48.5239C55.2993 48.5239 55.4048 48.5463 55.5032 48.5898C55.6015 48.6332 55.6909 48.6969 55.7662 48.7773C55.8415 48.8576 55.9011 48.953 55.9418 49.0579C55.9825 49.1628 56.0034 49.2753 56.0033 49.3888ZM49.8126 39.5487C49.8126 39.6622 49.7916 39.7745 49.7509 39.8793C49.7102 39.9842 49.6505 40.0794 49.5752 40.1596C49.5 40.2398 49.4106 40.3035 49.3123 40.3469C49.214 40.3903 49.1086 40.4126 49.0022 40.4125C48.789 40.4096 48.5856 40.3172 48.4358 40.1554C48.2861 39.9936 48.2021 39.7755 48.2021 39.5482C48.2021 39.3209 48.2861 39.1027 48.4358 38.9409C48.5856 38.7792 48.789 38.6868 49.0022 38.6838C49.1087 38.6838 49.2141 38.7061 49.3125 38.7496C49.4109 38.7931 49.5003 38.8568 49.5755 38.9371C49.6508 39.0174 49.7105 39.1128 49.7512 39.2177C49.7918 39.3227 49.8127 39.4351 49.8126 39.5487ZM52.7641 28.1993C52.7641 28.3128 52.7431 28.4251 52.7024 28.5299C52.6616 28.6348 52.6019 28.73 52.5266 28.8102C52.4514 28.8905 52.362 28.9541 52.2637 28.9975C52.1654 29.0409 52.06 29.0632 51.9536 29.0631C51.7404 29.0602 51.5369 28.9678 51.3872 28.806C51.2374 28.6442 51.1535 28.4261 51.1535 28.1988C51.1535 27.9715 51.2374 27.7533 51.3872 27.5915C51.5369 27.4298 51.7404 27.3374 51.9536 27.3344C52.0601 27.3344 52.1655 27.3567 52.2639 27.4002C52.3623 27.4437 52.4517 27.5074 52.5269 27.5877C52.6022 27.668 52.6619 27.7634 52.7026 27.8683C52.7433 27.9733 52.7642 28.0857 52.7641 28.1993ZM36.8093 56.8088C36.8065 57.036 36.7199 57.2529 36.5682 57.4125C36.4166 57.5721 36.2121 57.6616 35.999 57.6616C35.7859 57.6616 35.5813 57.5721 35.4297 57.4125C35.278 57.2529 35.1914 57.036 35.1886 56.8088C35.1886 56.5796 35.274 56.3598 35.426 56.1978C35.5779 56.0357 35.784 55.9447 35.999 55.9447C36.2139 55.9447 36.42 56.0357 36.572 56.1978C36.7239 56.3598 36.8093 56.5796 36.8093 56.8088ZM55.5623 66.0603C55.5623 66.2895 55.4769 66.5093 55.3249 66.6713C55.173 66.8334 54.9668 66.9244 54.7519 66.9244C54.537 66.9244 54.3308 66.8334 54.1788 66.6713C54.0269 66.5093 53.9415 66.2895 53.9415 66.0603C53.9415 65.8311 54.0269 65.6113 54.1788 65.4493C54.3308 65.2872 54.537 65.1961 54.7519 65.1961C54.9668 65.1961 55.173 65.2872 55.3249 65.4493C55.4769 65.6113 55.5623 65.8311 55.5623 66.0603ZM37.5638 27.4077C37.5638 27.5211 37.5429 27.6335 37.5021 27.7383C37.4614 27.8431 37.4017 27.9384 37.3265 28.0186C37.2512 28.0988 37.1619 28.1624 37.0635 28.2058C36.9652 28.2492 36.8598 28.2715 36.7534 28.2715C36.5403 28.2685 36.3368 28.1761 36.1871 28.0144C36.0373 27.8526 35.9534 27.6344 35.9534 27.4071C35.9534 27.1798 36.0373 26.9617 36.1871 26.7999C36.3368 26.6381 36.5403 26.5457 36.7534 26.5428C36.8599 26.5428 36.9653 26.5651 37.0637 26.6086C37.1621 26.6521 37.2515 26.7158 37.3267 26.7961C37.402 26.8765 37.4617 26.9718 37.5023 27.0767C37.543 27.1817 37.5639 27.2941 37.5638 27.4077ZM15.0091 28.1791C15.0091 28.2925 14.9881 28.4049 14.9473 28.5097C14.9066 28.6146 14.8469 28.7098 14.7716 28.79C14.6963 28.8702 14.607 28.9338 14.5086 28.9772C14.4103 29.0206 14.3049 29.0429 14.1985 29.0428C13.9861 29.0386 13.7838 28.9457 13.635 28.784C13.4862 28.6224 13.4028 28.405 13.4028 28.1785C13.4028 27.952 13.4862 27.7345 13.635 27.5729C13.7838 27.4113 13.9861 27.3184 14.1985 27.3142C14.305 27.3142 14.4104 27.3366 14.5088 27.38C14.6072 27.4235 14.6966 27.4872 14.7718 27.5675C14.8471 27.6479 14.9068 27.7432 14.9475 27.8481C14.9882 27.9531 15.0091 28.0655 15.0091 28.1791ZM21.2744 15.9877C21.2744 16.2169 21.189 16.4366 21.037 16.5987C20.8851 16.7608 20.6789 16.8518 20.464 16.8518C20.2491 16.8518 20.0429 16.7608 19.8909 16.5987C19.739 16.4366 19.6536 16.2169 19.6536 15.9877C19.6536 15.8742 19.6745 15.7618 19.7153 15.657C19.756 15.5521 19.8157 15.4569 19.8909 15.3766C19.9662 15.2964 20.0555 15.2327 20.1539 15.1893C20.2522 15.1459 20.3576 15.1235 20.464 15.1235C20.5704 15.1235 20.6758 15.1459 20.7741 15.1893C20.8724 15.2327 20.9618 15.2964 21.037 15.3766C21.1123 15.4569 21.172 15.5521 21.2127 15.657C21.2534 15.7618 21.2744 15.8742 21.2744 15.9877ZM22.0848 3.89389C22.0868 4.00872 22.0672 4.12281 22.0273 4.2295C21.9875 4.33618 21.928 4.43332 21.8525 4.51524C21.7771 4.59716 21.687 4.66221 21.5877 4.7066C21.4883 4.75099 21.3817 4.77382 21.274 4.77376C21.1663 4.7737 21.0597 4.75075 20.9604 4.70626C20.8611 4.66176 20.7711 4.59661 20.6957 4.5146C20.6203 4.4326 20.5609 4.3354 20.5211 4.22867C20.4814 4.12194 20.4619 4.00783 20.464 3.893C20.468 3.66659 20.5553 3.45091 20.7069 3.29236C20.8585 3.13381 21.0624 3.04505 21.2748 3.04517C21.4872 3.04528 21.691 3.13427 21.8425 3.29299C21.994 3.4517 22.081 3.66747 22.0848 3.89389ZM16.8814 40.4131C16.8814 40.6423 16.7961 40.8621 16.6441 41.0242C16.4921 41.1862 16.286 41.2773 16.071 41.2773C15.8561 41.2773 15.65 41.1862 15.498 41.0242C15.346 40.8621 15.2606 40.6423 15.2606 40.4131C15.2606 40.1839 15.346 39.9641 15.498 39.8021C15.65 39.64 15.8561 39.549 16.071 39.549C16.286 39.549 16.4921 39.64 16.6441 39.8021C16.7961 39.9641 16.8814 40.1839 16.8814 40.4131Z" fill="white"/>
<path d="M25.4095 23.2013C25.2909 23.0783 25.054 21.3659 24.838 21.3782C24.6221 21.3932 24.4332 23.0921 24.3323 23.2037C24.1304 23.4283 22.6489 23.5873 22.6602 23.8054C22.673 24.0224 24.128 24.1248 24.3337 24.337C24.4484 24.4557 24.689 26.1733 24.9058 26.1598C25.1207 26.1469 25.3064 24.4528 25.411 24.3364C25.6059 24.1199 27.0993 23.9524 27.0871 23.7331C27.0748 23.5158 25.6071 23.4063 25.4095 23.2013ZM67.8393 55.3288C67.7207 55.2058 67.4839 53.4932 67.2678 53.5057C67.0519 53.5209 66.8631 55.2196 66.762 55.3312C66.5602 55.5557 65.0788 55.7146 65.0899 55.9329C65.1027 56.15 66.558 56.2523 66.7636 56.4645C66.8781 56.5832 67.1187 58.3008 67.3355 58.2873C67.5507 58.2742 67.7362 56.5801 67.8407 56.4639C68.0357 56.2474 69.5291 56.0797 69.517 55.8605C69.5046 55.6431 68.0368 55.5337 67.8393 55.3288Z" fill="#074785"/>
<path d="M44.6673 48.8201C44.5486 48.6979 44.3106 46.9845 44.095 46.9981C43.8794 47.0121 43.6912 48.7108 43.5905 48.8235C43.3874 49.0477 41.9062 49.2061 41.9181 49.4244C41.9306 49.641 43.3849 49.7442 43.5909 49.9563C43.7052 50.0745 43.9467 51.7929 44.163 51.7788C44.3786 51.7655 44.5631 50.0713 44.6679 49.9551C44.8633 49.7385 46.3565 49.5711 46.3448 49.3527C46.3318 49.1345 44.8641 49.0247 44.6673 48.8201ZM5.90244 33.3064C5.7837 33.1841 5.54552 31.4708 5.33006 31.4845C5.11418 31.4984 4.92604 33.1972 4.82556 33.3098C4.6225 33.5339 3.14117 33.6926 3.1533 33.9109C3.1657 34.1273 4.61971 34.2306 4.82584 34.4428C4.94012 34.5609 5.18164 36.2794 5.39779 36.2653C5.61353 36.2519 5.79806 34.558 5.903 34.4416C6.09825 34.2249 7.59156 34.0576 7.57999 33.8393C7.56675 33.6208 6.09923 33.511 5.90244 33.3064ZM1.52954 20.2864V27.041C1.52954 28.0618 3.01421 28.0618 3.01421 27.041V20.2864C3.01421 19.2654 1.52954 19.2654 1.52954 20.2864ZM2.27181 29.2045C1.31436 29.2045 1.31436 30.7878 2.27181 30.7878C3.22925 30.7878 3.22925 29.2045 2.27181 29.2045ZM2.27181 16.7506C1.31436 16.7506 1.31436 18.3337 2.27181 18.3337C3.22925 18.3337 3.22925 16.7506 2.27181 16.7506ZM31.8547 45.3951V52.1497C31.8547 53.1707 33.3394 53.1707 33.3394 52.1497V45.3951C33.3394 44.3742 31.8547 44.3742 31.8547 45.3951ZM32.597 54.3135C31.6397 54.3135 31.6397 55.8966 32.597 55.8966C33.5545 55.8966 33.5545 54.3135 32.597 54.3135ZM32.597 41.8593C31.6397 41.8593 31.6397 43.4424 32.597 43.4424C33.5545 43.4424 33.5545 41.8593 32.597 41.8593ZM42.181 29.0984C40.4869 30.0534 38.8562 31.1308 37.1331 32.0272C36.2725 32.4749 37.0257 33.8402 37.8824 33.3942C39.6054 32.4975 41.2363 31.4204 42.9303 30.4653C43.7774 29.9883 43.0267 28.6217 42.181 29.0984ZM44.9312 27.4073C43.9739 27.4073 43.9739 28.9906 44.9312 28.9906C45.8888 28.9906 45.8888 27.4073 44.9312 27.4073ZM35.2809 33.2649C34.3233 33.2649 34.3233 34.8482 35.2809 34.8482C36.2383 34.848 36.2383 33.2649 35.2809 33.2649ZM12.2669 4.7932C10.5727 5.74814 8.94188 6.82554 7.2189 7.72209C6.35845 8.16984 7.11144 9.53494 7.96827 9.08912C9.69112 8.19258 11.322 7.11533 13.0161 6.16023C13.8628 5.68291 13.1124 4.31647 12.2669 4.7932ZM15.017 3.10205C14.0594 3.10205 14.0594 4.68516 15.017 4.68516C15.9743 4.68516 15.9743 3.10205 15.017 3.10205ZM5.36644 8.95954C4.40913 8.95954 4.40913 10.5426 5.36644 10.5426C6.32402 10.5428 6.32402 8.95954 5.36644 8.95954Z" fill="white"/>
</svg>
