<svg width="190" height="186" viewBox="0 0 190 186" fill="none" xmlns="http://www.w3.org/2000/svg">
<path d="M42.6792 26.8459L42.6495 26.8452C41.4156 26.7825 35.2759 13.9467 34.2101 11.4578C33.2052 9.11064 33.2812 8.8442 33.4887 8.60373C33.5104 8.57827 33.5352 8.55559 33.5625 8.53619C33.5956 8.51021 33.6323 8.48758 33.6709 8.47125C33.7659 8.42932 33.8768 8.41113 34.0301 8.41113C36.0997 8.41113 52.0949 13.0268 53.1095 14.5401C53.2706 14.7806 53.2238 14.9899 53.1811 15.093C52.6545 16.3755 49.0753 17.428 48.3628 17.6261C48.3064 17.6415 48.2474 17.6451 48.1896 17.6368C48.1317 17.6285 48.0761 17.6085 48.0263 17.5779C44.1354 15.171 38.301 11.6411 35.4469 10.0751C37.6564 12.2104 42.2996 16.3377 45.4531 19.0845C45.5707 19.1869 45.6223 19.3458 45.5882 19.4983C43.919 26.8448 42.9864 26.8459 42.6799 26.8463L42.6792 26.8459ZM34.7385 10.5509C36.4007 14.562 41.4895 24.5073 42.6907 25.9019C43.1913 25.2168 44.0801 22.2473 44.7035 19.5569C38.9924 14.5798 36.1472 11.9621 34.7385 10.5509ZM36.3227 9.61681C39.6488 11.4348 45.3184 14.9071 48.3127 16.7581C49.7893 16.3299 51.7999 15.5417 52.3035 14.9201C51.103 14.041 41.2546 10.719 36.3227 9.61681Z" fill="#241726"/>
<path d="M46.9929 24.3356C46.968 24.3356 46.9421 24.3345 46.915 24.3319C46.1071 24.2536 44.7686 22.7069 44.2309 22.0456C44.1957 22.0024 44.1694 21.9527 44.1535 21.8994C44.1375 21.8461 44.1323 21.7901 44.138 21.7347C44.1436 21.6794 44.1602 21.6256 44.1866 21.5767C44.2131 21.5277 44.2489 21.4844 44.2921 21.4492C44.3353 21.4141 44.3849 21.3878 44.4383 21.3719C44.4916 21.3559 44.5476 21.3507 44.6029 21.3564C44.6583 21.362 44.712 21.3786 44.761 21.405C44.81 21.4315 44.8533 21.4673 44.8884 21.5105C45.6544 22.4512 46.5502 23.3088 46.9146 23.4639C47.1681 22.8724 47.5659 19.8921 47.7885 17.3294C47.7925 17.2732 47.8076 17.2184 47.8329 17.1681C47.8583 17.1179 47.8934 17.0732 47.9362 17.0366C47.9791 17.0001 48.0287 16.9724 48.0824 16.9552C48.136 16.9381 48.1925 16.9318 48.2486 16.9367C48.3046 16.9416 48.3592 16.9576 48.409 16.9838C48.4589 17.01 48.503 17.0458 48.5388 17.0893C48.5746 17.1327 48.6015 17.1828 48.6177 17.2367C48.634 17.2906 48.6393 17.3472 48.6335 17.4032C48.3867 20.2421 47.9759 23.7233 47.4211 24.1853C47.3358 24.2558 47.1948 24.3356 46.9929 24.3356Z" fill="#241726"/>
<path d="M6.35435 60.1305C6.35435 60.1305 5.49527 53.6086 11.7727 55.719C18.0505 57.8294 16.0046 63.8007 13.6114 61.757C11.2183 59.7134 15.7085 52.7833 20.5123 55.8693C25.3161 58.9553 24.2418 64.9433 20.8344 65.3852C17.427 65.8272 22.8973 58.4131 27.1897 62.992C31.4822 67.571 22.1102 75.9187 18.2776 72.8494C14.4449 69.7801 17.4441 64.8264 18.3637 67.8456C19.2832 70.8648 16.8036 73.8254 10.0059 73.7081C3.20822 73.5912 6.3024 63.1331 8.67851 66.1771C11.0546 69.2212 7.10989 72.6572 2.31463 69.0709C-2.48027 65.4847 2.99002 58.0706 6.35435 60.1305Z" fill="white"/>
<path d="M10.3922 74.1354L9.99886 74.1321C7.77341 74.0939 6.20814 72.9524 5.65856 70.9863C4.4859 70.8398 3.24868 70.2987 2.06118 69.4103C0.186045 68.0083 -0.448524 65.8797 0.319638 63.5704C1.10673 61.2047 3.20155 59.3511 5.08967 59.3511C5.3665 59.3511 5.63406 59.3889 5.89086 59.4639C5.88084 58.5599 6.01703 57.0069 6.93994 55.9545C7.96564 54.7851 9.65337 54.5595 11.9085 55.3169C12.7821 55.6105 13.5473 55.9923 14.1878 56.454C15.2669 55.3128 16.6448 54.6653 18.0215 54.6653C18.9519 54.6653 19.8673 54.9503 20.742 55.5125C22.8183 56.8466 24.0781 58.8987 24.1772 61.0707C25.3966 61.1023 26.5136 61.6507 27.4996 62.702C28.8326 64.1241 29.0782 66.0348 28.191 68.0829C26.8406 71.2005 23.153 73.935 20.3 73.9354C19.4079 73.9354 18.6383 73.6816 18.013 73.1802C17.7181 72.9452 17.4454 72.6836 17.1984 72.3987C15.6992 73.5365 13.3602 74.1354 10.3922 74.1354ZM6.55697 71.0197C6.94328 72.1271 7.86619 73.247 10.0133 73.2838L10.3918 73.2871C13.8219 73.2871 15.6922 72.4804 16.6941 71.7155C15.7337 70.1684 15.8057 68.4759 16.3379 67.4283C16.6437 66.8264 17.0867 66.4813 17.5536 66.4813C17.8664 66.4813 18.4405 66.6423 18.7693 67.7218C19.2294 69.2333 18.8865 70.7106 17.83 71.8332C18.0458 72.0831 18.2843 72.3124 18.5425 72.5182C19.0138 72.8956 19.605 73.0871 20.2993 73.0871C22.8109 73.0867 26.2012 70.541 27.4124 67.7456C27.9394 66.5299 28.2745 64.7687 26.8806 63.2817C26.0568 62.4033 25.1409 61.9446 24.1564 61.9183C23.9549 64.0035 22.6528 65.5769 20.8893 65.8059C19.7493 65.9525 19.3671 65.3587 19.3448 64.8073C19.2951 63.5808 21.0667 61.5186 23.3311 61.132C23.2517 59.2268 22.1329 57.414 20.2837 56.2261C18.465 55.0568 16.3754 55.4056 14.8435 56.995C16.3301 58.4044 16.6073 60.14 16.1939 61.2978C15.9074 62.1012 15.2929 62.6007 14.5911 62.6007C14.1699 62.6007 13.7358 62.4208 13.3365 62.0797C12.018 60.9538 12.4488 58.7521 13.6441 57.1082C13.0815 56.7115 12.4091 56.3801 11.638 56.1211C9.73501 55.4817 8.37236 55.6079 7.57711 56.5133C6.48461 57.7591 6.77183 60.0521 6.7748 60.0751C6.78541 60.1545 6.77327 60.2354 6.73978 60.3082C6.7063 60.381 6.65284 60.4429 6.58563 60.4865C6.51841 60.5302 6.44019 60.5539 6.36004 60.5549C6.27989 60.5559 6.2011 60.5342 6.13281 60.4922C5.81911 60.2988 5.45743 60.1974 5.08893 60.1994C3.57004 60.1994 1.79102 61.8318 1.1238 63.8387C0.478466 65.7784 1.00542 67.5619 2.56846 68.7312C3.54407 69.4604 4.54305 69.9283 5.48897 70.102C5.32234 68.5865 5.71607 66.8713 6.48721 65.9142C6.86498 65.4452 7.30509 65.1977 7.76043 65.1977C8.07548 65.1977 8.549 65.3223 9.01249 65.9161C9.85413 66.9937 10.0456 68.2091 9.53722 69.25C9.03439 70.2813 7.90664 70.9451 6.55697 71.0197ZM17.5543 67.3296C17.4682 67.3296 17.2749 67.458 17.0949 67.8124C16.7023 68.5854 16.6388 69.8983 17.3298 71.1222C18.0898 70.2386 18.3139 69.1361 17.9581 67.9686C17.8152 67.4999 17.6382 67.3296 17.5543 67.3296ZM7.7608 66.0456C7.57377 66.0456 7.35631 66.1877 7.14812 66.446C6.56476 67.1696 6.13764 68.7182 6.35287 70.1781C7.46467 70.1632 8.3898 69.6678 8.77537 68.8778C9.1357 68.1397 8.97835 67.2505 8.34416 66.4378C8.20462 66.259 7.99013 66.0456 7.7608 66.0456ZM23.2933 62.0022C21.4541 62.4037 20.165 64.0944 20.192 64.7727C20.1958 64.8603 20.2002 64.9798 20.5583 64.9798C20.6262 64.9798 20.7004 64.9743 20.7799 64.9646C22.0961 64.7935 23.0821 63.6053 23.2933 62.0022ZM14.2991 57.6478C13.2597 59.0891 13.0608 60.7286 13.8872 61.4344C14.5117 61.9688 15.1237 61.7721 15.3953 61.0125C15.7104 60.1296 15.4755 58.7866 14.2991 57.6478Z" fill="#241726"/>
<path d="M127.28 21.4784C127.28 21.4784 126.421 14.9565 132.699 17.0669C138.976 19.1773 136.931 25.1485 134.537 23.1049C132.144 21.0617 136.634 14.1311 141.438 17.2172C146.242 20.3032 145.168 26.2911 141.76 26.7331C138.353 27.1751 143.823 19.761 148.115 24.3399C152.407 28.9188 143.035 37.2666 139.203 34.1973C135.37 31.1279 138.369 26.1742 139.289 29.1934C140.208 32.2127 137.729 35.1732 130.931 35.056C124.133 34.9391 127.228 24.4809 129.604 27.525C131.98 30.5691 128.035 34.005 123.24 30.4188C118.445 26.8325 123.915 19.4185 127.28 21.4784Z" fill="white"/>
<path d="M131.317 35.4836L130.924 35.4802C128.699 35.4416 127.133 34.3005 126.584 32.3345C125.411 32.1879 124.174 31.6468 122.986 30.7584C121.111 29.3565 120.476 27.2279 121.244 24.9189C122.031 22.5525 124.126 20.6988 126.015 20.6988C126.291 20.6988 126.559 20.7367 126.816 20.8117C126.806 19.9077 126.942 18.355 127.865 17.3022C128.891 16.1325 130.579 15.908 132.833 16.6647C133.707 16.9582 134.472 17.3397 135.113 17.8017C136.192 16.6602 137.569 16.0134 138.946 16.0134C139.877 16.0134 140.792 16.2984 141.667 16.8603C143.743 18.1943 145.003 20.2465 145.102 22.4185C146.322 22.45 147.439 22.9985 148.425 24.0498C149.758 25.4718 150.003 27.3826 149.116 29.4307C147.766 32.5482 144.078 35.2828 141.225 35.2832C140.333 35.2832 139.564 35.0294 138.938 34.528C138.643 34.293 138.37 34.0314 138.123 33.7465C136.625 34.8846 134.286 35.4836 131.317 35.4836ZM127.483 32.3679C127.869 33.4748 128.792 34.5952 130.939 34.6319L131.317 34.6353C134.747 34.6353 136.618 33.8285 137.62 33.0637C136.659 31.5162 136.731 29.8244 137.263 28.7764C137.569 28.1745 138.012 27.8294 138.479 27.8294C138.792 27.8294 139.366 27.9905 139.695 29.07C140.155 30.5814 139.812 32.0588 138.756 33.1813C138.971 33.4312 139.21 33.6606 139.468 33.8663C139.939 34.2437 140.531 34.4352 141.225 34.4352C143.736 34.4349 147.127 31.8892 148.338 29.0937C148.865 27.878 149.2 26.1168 147.806 24.6298C146.982 23.7515 146.067 23.2928 145.082 23.2664C144.881 25.3516 143.578 26.9251 141.815 27.154C140.675 27.3002 140.293 26.7072 140.27 26.1554C140.221 24.9289 141.992 22.8668 144.257 22.4801C144.177 20.5749 143.058 18.7621 141.209 17.5742C139.389 16.4057 137.301 16.7545 135.769 18.3424C137.256 19.7522 137.533 21.4882 137.12 22.646C136.66 23.9326 135.325 24.3363 134.262 23.4275C132.944 22.3016 133.374 20.0999 134.57 18.4556C134.008 18.0593 133.335 17.7279 132.564 17.4689C130.662 16.8306 129.298 16.9553 128.503 17.8611C127.41 19.1069 127.697 21.4002 127.7 21.4229C127.711 21.5023 127.699 21.5831 127.665 21.656C127.632 21.7288 127.578 21.7906 127.511 21.8343C127.444 21.878 127.366 21.9017 127.286 21.9027C127.206 21.9037 127.127 21.8819 127.058 21.84C126.745 21.6466 126.383 21.5451 126.015 21.5472C124.495 21.5472 122.717 23.1796 122.049 25.1865C121.404 27.1266 121.931 28.9097 123.494 30.079C124.47 30.8085 125.469 31.2761 126.415 31.4502C126.248 29.9346 126.642 28.2194 127.413 27.262C127.791 26.7933 128.231 26.5454 128.686 26.5454C129.001 26.5454 129.475 26.6701 129.938 27.2642C130.78 28.3419 130.971 29.5572 130.463 30.5981C129.96 31.6294 128.832 32.2937 127.483 32.3679ZM138.48 28.6781C138.393 28.6781 138.2 28.8065 138.02 29.1609C137.628 29.9339 137.564 31.2468 138.255 32.4707C139.015 31.5871 139.239 30.4846 138.883 29.3171C138.74 28.8481 138.563 28.6781 138.48 28.6781ZM128.686 27.3937C128.499 27.3937 128.281 27.5359 128.073 27.7938C127.49 28.5178 127.063 30.0664 127.278 31.5262C128.39 31.5114 129.315 31.016 129.701 30.2259C130.061 29.4878 129.904 28.5987 129.269 27.786C129.13 27.6071 128.916 27.3937 128.686 27.3937ZM144.219 23.3507C142.379 23.7518 141.09 25.4429 141.117 26.1213C141.121 26.2088 141.125 26.3283 141.484 26.3283C141.551 26.3283 141.626 26.3231 141.705 26.3127C143.022 26.1417 144.007 24.9534 144.219 23.3507ZM135.224 18.9955C134.185 20.4372 133.986 22.0767 134.813 22.7825C135.437 23.3162 136.049 23.1206 136.321 22.361C136.636 21.4778 136.401 20.1348 135.224 18.9955Z" fill="#241726"/>
<path d="M116.279 142.697C116.279 142.697 115.42 136.175 121.698 138.285C127.975 140.396 125.929 146.367 123.536 144.323C121.143 142.28 125.633 135.35 130.437 138.436C135.241 141.522 134.167 147.51 130.759 147.952C127.351 148.394 132.822 140.98 137.114 145.558C141.406 150.137 132.034 158.485 128.202 155.416C124.369 152.346 127.368 147.393 128.288 150.412C129.207 153.431 126.728 156.392 119.93 156.275C113.132 156.158 116.226 145.7 118.603 148.744C120.979 151.788 117.034 155.224 112.239 151.638C107.445 148.051 112.915 140.637 116.279 142.697Z" fill="white"/>
<path d="M120.317 156.702L119.924 156.699C117.698 156.66 116.133 155.519 115.583 153.552C114.411 153.406 113.174 152.865 111.986 151.977C110.111 150.574 109.476 148.446 110.244 146.137C111.031 143.77 113.126 141.918 115.014 141.918C115.291 141.918 115.558 141.955 115.815 142.03C115.805 141.126 115.941 139.573 116.864 138.521C117.889 137.351 119.577 137.126 121.833 137.883C122.706 138.177 123.471 138.559 124.112 139.02C125.191 137.879 126.569 137.232 127.946 137.232C128.876 137.232 129.792 137.517 130.667 138.079C132.743 139.413 134.002 141.465 134.102 143.637C135.321 143.669 136.438 144.217 137.424 145.268C138.757 146.691 139.003 148.601 138.115 150.649C136.765 153.767 133.077 156.501 130.224 156.501C129.332 156.501 128.563 156.248 127.937 155.746C127.642 155.512 127.37 155.25 127.123 154.965C125.624 156.103 123.285 156.702 120.317 156.702ZM116.482 153.586C116.868 154.693 117.791 155.813 119.938 155.85L120.317 155.854C123.747 155.854 125.617 155.046 126.619 154.282C125.659 152.735 125.731 151.042 126.263 149.994C126.569 149.392 127.012 149.047 127.479 149.047C127.792 149.047 128.365 149.208 128.694 150.288C129.154 151.799 128.811 153.277 127.755 154.399C127.971 154.649 128.209 154.879 128.467 155.084C128.939 155.462 129.53 155.653 130.224 155.653C132.736 155.653 136.126 153.107 137.337 150.312C137.864 149.096 138.199 147.335 136.805 145.848C135.982 144.97 135.066 144.511 134.081 144.485C133.88 146.57 132.578 148.143 130.814 148.372C129.678 148.519 129.292 147.925 129.27 147.373C129.22 146.147 130.992 144.085 133.256 143.698C133.176 141.793 132.058 139.98 130.208 138.793C128.388 137.623 126.3 137.972 124.768 139.561C126.255 140.971 126.532 142.706 126.119 143.864C125.832 144.668 125.218 145.167 124.516 145.167H124.515C124.094 145.167 123.66 144.987 123.261 144.646C121.943 143.521 122.374 141.319 123.569 139.675C123.006 139.278 122.334 138.947 121.562 138.688C119.659 138.048 118.297 138.175 117.502 139.08C116.409 140.326 116.696 142.619 116.699 142.642C116.71 142.721 116.698 142.802 116.664 142.875C116.631 142.948 116.577 143.01 116.51 143.053C116.443 143.097 116.365 143.121 116.284 143.122C116.204 143.123 116.125 143.101 116.057 143.059C115.743 142.866 115.382 142.764 115.013 142.766C113.494 142.766 111.716 144.399 111.048 146.405C110.403 148.345 110.93 150.128 112.493 151.298C113.469 152.027 114.467 152.495 115.413 152.668C115.247 151.153 115.64 149.438 116.412 148.481C116.789 148.012 117.229 147.764 117.685 147.764C118 147.764 118.474 147.889 118.937 148.483C119.779 149.56 119.97 150.776 119.462 151.816C118.96 152.848 117.831 153.511 116.482 153.586ZM127.479 149.896C127.393 149.896 127.2 150.024 127.02 150.378C126.627 151.151 126.563 152.464 127.254 153.688C128.014 152.805 128.238 151.702 127.882 150.534C127.74 150.066 127.563 149.896 127.479 149.896ZM117.685 148.612C117.499 148.612 117.281 148.754 117.073 149.012C116.489 149.736 116.062 151.285 116.278 152.745C117.389 152.73 118.315 152.234 118.7 151.444C119.06 150.706 118.903 149.817 118.269 149.004C118.13 148.825 117.915 148.612 117.685 148.612ZM133.218 144.569C131.379 144.97 130.089 146.661 130.117 147.339C130.12 147.427 130.125 147.546 130.483 147.546C130.551 147.546 130.625 147.541 130.705 147.531C132.021 147.36 133.007 146.172 133.218 144.569ZM124.223 140.214C123.185 141.656 122.985 143.295 123.812 144C124.437 144.534 125.049 144.339 125.32 143.579C125.635 142.696 125.4 141.353 124.223 140.214ZM10.6475 143.323C10.3298 143.323 10.0771 143.323 9.3605 140.477C6.96881 140.015 6.76433 139.741 6.67527 139.622C6.5966 139.516 6.56394 139.33 6.59957 139.203C6.64929 139.028 6.75172 138.667 9.50263 137.556C10.4964 134.97 10.8397 134.97 11.092 134.97C11.226 134.97 11.4023 135.061 11.482 135.168C11.6516 135.396 11.7945 135.903 12.071 137.029C12.143 137.322 12.2298 137.673 12.2821 137.844C12.4358 137.91 12.743 138.02 12.9798 138.105C14.4181 138.62 14.79 138.799 14.8616 139.166C14.8902 139.312 14.8189 139.518 14.7076 139.617C14.4166 139.878 13.0696 140.381 12.3437 140.64C11.1748 143.297 10.9302 143.31 10.6716 143.323H10.6475ZM7.80377 139.256C8.29287 139.385 9.08701 139.564 9.78392 139.694C9.94757 139.725 10.0778 139.848 10.1179 140.01C10.2975 140.738 10.5298 141.565 10.7083 142.089C10.971 141.6 11.3388 140.821 11.6398 140.131C11.6869 140.023 11.7771 139.94 11.888 139.901C12.467 139.698 13.0402 139.479 13.6069 139.244C13.3047 139.125 13.0002 139.011 12.6937 138.904C11.8735 138.609 11.7188 138.545 11.6049 138.393C11.508 138.262 11.4505 138.056 11.2479 137.231C11.1683 136.901 11.0838 136.573 10.9944 136.245C10.7636 136.708 10.4652 137.408 10.23 138.031C10.2091 138.086 10.177 138.136 10.1358 138.178C10.0946 138.219 10.0452 138.252 9.99062 138.274C9.20984 138.585 8.32775 138.977 7.80377 139.256ZM171.189 69.3128C170.871 69.3128 170.618 69.3128 169.902 66.4673C167.51 66.0049 167.306 65.731 167.216 65.6115C167.138 65.5057 167.105 65.3198 167.141 65.1929C167.191 65.0178 167.293 64.6567 170.044 63.5456C171.038 60.9595 171.381 60.9595 171.633 60.9595C171.767 60.9595 171.943 61.0511 172.023 61.1584C172.193 61.3859 172.336 61.8928 172.612 63.0183C172.684 63.3115 172.771 63.6629 172.823 63.8343C172.977 63.9004 173.284 64.0102 173.521 64.0952C174.959 64.6107 175.331 64.7892 175.403 65.1554C175.431 65.302 175.36 65.5076 175.249 65.6071C174.958 65.8683 173.611 66.3708 172.885 66.6298C171.716 69.2864 171.471 69.2994 171.213 69.3128H171.189ZM168.345 65.2456C169 65.4133 169.661 65.5595 170.325 65.6839C170.489 65.7147 170.619 65.8379 170.659 65.9997C170.839 66.7278 171.071 67.5549 171.25 68.0793C171.513 67.5898 171.88 66.8116 172.181 66.121C172.228 66.0134 172.318 65.9295 172.43 65.8906C173.009 65.6878 173.582 65.4688 174.149 65.2337C173.847 65.1145 173.542 65.001 173.235 64.8934C172.415 64.5995 172.26 64.5346 172.146 64.3824C172.05 64.2518 171.992 64.0455 171.789 63.2206C171.71 62.891 171.625 62.5627 171.536 62.2357C171.305 62.6981 171.006 63.3983 170.771 64.0206C170.75 64.0756 170.718 64.1256 170.677 64.1675C170.636 64.2094 170.586 64.2423 170.532 64.2641C169.751 64.5747 168.869 64.9669 168.345 65.2456ZM72.0084 143.881C71.6908 143.881 71.4381 143.881 70.7215 141.035C68.3298 140.573 68.1253 140.299 68.0363 140.18C67.9576 140.074 67.9249 139.888 67.9606 139.761C68.0103 139.586 68.1127 139.225 70.8636 138.113C71.8574 135.527 72.2007 135.527 72.453 135.527C72.587 135.527 72.7633 135.619 72.843 135.726C73.0126 135.954 73.1555 136.461 73.432 137.586C73.504 137.879 73.5908 138.231 73.6431 138.402C73.7967 138.468 74.104 138.578 74.3408 138.663C75.7791 139.178 76.151 139.357 76.2226 139.723C76.2512 139.87 76.1799 140.075 76.0686 140.175C75.7776 140.436 74.4306 140.939 73.7047 141.198C72.5358 143.855 72.2905 143.868 72.0318 143.881L72.0084 143.881ZM69.1651 139.814C69.6542 139.943 70.4484 140.123 71.1453 140.252C71.3089 140.283 71.4392 140.406 71.4793 140.568C71.6589 141.296 71.8916 142.123 72.0693 142.647C72.332 142.158 72.6998 141.379 73.0007 140.689C73.0479 140.582 73.1377 140.498 73.249 140.459C73.828 140.256 74.4012 140.037 74.9679 139.802C74.6657 139.683 74.3612 139.569 74.0547 139.462C73.2345 139.168 73.0798 139.103 72.9659 138.951C72.869 138.82 72.8115 138.614 72.6085 137.789C72.5291 137.459 72.4447 137.131 72.3554 136.804C72.1246 137.266 71.8259 137.966 71.591 138.589C71.5701 138.644 71.538 138.694 71.4968 138.736C71.4556 138.778 71.4062 138.81 71.3516 138.832C70.5712 139.143 69.6891 139.535 69.1651 139.814ZM118.668 41.6656H118.655C116.959 41.6578 115.586 40.2725 115.593 38.5781C115.601 36.8904 116.98 35.5173 118.667 35.5173C119.074 35.5166 119.476 35.5966 119.85 35.7528C120.225 35.9089 120.565 36.1381 120.851 36.4269C121.136 36.7131 121.361 37.0529 121.514 37.4267C121.667 37.8005 121.744 38.2009 121.742 38.6048C121.735 40.2926 120.356 41.6656 118.668 41.6656ZM118.678 36.3657C117.446 36.3657 116.447 37.3598 116.442 38.5822C116.44 39.1723 116.673 39.739 117.088 40.1581C117.504 40.5771 118.068 40.8143 118.659 40.8177L118.668 41.2418V40.8177C119.257 40.8165 119.821 40.5829 120.237 40.1679C120.654 39.7528 120.89 39.1898 120.894 38.6015C120.896 38.309 120.84 38.019 120.729 37.7482C120.619 37.4775 120.455 37.2315 120.249 37.0244C120.043 36.8161 119.799 36.6506 119.529 36.5375C119.26 36.4245 118.97 36.3661 118.678 36.3657ZM16.3085 43.3622H16.2951C14.5996 43.3545 13.2273 41.9692 13.234 40.2748C13.241 38.587 14.62 37.214 16.3077 37.214C17.1423 37.2173 17.9131 37.5405 18.4909 38.1235C18.7761 38.4096 19.0017 38.7495 19.1546 39.1234C19.3076 39.4973 19.3848 39.8979 19.3819 40.3018C19.3752 41.9892 17.9962 43.3622 16.3085 43.3622ZM16.3181 38.0619C15.0865 38.0619 14.0879 39.0561 14.0827 40.2777C14.0809 40.8679 14.3132 41.4347 14.7287 41.8538C15.1443 42.273 15.709 42.5102 16.2992 42.5136L16.3088 42.9377V42.5136C17.5309 42.5136 18.5291 41.5194 18.5343 40.2974C18.5366 40.0049 18.4808 39.7149 18.3701 39.4441C18.2593 39.1734 18.0959 38.9273 17.8893 38.7202C17.6839 38.5122 17.4392 38.347 17.1696 38.234C16.8999 38.121 16.6105 38.0625 16.3181 38.0619ZM172.582 85.9422H172.569C172.165 85.9418 171.765 85.8611 171.392 85.705C171.02 85.5489 170.682 85.3203 170.398 85.0327C170.113 84.7466 169.887 84.4068 169.734 84.033C169.582 83.6591 169.504 83.2586 169.507 82.8547C169.514 81.1674 170.893 79.7943 172.58 79.7943C174.289 79.8014 175.662 81.1863 175.655 82.8814C175.648 84.5692 174.269 85.9422 172.582 85.9422ZM172.591 80.6426C171.359 80.6426 170.361 81.6368 170.356 82.8584C170.353 83.1509 170.409 83.4408 170.52 83.7115C170.631 83.9822 170.794 84.2282 171.001 84.4352C171.206 84.6434 171.45 84.8088 171.72 84.9218C171.99 85.0349 172.279 85.0934 172.572 85.0939L172.582 85.5181V85.0939C173.804 85.0939 174.802 84.0997 174.807 82.8781C174.809 82.288 174.577 81.7214 174.161 81.3023C173.746 80.8833 173.181 80.6461 172.591 80.6426Z" fill="#241726"/>
<path d="M50.6465 45.9576L139.026 45.4756C139.026 45.4756 137.456 134.971 93.0209 132.909C57.0493 131.24 50.6465 45.9576 50.6465 45.9576Z" fill="#F5D450"/>
<path d="M86.5988 110.661L90.8434 153.372L66.2637 167.299L123.37 168.367L99.8357 153.085L105.778 112.697L86.5988 110.661Z" fill="#F5D450"/>
<path d="M67.3494 60.0923C67.3494 60.0923 26.7726 60.4482 23.4539 93.0813C21.0128 117.085 82.4944 127.764 82.4944 127.764L82.5185 117.241C82.5185 117.241 31.2721 109.876 36.693 91.6987C42.1139 73.5218 67.1738 77.1418 67.1738 77.1418L67.3494 60.0923ZM114.846 62.7764C114.846 62.7764 155.797 57.9674 162.685 86.8347C173.771 133.291 99.152 127.612 99.152 127.612L110.362 117.188C110.362 117.188 160.423 112.473 154.226 91.306C148.029 70.1393 112.047 80.39 112.047 80.39L114.846 62.7764Z" fill="#F5D450"/>
<path d="M98.2437 56.3419C74.0507 56.3419 54.1378 48.8855 53.8421 48.7723C53.79 48.7524 53.7424 48.7225 53.7019 48.6841C53.6615 48.6458 53.629 48.5999 53.6062 48.549C53.5835 48.4982 53.571 48.4433 53.5695 48.3876C53.568 48.3319 53.5774 48.2764 53.5973 48.2244C53.6172 48.1724 53.6472 48.1247 53.6855 48.0843C53.7238 48.0438 53.7697 48.0113 53.8206 47.9886C53.8715 47.9658 53.9263 47.9533 53.982 47.9518C54.0378 47.9503 54.0932 47.9598 54.1453 47.9797C54.5835 48.1478 98.3595 64.5293 134.853 48.4009C134.956 48.3555 135.073 48.3529 135.178 48.3935C135.283 48.4342 135.367 48.5147 135.413 48.6176C135.458 48.7205 135.461 48.8373 135.42 48.9422C135.38 49.0471 135.299 49.1316 135.196 49.1772C123.063 54.5387 110.134 56.3419 98.2437 56.3419ZM100.168 127.864C100.069 127.864 99.9729 127.83 99.8964 127.768C99.82 127.705 99.7679 127.617 99.7492 127.52C99.7305 127.423 99.7464 127.322 99.7942 127.236C99.8419 127.149 99.9184 127.082 100.011 127.046C121.269 118.537 127.731 84.9951 127.794 84.657C127.817 84.5497 127.882 84.4559 127.974 84.3953C128.066 84.3347 128.177 84.3121 128.285 84.3322C128.394 84.3523 128.49 84.4135 128.553 84.503C128.617 84.5926 128.644 84.7034 128.628 84.8121C128.564 85.1547 122.019 119.151 100.326 127.833C100.275 127.854 100.222 127.864 100.168 127.864Z" fill="#241726"/>
<path d="M36.6914 97.5803C36.6914 97.5803 48.6205 91.4454 53.6047 95.9323C56.7571 98.7701 48.9337 99.2169 48.9337 99.2169C48.9337 99.2169 57.1887 97.2638 59.2817 100.953C61.375 104.642 57.686 106.735 57.686 106.735C57.686 106.735 63.4535 106.242 63.3132 110.808C63.1729 115.374 55.7659 118.127 55.1173 121.115C53.9702 126.399 51.0634 132.535 50.1457 136.762C49.228 140.989 47.5696 174.506 44.3192 177.716C41.0688 180.926 13.953 170.953 13.7541 167.165C13.5552 163.376 23.7083 125.234 27.5777 112.115C31.4471 98.9957 36.6914 97.5803 36.6914 97.5803Z" fill="#E5849B"/>
<path d="M45.7181 101.709C45.6334 101.709 45.5507 101.684 45.4806 101.637C45.4105 101.589 45.3561 101.522 45.3245 101.443C45.293 101.365 45.2856 101.279 45.3035 101.196C45.3213 101.113 45.3634 101.038 45.4245 100.979C47.4756 99.0106 53.0138 97.7686 53.2487 97.7163C53.3031 97.7043 53.3593 97.7031 53.4142 97.7128C53.469 97.7225 53.5215 97.743 53.5684 97.7729C53.6154 97.8029 53.656 97.8419 53.6879 97.8875C53.7198 97.9332 53.7425 97.9847 53.7545 98.0391C53.7665 98.0935 53.7677 98.1498 53.7579 98.2046C53.7482 98.2595 53.7278 98.3119 53.6978 98.3589C53.6678 98.4059 53.6289 98.4465 53.5832 98.4784C53.5375 98.5103 53.486 98.5329 53.4316 98.5449C53.3767 98.5568 47.8916 99.7877 46.0116 101.591C45.9327 101.667 45.8275 101.709 45.7181 101.709ZM51.6288 109.376C51.5585 109.376 51.4892 109.359 51.4274 109.325C51.3655 109.292 51.3129 109.243 51.2744 109.184C51.2359 109.125 51.2126 109.058 51.2066 108.988C51.2007 108.918 51.2123 108.847 51.2403 108.783C51.978 107.091 56.6958 106.429 57.6339 106.313C57.8684 106.276 58.0773 106.45 58.1063 106.683C58.1131 106.738 58.109 106.794 58.0942 106.848C58.0794 106.901 58.0541 106.952 58.0198 106.995C57.9856 107.039 57.943 107.076 57.8945 107.104C57.8461 107.131 57.7927 107.149 57.7374 107.155C55.604 107.419 52.4185 108.203 52.0181 109.121C51.9851 109.197 51.9307 109.262 51.8615 109.307C51.7924 109.352 51.7115 109.376 51.6288 109.376Z" fill="#241726"/>
<path d="M160.825 96.2903C160.825 96.2903 148.662 90.6326 143.859 95.3132C140.822 98.2735 148.657 98.41 148.657 98.41C148.657 98.41 140.331 96.7854 138.386 100.554C136.44 104.323 140.209 106.269 140.209 106.269C140.209 106.269 134.427 106.004 134.747 110.561C135.068 115.118 142.579 117.575 143.345 120.536C144.701 125.771 147.848 131.787 148.933 135.974C150.017 140.161 153.002 173.586 156.377 176.665C159.752 179.744 186.451 168.705 186.5 164.912C186.549 161.118 174.893 123.409 170.507 110.453C166.12 97.4964 160.825 96.2903 160.825 96.2903Z" fill="#E5849B"/>
<path d="M151.951 100.774C151.851 100.774 151.751 100.739 151.67 100.667C149.72 98.9386 144.191 97.9271 144.135 97.917C144.025 97.8968 143.927 97.8336 143.863 97.7414C143.799 97.6491 143.775 97.5353 143.794 97.4249C143.814 97.3144 143.877 97.2164 143.969 97.1521C144.061 97.0879 144.175 97.0627 144.285 97.0821C144.522 97.1247 150.105 98.1467 152.233 100.033C152.297 100.09 152.342 100.165 152.363 100.249C152.383 100.332 152.378 100.42 152.347 100.5C152.317 100.581 152.263 100.65 152.192 100.699C152.121 100.748 152.037 100.774 151.951 100.774ZM146.349 108.669C146.191 108.669 146.04 108.581 145.967 108.43C145.53 107.527 142.316 106.87 140.174 106.692C140.118 106.687 140.064 106.672 140.015 106.646C139.965 106.621 139.921 106.586 139.885 106.543C139.849 106.501 139.822 106.452 139.805 106.399C139.788 106.346 139.782 106.29 139.786 106.234C139.79 106.179 139.805 106.124 139.83 106.074C139.855 106.024 139.89 105.98 139.933 105.944C139.975 105.907 140.025 105.88 140.078 105.864C140.132 105.847 140.188 105.841 140.244 105.847C141.186 105.925 145.926 106.399 146.73 108.06C146.761 108.125 146.775 108.197 146.771 108.268C146.767 108.34 146.745 108.409 146.707 108.47C146.669 108.531 146.616 108.581 146.554 108.616C146.491 108.65 146.421 108.669 146.349 108.669Z" fill="#241726"/>
<path d="M96.5151 86.4493C96.5151 86.4493 105.285 112.941 104.258 113.829C103.23 114.716 97.2922 109.211 97.2922 109.211C97.2922 109.211 96.1689 118.803 94.4013 116.96C92.6338 115.117 86.5917 95.6083 86.5917 95.6083C86.5917 95.6083 81.1904 115.549 79.9428 116.233C78.6952 116.916 76.7358 109.987 76.7358 109.987C76.7358 109.987 71.8099 114.418 70.4981 113.406C69.1867 112.394 77.3626 87.2557 78.634 87.2075C79.9061 87.1596 96.0594 85.6177 96.5151 86.4493Z" fill="white"/>
<path d="M94.8507 117.619C94.582 117.619 94.3278 117.496 94.0951 117.254C92.5288 115.62 88.1012 101.832 86.6191 97.1203C84.816 103.705 81.3251 115.958 80.1465 116.605C80.0291 116.67 79.8969 116.704 79.7624 116.704C78.5107 116.704 77.2516 113.222 76.5139 110.743C75.3382 111.745 72.5447 113.98 71.0057 113.98C70.7022 113.98 70.4439 113.9 70.2391 113.742C69.4401 113.126 70.474 108.316 73.3117 99.4455C75.1523 93.691 77.5678 86.8235 78.618 86.7838C78.8736 86.7738 79.7335 86.7037 80.9466 86.6042C84.4697 86.3163 91.0277 85.78 94.4039 85.78C96.2976 85.78 96.7136 85.9299 96.8865 86.2461C96.9392 86.3827 99.135 93.0212 101.177 99.6823C105.386 113.414 104.894 113.839 104.534 114.15C104.381 114.282 104.184 114.35 103.95 114.35C102.542 114.35 99.1339 111.441 97.6109 110.075C97.2428 112.85 96.3855 117.619 94.8507 117.619ZM86.5916 95.1843C86.7772 95.1843 86.9416 95.3052 86.9969 95.483C88.6694 100.882 93.3147 115.214 94.7075 116.666C94.7906 116.753 94.8418 116.771 94.8507 116.771C95.3721 116.771 96.3685 113.447 96.8709 109.161C96.8801 109.084 96.9106 109.01 96.9591 108.949C97.0075 108.887 97.072 108.84 97.1455 108.813C97.2189 108.786 97.2983 108.78 97.3751 108.795C97.4519 108.81 97.5229 108.846 97.5805 108.899C99.4834 110.664 102.869 113.454 103.924 113.5C104.082 111.573 99.3142 96.2638 96.1621 86.7334C96.0029 86.6937 95.5636 86.6276 94.4043 86.6276C91.0629 86.6276 84.5273 87.162 81.016 87.4488C79.9079 87.5394 79.0904 87.6062 78.7478 87.6262C77.0794 89.2227 70.2131 111.216 70.7994 113.095C70.8506 113.12 70.9204 113.131 71.0061 113.131C72.3164 113.131 75.382 110.633 76.4523 109.671C76.5061 109.624 76.571 109.59 76.6412 109.574C76.7114 109.558 76.7845 109.559 76.8538 109.579C76.9944 109.62 77.1043 109.73 77.144 109.871C78.0183 112.963 79.2444 115.759 79.768 115.856C80.5209 115.172 83.6485 104.85 86.1823 95.4971C86.2317 95.3153 86.3953 95.1872 86.5842 95.1839L86.5916 95.1843Z" fill="#241726"/>
<path d="M79.5254 67.5943C79.5254 67.5943 81.1241 62.1942 82.2727 61.8305C83.6342 61.3997 87.4728 66.6339 87.4728 66.6339C87.4728 66.6339 92.0146 60.1012 93.1724 62.2138C94.3302 64.3261 94.1031 68.7276 94.1031 68.7276C94.1031 68.7276 100.948 65.7374 101.548 67.3319C102.147 68.9265 100.152 74.0784 100.152 74.0784C100.152 74.0784 108.492 74.3942 108.294 76.2887C108.096 78.1831 102.362 82.1048 102.362 82.1048C102.362 82.1048 106.635 83.3758 108.061 85.478C109.488 87.5803 102.469 89.907 102.469 89.907C102.469 89.907 107.548 95.9143 105.953 96.5136C104.359 97.1129 97.6199 97.0977 97.6199 97.0977C97.6199 97.0977 96.2083 102.541 94.9035 103.669C93.5988 104.796 87.9923 99.0782 87.9923 99.0782C87.9923 99.0782 84.1586 104.613 81.726 104.436C79.2935 104.258 76.8154 95.7269 76.8154 95.7269C76.8154 95.7269 66.1108 97.7482 67.1061 95.5547C68.1013 93.3608 70.3813 89.5014 70.3813 89.5014C70.3813 89.5014 64.3529 84.5306 65.1296 83.6927C65.9067 82.8548 70.843 80.3202 70.843 80.3202C70.843 80.3202 67.7098 75.8567 68.4561 74.2113C69.2028 72.5658 73.9802 72.3335 73.9802 72.3335C73.9802 72.3335 72.5222 67.1898 74.0964 66.0524C75.6698 64.9146 79.5254 67.5943 79.5254 67.5943Z" fill="#00A7CF"/>
<path d="M96.1985 92.2524C100.732 86.7363 99.9347 78.5898 94.4186 74.0567C88.9024 69.5235 80.7559 70.3205 76.2228 75.8366C71.6897 81.3527 72.4866 89.4993 78.0028 94.0324C83.5189 98.5655 91.6654 97.7686 96.1985 92.2524Z" fill="#FDFFFF"/>
<path d="M79.5625 80.3595C79.5625 80.3595 82.8196 74.776 83.5172 74.6599C84.2153 74.5437 88.4027 74.311 88.4027 74.311C88.4027 74.311 89.5661 88.2693 89.5661 88.502C89.5661 89.2097 92.7066 88.8508 92.7066 88.8508C92.7066 88.8508 92.5905 91.2937 92.7066 91.7587C92.8228 92.2241 80.9586 92.8056 80.7259 92.2241C80.4932 91.6426 81.0747 88.7343 81.0747 88.7343L84.0991 88.3855L84.2153 80.5922C84.2153 80.5922 82.4704 82.9185 82.005 83.7327C81.8228 84.0522 79.5625 80.3595 79.5625 80.3595Z" fill="white"/>
<path d="M83.4267 92.8921C80.5363 92.8921 80.4461 92.6669 80.3318 92.3819C80.0795 91.751 80.4765 89.5627 80.6587 88.6513C80.6947 88.4705 80.8432 88.3343 81.0261 88.3132L83.6809 88.007L83.7715 81.9085C83.2512 82.624 82.6196 83.5127 82.3736 83.9428C82.2982 84.0749 82.1246 84.1759 81.972 84.1759C81.7316 84.1759 81.4013 84.1759 79.2011 80.5807C79.1611 80.5154 79.1395 80.4404 79.1387 80.3637C79.1378 80.2871 79.1577 80.2117 79.1963 80.1454C81.4243 76.3269 82.8545 74.3404 83.4479 74.2413C84.1604 74.1226 88.2075 73.8966 88.3793 73.8873C88.6068 73.8602 88.8068 74.0469 88.8254 74.2755C89.0109 76.498 89.8993 87.1725 89.9836 88.3919C90.0856 88.4345 90.3784 88.5173 91.1206 88.5173C91.8761 88.5173 92.6506 88.4305 92.6584 88.4293C92.7824 88.4127 92.9052 88.4564 92.9965 88.5407C93.087 88.626 93.136 88.7466 93.1304 88.871C93.0748 90.041 93.0551 91.4029 93.1186 91.656C93.1501 91.7829 93.1137 91.9455 93.0332 92.0486C92.4654 92.776 83.5169 92.8921 83.4267 92.8921ZM81.0966 91.931C81.3171 91.9737 81.9097 92.0442 83.4267 92.0442C86.7231 92.0442 91.1566 91.7376 92.2502 91.5046C92.212 90.9261 92.2391 89.9382 92.2621 89.3181C91.9548 89.3422 91.5388 89.366 91.1206 89.366C90.5287 89.366 89.1419 89.366 89.1419 88.5021C89.1301 88.1963 88.4187 79.6085 88.0146 74.7583C86.656 74.8366 84.0847 74.9961 83.587 75.0789C83.2052 75.2975 81.4722 77.9478 80.0572 80.3547C80.72 81.4257 81.4833 82.5798 81.8975 83.1042C82.5495 82.1085 83.8141 80.4212 83.8761 80.3384C83.93 80.2671 84.005 80.2145 84.0904 80.1883C84.1759 80.1621 84.2675 80.1635 84.3521 80.1924C84.4367 80.2213 84.51 80.2761 84.5616 80.3491C84.6132 80.4221 84.6405 80.5095 84.6395 80.5989L84.5229 88.3926C84.5214 88.4956 84.4825 88.5945 84.4134 88.6709C84.3443 88.7472 84.2497 88.7958 84.1474 88.8075L81.4317 89.1207C81.2221 90.2369 81.0618 91.4708 81.0966 91.931ZM157.008 43.186C156.672 43.186 156.472 43.1612 156.472 43.1612C156.382 43.1497 156.298 43.1097 156.232 43.0469C156.167 42.9841 156.123 42.9018 156.107 42.8122C156.092 42.7227 156.105 42.6305 156.146 42.5492C156.187 42.4679 156.252 42.4019 156.334 42.3607C161.446 39.8043 158.215 33.1714 158.075 32.8904C158.044 32.8271 158.028 32.7569 158.031 32.6862C158.034 32.6155 158.054 32.5465 158.09 32.4856C158.126 32.4247 158.176 32.3737 158.237 32.3374C158.298 32.301 158.367 32.2804 158.437 32.2774L163.712 32.0551C163.942 32.0325 164.134 32.2169 164.153 32.4444C164.468 36.3201 163.765 39.2213 162.064 41.066C160.299 42.9793 157.94 43.186 157.008 43.186ZM159.089 33.0986C159.75 34.7544 161.255 39.5167 158.038 42.2535C159.025 42.0954 160.365 41.6571 161.44 40.4908C162.916 38.8899 163.554 36.3438 163.337 32.9198L159.089 33.0986Z" fill="#241726"/>
<path d="M153.09 46.4444C152.993 46.4445 152.899 46.4117 152.824 46.3513L149.821 43.9351C149.749 43.8771 149.698 43.7971 149.675 43.7073C149.653 43.6175 149.66 43.5229 149.697 43.4378C152.928 35.8887 159.531 38.1724 159.597 38.1969C159.703 38.235 159.789 38.3136 159.837 38.4154C159.885 38.5173 159.89 38.6339 159.852 38.7398C159.814 38.8456 159.736 38.932 159.634 38.9799C159.532 39.0278 159.415 39.0332 159.309 38.9951C159.073 38.9116 153.554 37.0272 150.606 43.4783L152.912 45.3334C153.349 44.3949 154.463 42.5669 156.651 42.1223C156.886 42.0804 157.104 42.2247 157.151 42.4537C157.173 42.5639 157.151 42.6785 157.088 42.7723C157.026 42.8661 156.93 42.9314 156.819 42.9539C154.398 43.4456 153.502 46.1238 153.493 46.1505C153.465 46.2358 153.411 46.3102 153.339 46.363C153.266 46.4158 153.179 46.4443 153.09 46.4444ZM187.471 122.79H187.47C184.317 122.789 181.953 121.946 180.444 120.282C178.473 118.109 178.717 115.358 178.728 115.242C178.738 115.152 178.776 115.067 178.837 114.999C178.898 114.932 178.979 114.886 179.069 114.869C179.158 114.851 179.25 114.863 179.333 114.902C179.415 114.941 179.482 115.005 179.525 115.085C180.49 116.907 182.07 117.831 184.222 117.831C186.676 117.831 189.01 116.618 189.033 116.606C189.096 116.573 189.166 116.557 189.236 116.558C189.307 116.559 189.376 116.577 189.438 116.612C189.499 116.646 189.551 116.696 189.589 116.755C189.627 116.815 189.649 116.883 189.654 116.954L189.999 122.222C190.006 122.332 189.971 122.44 189.9 122.523C189.83 122.607 189.729 122.66 189.62 122.672C188.906 122.748 188.189 122.788 187.471 122.79ZM179.672 116.781C179.83 117.647 180.205 118.76 181.08 119.72C182.422 121.194 184.572 121.941 187.47 121.941H187.471C187.996 121.941 188.551 121.916 189.126 121.866L188.848 117.629C187.955 118.017 186.149 118.679 184.222 118.679C182.338 118.679 180.791 118.028 179.672 116.781Z" fill="#241726"/>
<path d="M183.361 118.539C183.294 118.539 183.228 118.523 183.168 118.493C183.108 118.462 183.057 118.418 183.017 118.363C182.978 118.309 182.952 118.246 182.942 118.18C182.932 118.113 182.938 118.045 182.959 117.982C183.037 117.743 184.792 112.181 178.274 109.385L176.473 111.733C177.422 112.149 179.275 113.22 179.77 115.397C179.782 115.451 179.784 115.507 179.775 115.562C179.765 115.617 179.745 115.67 179.715 115.717C179.686 115.764 179.647 115.805 179.602 115.837C179.556 115.869 179.505 115.892 179.45 115.904C179.396 115.917 179.34 115.918 179.285 115.909C179.23 115.9 179.177 115.88 179.13 115.85C179.083 115.82 179.042 115.782 179.01 115.736C178.978 115.691 178.955 115.639 178.943 115.585C178.395 113.176 175.696 112.341 175.669 112.333C175.603 112.313 175.544 112.278 175.495 112.23C175.445 112.182 175.409 112.123 175.388 112.058C175.366 111.992 175.361 111.923 175.373 111.855C175.384 111.787 175.412 111.724 175.453 111.669L177.799 108.61C177.915 108.458 178.116 108.402 178.294 108.475C185.917 111.53 183.785 118.183 183.763 118.251C183.735 118.335 183.681 118.408 183.609 118.46C183.537 118.512 183.45 118.539 183.361 118.539ZM53.8367 168.811C53.6412 168.811 53.4664 168.675 53.423 168.478C52.5442 164.48 52.9268 161.407 54.5604 159.345C56.5001 156.897 59.4633 156.826 59.5883 156.824C59.7802 156.814 59.942 156.942 59.9987 157.12C60.0264 157.207 60.0252 157.3 59.9955 157.387C59.9657 157.473 59.909 157.547 59.8336 157.598C55.1207 160.815 59.2091 166.957 59.3853 167.217C59.4253 167.276 59.45 167.343 59.4572 167.414C59.4643 167.484 59.4536 167.555 59.4262 167.621C59.3987 167.686 59.3553 167.743 59.2999 167.787C59.2445 167.831 59.179 167.861 59.1092 167.873L53.9117 168.805C53.887 168.809 53.8619 168.811 53.8367 168.811ZM58.1574 157.937C57.2549 158.209 56.1008 158.762 55.2187 159.88C53.8096 161.666 53.4564 164.362 54.1674 167.897L58.3529 167.147C57.4746 165.596 55.3423 161.083 58.1574 157.937Z" fill="#241726"/>
<path d="M58.3944 162.264C57.6577 162.264 57.1794 162.168 57.1616 162.164C57.0518 162.14 56.9558 162.074 56.8948 161.98C56.8338 161.886 56.8127 161.771 56.8361 161.661C56.8597 161.551 56.9259 161.455 57.0201 161.394C57.1143 161.333 57.229 161.311 57.339 161.334C57.5843 161.387 63.308 162.508 65.3583 155.718L62.823 154.191C62.5165 155.18 61.6592 157.141 59.5514 157.877C59.4465 157.909 59.3333 157.899 59.2355 157.849C59.1377 157.799 59.0629 157.714 59.0268 157.61C58.9907 157.507 58.9962 157.393 59.0419 157.294C59.0877 157.194 59.1703 157.116 59.2724 157.076C61.6047 156.262 62.132 153.487 62.1368 153.46C62.149 153.392 62.1775 153.328 62.2197 153.274C62.2619 153.22 62.3166 153.177 62.3791 153.148C62.4417 153.12 62.5102 153.107 62.5788 153.111C62.6474 153.115 62.714 153.136 62.7729 153.171L66.0749 155.16C66.2382 155.258 66.3153 155.453 66.2649 155.636C64.6495 161.489 60.4836 162.264 58.3944 162.264ZM43.7815 46.0813C40.6286 46.0813 38.2648 45.2374 36.7555 43.5738C34.7847 41.401 35.0285 38.6501 35.04 38.534C35.0492 38.4435 35.0873 38.3584 35.1485 38.2912C35.2098 38.2239 35.291 38.1782 35.3803 38.1606C35.4695 38.143 35.562 38.1546 35.6442 38.1935C35.7264 38.2325 35.7938 38.2968 35.8367 38.377C36.8016 40.1987 38.3817 41.1223 40.5333 41.1223C42.9944 41.1223 45.3215 39.91 45.3445 39.8974C45.4071 39.8644 45.477 39.8476 45.5477 39.8485C45.6185 39.8493 45.6879 39.8678 45.7497 39.9022C45.8752 39.9727 45.9564 40.1015 45.9661 40.2447L46.3116 45.5135C46.3188 45.6229 46.2833 45.7308 46.2127 45.8145C46.142 45.8983 46.0417 45.9515 45.9327 45.9629C45.2181 46.0396 44.5001 46.0791 43.7815 46.0813ZM35.9837 40.0725C36.1414 40.9387 36.5166 42.0519 37.3912 43.012C38.7331 44.4856 40.8832 45.2329 43.7815 45.2329C44.3069 45.2329 44.8624 45.2077 45.438 45.158L45.1601 40.9208C44.2672 41.3086 42.4611 41.9703 40.5336 41.9703C38.6496 41.9703 37.1021 41.3198 35.9837 40.0725Z" fill="#241726"/>
<path d="M39.673 41.831C39.6059 41.831 39.5397 41.815 39.48 41.7844C39.4202 41.7538 39.3686 41.7094 39.3293 41.655C39.29 41.6005 39.2641 41.5376 39.2539 41.4712C39.2437 41.4049 39.2493 41.337 39.2704 41.2733C39.3491 41.0347 41.1036 35.4731 34.5857 32.6765L32.7848 35.0252C33.7333 35.4404 35.5866 36.5118 36.0812 38.6882C36.0937 38.7425 36.0953 38.7988 36.0859 38.8537C36.0766 38.9086 36.0565 38.9611 36.0268 39.0082C35.9972 39.0554 35.9584 39.0962 35.913 39.1283C35.8675 39.1605 35.8161 39.1833 35.7617 39.1955C35.7074 39.2081 35.6512 39.2098 35.5962 39.2005C35.5413 39.1912 35.4887 39.1711 35.4415 39.1414C35.3944 39.1117 35.3536 39.073 35.3215 39.0274C35.2893 38.9819 35.2666 38.9304 35.2544 38.876C34.706 36.4669 32.0081 35.633 31.9806 35.6252C31.9149 35.6055 31.8548 35.5701 31.8057 35.522C31.7566 35.474 31.7199 35.4147 31.6987 35.3494C31.6775 35.2841 31.6725 35.2146 31.684 35.1468C31.6956 35.0791 31.7234 35.0152 31.765 34.9606L34.1107 31.9017C34.2272 31.7495 34.428 31.695 34.6054 31.7662C42.2284 34.8222 40.0972 41.4751 40.0749 41.5423C40.0466 41.6265 39.9926 41.6996 39.9205 41.7514C39.8484 41.8032 39.7618 41.8311 39.673 41.831ZM98.2783 18.221C98.138 18.221 98.0011 18.1512 97.9206 18.0254C95.7155 14.5761 95.0138 11.5598 95.8346 9.06053C96.8095 6.09364 99.5656 5.00374 99.6825 4.95884C99.7676 4.92602 99.861 4.9215 99.9489 4.94595C100.037 4.97041 100.114 5.02253 100.17 5.0946C100.226 5.16667 100.257 5.25484 100.259 5.34603C100.261 5.43722 100.233 5.52657 100.181 5.60083C96.8622 10.2551 102.825 14.6002 103.081 14.7828C103.138 14.824 103.184 14.879 103.215 14.9426C103.246 15.0062 103.26 15.0764 103.257 15.147C103.254 15.2176 103.233 15.2863 103.197 15.3469C103.16 15.4074 103.109 15.4579 103.048 15.4938L98.4924 18.1627C98.4276 18.201 98.3536 18.2211 98.2783 18.221ZM98.724 6.49739C97.971 7.06479 97.0789 7.98177 96.6369 9.33588C95.9311 11.499 96.5308 14.1508 98.4189 17.2227L102.088 15.0734C100.728 13.9211 97.1684 10.4217 98.724 6.49739Z" fill="#241726"/>
<path d="M99.1889 10.8126C99.0822 10.8117 98.9797 10.7706 98.9019 10.6975C98.8241 10.6245 98.7766 10.5247 98.769 10.4183C98.7615 10.3118 98.7943 10.2063 98.8609 10.123C98.9276 10.0396 99.0232 9.9844 99.1288 9.96838C99.3778 9.93238 105.136 9.0091 104.716 1.92865L101.81 1.37126C101.863 2.40513 101.736 4.54151 100.012 5.95946C99.9686 5.99481 99.9191 6.02135 99.8658 6.03756C99.8125 6.05377 99.7566 6.05932 99.7012 6.05391C99.6458 6.0485 99.592 6.03223 99.5429 6.00603C99.4937 5.97983 99.4503 5.9442 99.4149 5.9012C99.3795 5.85819 99.353 5.80864 99.3368 5.75538C99.3206 5.70212 99.315 5.64618 99.3205 5.59077C99.3259 5.53536 99.3421 5.48156 99.3683 5.43244C99.3945 5.38331 99.4302 5.33983 99.4732 5.30448C101.39 3.72808 100.918 0.950444 100.913 0.922612C100.901 0.854819 100.905 0.785104 100.926 0.719439C100.947 0.653775 100.983 0.594119 101.032 0.545581C101.081 0.497713 101.142 0.46233 101.207 0.442384C101.273 0.422437 101.343 0.418504 101.41 0.430913L105.196 1.15751C105.382 1.19351 105.523 1.34937 105.538 1.539C106.222 9.72309 99.3188 10.7989 99.249 10.8089C99.2291 10.8114 99.209 10.8127 99.1889 10.8126ZM11.7219 119.354H11.7215C9.58996 119.354 8.03582 118.317 7.97088 118.273C7.8955 118.221 7.83859 118.147 7.80858 118.061C7.77858 117.975 7.77706 117.882 7.80426 117.795C7.86029 117.616 7.99648 117.491 8.21394 117.498C13.9303 117.498 14.0969 109.952 14.0976 109.875C14.0987 109.805 14.1173 109.735 14.1519 109.674C14.1865 109.612 14.236 109.56 14.2958 109.522C14.3556 109.485 14.4238 109.463 14.4943 109.458C14.5649 109.454 14.6354 109.467 14.6995 109.496L19.4915 111.714C19.6982 111.809 19.7924 112.051 19.7048 112.261C17.2649 118.123 14.0171 119.354 11.7219 119.354ZM9.77773 118.182C10.3136 118.359 10.9812 118.506 11.7215 118.506H11.7219C14.557 118.506 16.9855 116.366 18.7619 112.31L14.9033 110.525C14.7329 112.299 13.8906 117.221 9.77773 118.182Z" fill="#241726"/>
<path d="M3.65418 119.69C3.57217 119.69 3.49195 119.666 3.42315 119.621C3.35436 119.577 3.29992 119.513 3.26639 119.438L1.70223 115.916C1.66467 115.831 1.65584 115.736 1.67708 115.646C1.69832 115.556 1.74847 115.475 1.81987 115.417C8.14812 110.184 12.9731 115.238 13.0206 115.289C13.0585 115.33 13.088 115.378 13.1075 115.43C13.1269 115.482 13.1359 115.538 13.1339 115.593C13.1319 115.649 13.119 115.704 13.0959 115.754C13.0727 115.805 13.0398 115.851 12.999 115.889C12.9583 115.926 12.9104 115.956 12.8583 115.975C12.8061 115.995 12.7506 116.004 12.6949 116.002C12.6393 116 12.5846 115.987 12.5339 115.964C12.4833 115.941 12.4377 115.908 12.3997 115.867C12.2275 115.684 8.183 111.483 2.60955 115.869L3.81041 118.573C4.62904 117.94 6.45705 116.825 8.60419 117.431C8.82945 117.495 8.96081 117.729 8.89736 117.954C8.8659 118.062 8.79341 118.153 8.69549 118.208C8.59756 118.263 8.48203 118.277 8.37374 118.248C5.99763 117.577 3.97295 119.548 3.95254 119.567C3.91338 119.606 3.86686 119.637 3.81566 119.658C3.76445 119.679 3.70958 119.69 3.65418 119.69ZM103.577 41.8317L103.555 41.8313C103.443 41.8258 103.337 41.7758 103.262 41.6925C103.186 41.6091 103.147 41.4992 103.152 41.3868C103.168 41.0572 103.178 40.7274 103.182 40.3974C103.184 40.1629 103.348 39.9581 103.611 39.9781C103.723 39.9795 103.83 40.0254 103.909 40.1059C103.988 40.1863 104.031 40.2947 104.03 40.4071C104.026 40.7407 104.016 41.081 104 41.428C103.994 41.5367 103.948 41.6393 103.869 41.7145C103.79 41.7897 103.685 41.8317 103.577 41.8317ZM103.567 39.1309C103.345 39.1309 103.158 38.9572 103.144 38.732C103.112 38.1795 103.057 37.6285 102.978 37.0806C102.962 36.9693 102.991 36.8562 103.058 36.7661C103.126 36.676 103.226 36.6163 103.337 36.6001C103.569 36.5618 103.784 36.7266 103.818 36.9589C103.898 37.5092 103.956 38.0892 103.991 38.6815C103.994 38.7392 103.986 38.7971 103.966 38.8515C103.946 38.9059 103.916 38.9556 103.876 38.9977C103.836 39.0398 103.789 39.0734 103.735 39.0963C103.682 39.1192 103.625 39.131 103.567 39.1309ZM64.4173 37.3942C64.3079 37.3901 64.2042 37.3439 64.1281 37.2652C64.0519 37.1865 64.0091 37.0813 64.0086 36.9718C64.0081 36.8623 64.05 36.7568 64.1255 36.6774C64.201 36.598 64.3042 36.5509 64.4136 36.5459C64.9692 36.5403 65.5245 36.5156 66.0784 36.4717C66.1339 36.4671 66.1898 36.4737 66.2429 36.4908C66.2959 36.508 66.345 36.5355 66.3874 36.5717C66.4298 36.6079 66.4646 36.6521 66.4898 36.7018C66.5151 36.7515 66.5302 36.8057 66.5344 36.8613C66.5526 37.0951 66.3782 37.2992 66.1448 37.3174C65.5714 37.3625 64.9966 37.3881 64.4214 37.3942H64.4173ZM62.7233 37.3415L62.6921 37.3404C62.1148 37.2992 61.5399 37.2291 60.9695 37.1303C60.8613 37.1082 60.766 37.0447 60.7038 36.9535C60.6417 36.8622 60.6175 36.7503 60.6365 36.6415C60.6554 36.5327 60.7161 36.4356 60.8055 36.3707C60.8949 36.3059 61.0061 36.2785 61.1154 36.2943C61.6401 36.3863 62.1915 36.4535 62.7534 36.4943C62.8657 36.4983 62.9719 36.5467 63.0485 36.629C63.1251 36.7112 63.1659 36.8206 63.1619 36.9329C63.158 37.0453 63.1095 37.1514 63.0272 37.2281C62.945 37.3047 62.8357 37.3455 62.7233 37.3415ZM67.7947 37.1222C67.6884 37.1215 67.5862 37.0809 67.5084 37.0085C67.4306 36.936 67.3828 36.837 67.3745 36.731C67.3663 36.625 67.3981 36.5198 67.4638 36.4361C67.5294 36.3525 67.6241 36.2966 67.729 36.2794C68.2738 36.1935 68.8142 36.0816 69.3484 35.9443C69.4551 35.9221 69.5663 35.9419 69.6589 35.9994C69.7515 36.0569 69.8184 36.1478 69.8458 36.2533C69.8731 36.3588 69.8589 36.4708 69.806 36.5661C69.753 36.6614 69.6655 36.7327 69.5614 36.7652C69.0008 36.9097 68.4334 37.0271 67.8615 37.117C67.8392 37.1203 67.8169 37.1222 67.7947 37.1222ZM59.395 36.7489C59.3549 36.7489 59.3137 36.7429 59.2733 36.731C58.7127 36.5636 58.1647 36.3566 57.6334 36.1117C57.5828 36.0884 57.5373 36.0553 57.4995 36.0143C57.4617 35.9734 57.4324 35.9254 57.4132 35.8731C57.394 35.8208 57.3853 35.7652 57.3876 35.7096C57.3899 35.6539 57.4032 35.5993 57.4267 35.5487C57.4499 35.4981 57.4829 35.4525 57.5238 35.4146C57.5648 35.3767 57.6128 35.3473 57.6651 35.3281C57.7174 35.3089 57.7731 35.3002 57.8288 35.3026C57.8845 35.305 57.9391 35.3184 57.9896 35.342C58.4844 35.5699 58.9947 35.7625 59.5167 35.9184C59.6138 35.948 59.697 36.0115 59.7513 36.0973C59.8056 36.1831 59.8273 36.2855 59.8126 36.3859C59.7979 36.4863 59.7477 36.5782 59.6711 36.6448C59.5944 36.7114 59.4965 36.7483 59.395 36.7489ZM71.0688 36.2635C70.9698 36.2634 70.874 36.2288 70.7979 36.1655C70.7218 36.1023 70.6702 36.0144 70.652 35.9171C70.6339 35.8198 70.6503 35.7192 70.6985 35.6328C70.7467 35.5463 70.8236 35.4794 70.9159 35.4437C71.4253 35.2476 71.9206 35.0168 72.3984 34.7531C72.4966 34.7009 72.6113 34.6893 72.7179 34.7208C72.8245 34.7523 72.9145 34.8244 72.9685 34.9216C73.0225 35.0187 73.0362 35.1332 73.0066 35.2404C72.977 35.3476 72.9066 35.4388 72.8104 35.4946C72.2984 35.7773 71.7678 36.0246 71.2221 36.2349C71.1732 36.2537 71.1212 36.2634 71.0688 36.2635ZM103.071 35.7807C102.882 35.7807 102.71 35.653 102.661 35.4612C102.527 34.9305 102.359 34.4091 102.159 33.9C102.122 33.7965 102.128 33.6831 102.173 33.5834C102.219 33.4837 102.301 33.4054 102.403 33.365C102.505 33.3246 102.618 33.3251 102.72 33.3665C102.821 33.408 102.903 33.487 102.947 33.5871C103.161 34.1301 103.34 34.6861 103.482 35.2519C103.498 35.3145 103.5 35.38 103.487 35.4433C103.473 35.5065 103.446 35.566 103.406 35.617C103.367 35.6681 103.316 35.7093 103.258 35.7377C103.2 35.7661 103.136 35.7808 103.071 35.7807ZM56.3364 35.3202C56.2544 35.3202 56.172 35.2964 56.0989 35.2474C55.6102 34.9168 55.1513 34.5442 54.7274 34.1338C54.6506 34.0546 54.6077 33.9487 54.6077 33.8385C54.6078 33.7282 54.6507 33.6223 54.7275 33.5432C54.8042 33.4641 54.9088 33.4179 55.019 33.4146C55.1292 33.4112 55.2363 33.4509 55.3178 33.5252C55.706 33.9011 56.1263 34.2424 56.5739 34.5453C56.6488 34.5963 56.7054 34.6699 56.7355 34.7554C56.7655 34.8408 56.7674 34.9337 56.7409 35.0203C56.7143 35.1069 56.6607 35.1828 56.5879 35.2367C56.5152 35.2907 56.427 35.3199 56.3364 35.3202ZM74.016 34.6128C73.9278 34.6129 73.8418 34.5855 73.7699 34.5344C73.6981 34.4833 73.6439 34.411 73.615 34.3277C73.5861 34.2444 73.5839 34.1541 73.6087 34.0695C73.6335 33.9848 73.684 33.91 73.7533 33.8554C74.1783 33.522 74.5726 33.1513 74.9315 32.7477C74.9684 32.7059 75.0131 32.6718 75.0632 32.6473C75.1133 32.6229 75.1677 32.6086 75.2233 32.6052C75.279 32.6019 75.3347 32.6096 75.3874 32.6278C75.44 32.6461 75.4885 32.6746 75.5301 32.7117C75.7056 32.8672 75.7216 33.1352 75.5661 33.3103C75.1735 33.7519 74.7424 34.1575 74.2777 34.5223C74.2031 34.581 74.1109 34.6129 74.016 34.6128ZM53.9184 32.9704C53.8509 32.9705 53.7844 32.9546 53.7243 32.9238C53.6643 32.893 53.6125 32.8483 53.5733 32.7934C53.2295 32.3133 52.9276 31.8047 52.6708 31.273C52.6218 31.1717 52.615 31.0551 52.6519 30.9489C52.6889 30.8426 52.7665 30.7554 52.8678 30.7064C52.9691 30.6573 53.0857 30.6506 53.192 30.6875C53.2982 30.7245 53.3855 30.8021 53.4345 30.9034C53.6701 31.3913 53.9471 31.8581 54.2624 32.2987C54.3078 32.3621 54.3348 32.4367 54.3406 32.5145C54.3463 32.5922 54.3306 32.67 54.2951 32.7394C54.2595 32.8088 54.2056 32.867 54.1392 32.9078C54.0727 32.9485 53.9963 32.9702 53.9184 32.9704ZM101.809 32.6464C101.665 32.6464 101.524 32.5726 101.445 32.4394C101.17 31.9759 100.852 31.5395 100.496 31.1357C100.459 31.0941 100.43 31.0456 100.412 30.993C100.394 30.9404 100.386 30.8847 100.389 30.8291C100.393 30.7735 100.407 30.7191 100.431 30.669C100.455 30.6189 100.489 30.5741 100.531 30.5371C100.573 30.4999 100.621 30.4713 100.674 30.453C100.726 30.4346 100.782 30.4268 100.838 30.4301C100.893 30.4334 100.948 30.4476 100.998 30.4721C101.048 30.4965 101.093 30.5306 101.13 30.5724C101.522 31.016 101.872 31.4958 102.174 32.0052C102.212 32.0696 102.233 32.143 102.233 32.2179C102.234 32.2928 102.215 32.3665 102.178 32.4316C102.141 32.4968 102.087 32.5509 102.023 32.5887C101.958 32.6264 101.884 32.6463 101.809 32.6464ZM76.2485 32.0868C76.1737 32.0866 76.1002 32.0667 76.0355 32.0289C75.9708 31.9912 75.9173 31.937 75.8804 31.8719C75.8434 31.8068 75.8243 31.733 75.825 31.6582C75.8258 31.5833 75.8463 31.5099 75.8845 31.4456C76.0671 31.1394 76.2307 30.8206 76.3732 30.4933C75.8807 30.233 75.4237 29.9104 75.0135 29.5333C74.9366 29.4556 74.8926 29.3513 74.8907 29.242C74.8888 29.1327 74.9291 29.0268 75.0033 28.9465C75.0775 28.8662 75.1798 28.8176 75.2889 28.8109C75.3981 28.8041 75.5056 28.8397 75.5891 28.9103C75.9496 29.2414 76.3516 29.5242 76.7851 29.7515C76.861 29.7139 76.9464 29.6998 77.0304 29.7111C77.1144 29.7224 77.193 29.7586 77.2562 29.815C77.3194 29.8714 77.3643 29.9455 77.385 30.0276C77.4058 30.1098 77.4014 30.1962 77.3726 30.2759C77.1711 30.8334 76.9168 31.3705 76.6133 31.8797C76.5757 31.9429 76.5223 31.9953 76.4583 32.0316C76.3944 32.0679 76.3221 32.0869 76.2485 32.0868ZM79.9602 31.4174L79.9379 31.417C79.347 31.3882 78.7599 31.3052 78.1842 31.1691C78.13 31.1561 78.0789 31.1326 78.0338 31.0999C77.9888 31.0671 77.9506 31.0258 77.9215 30.9784C77.8923 30.9309 77.8729 30.8781 77.8641 30.8231C77.8554 30.7681 77.8576 30.7119 77.8706 30.6577C77.8834 30.6035 77.9068 30.5523 77.9395 30.5071C77.9722 30.4619 78.0135 30.4237 78.061 30.3945C78.1085 30.3654 78.1614 30.3459 78.2164 30.3373C78.2715 30.3286 78.3278 30.331 78.382 30.3442C78.9072 30.468 79.4427 30.5434 79.9817 30.5694C80.0908 30.577 80.1927 30.6265 80.2662 30.7074C80.3398 30.7882 80.3793 30.8944 80.3765 31.0037C80.3737 31.113 80.3289 31.217 80.2513 31.294C80.1738 31.3711 80.0695 31.4153 79.9602 31.4174ZM81.6539 31.3817C81.545 31.3811 81.4406 31.3387 81.3622 31.2632C81.2837 31.1877 81.2373 31.0849 81.2326 30.9762C81.2278 30.8674 81.265 30.761 81.3365 30.6789C81.4081 30.5969 81.5084 30.5454 81.6168 30.5353C82.1644 30.4849 82.7089 30.4047 83.2477 30.2948C83.358 30.2725 83.4726 30.2949 83.5664 30.3572C83.6601 30.4194 83.7253 30.5163 83.7476 30.6266C83.7699 30.7368 83.7475 30.8515 83.6852 30.9452C83.623 31.0389 83.5261 31.1041 83.4158 31.1264C82.8462 31.2424 82.2706 31.3271 81.6917 31.3803C81.6791 31.3813 81.6665 31.3818 81.6539 31.3817ZM84.977 30.723C84.8747 30.7236 84.7756 30.6872 84.6981 30.6205C84.6206 30.5537 84.5698 30.4612 84.5551 30.36C84.5405 30.2587 84.5629 30.1556 84.6184 30.0696C84.6738 29.9836 84.7585 29.9206 84.8568 29.8922C85.3893 29.7341 85.9162 29.5576 86.4365 29.363C86.4887 29.3434 86.5442 29.3343 86.5999 29.3362C86.6556 29.3381 86.7103 29.351 86.761 29.3742C86.8117 29.3973 86.8573 29.4302 86.8953 29.471C86.9332 29.5118 86.9627 29.5597 86.982 29.612C87.0015 29.6642 87.0106 29.7197 87.0086 29.7753C87.0066 29.831 86.9937 29.8857 86.9706 29.9364C86.9475 29.987 86.9146 30.0326 86.8738 30.0706C86.8331 30.1085 86.7852 30.1381 86.733 30.1575C86.1942 30.3593 85.6485 30.5423 85.0969 30.706C85.058 30.7175 85.0176 30.7232 84.977 30.723ZM99.5628 30.1378C99.4753 30.1378 99.3877 30.1107 99.312 30.0551C98.8804 29.7383 98.4165 29.468 97.9282 29.2487C97.8268 29.2018 97.748 29.1168 97.7089 29.0122C97.6698 28.9076 97.6735 28.7917 97.7193 28.6898C97.7651 28.5879 97.8492 28.5082 97.9534 28.468C98.0576 28.4278 98.1735 28.4303 98.2759 28.475C98.8192 28.7189 99.3351 29.0198 99.8148 29.3726C99.887 29.4255 99.9407 29.4998 99.968 29.585C99.9954 29.6702 99.995 29.7619 99.967 29.8469C99.9391 29.9318 99.8849 30.0058 99.8122 30.0581C99.7396 30.1103 99.6523 30.1383 99.5628 30.1378ZM52.4425 29.9285C52.2592 29.9285 52.09 29.8087 52.0358 29.6242C51.7345 28.5997 51.6926 27.8883 51.6907 27.8586C51.6844 27.7464 51.723 27.6363 51.7978 27.5525C51.8727 27.4687 51.9778 27.4181 52.09 27.4118C52.3175 27.4058 52.5238 27.5777 52.5372 27.8111C52.5375 27.8174 52.5776 28.4623 52.8489 29.3849C52.8674 29.4481 52.871 29.5147 52.8594 29.5795C52.8477 29.6444 52.8211 29.7056 52.7817 29.7583C52.7422 29.8111 52.6911 29.8539 52.6322 29.8835C52.5733 29.913 52.5084 29.9284 52.4425 29.9285ZM88.1706 29.5812C88.0708 29.5807 87.9744 29.545 87.8982 29.4805C87.8221 29.416 87.7712 29.3266 87.7543 29.2283C87.7375 29.1299 87.7559 29.0287 87.8062 28.9425C87.8566 28.8563 87.9357 28.7907 88.0296 28.757C88.5729 28.5651 89.1231 28.3934 89.6791 28.2423C89.7333 28.2266 89.79 28.2218 89.8459 28.2282C89.9019 28.2346 89.9561 28.2521 90.0052 28.2797C90.0544 28.3073 90.0975 28.3444 90.1322 28.3888C90.1668 28.4333 90.1922 28.4842 90.207 28.5386C90.2217 28.593 90.2255 28.6498 90.218 28.7056C90.2106 28.7615 90.1921 28.8153 90.1636 28.8639C90.1351 28.9126 90.0972 28.955 90.0522 28.9889C90.0071 29.0227 89.9557 29.0472 89.9011 29.0609C89.3654 29.2065 88.8353 29.3722 88.312 29.5574C88.2665 29.573 88.2188 29.5811 88.1706 29.5812ZM77.4 28.9155C77.3386 28.9156 77.2778 28.9023 77.2219 28.8765C77.1661 28.8508 77.1165 28.8132 77.0767 28.7664C77.0368 28.7196 77.0076 28.6647 76.9911 28.6054C76.9746 28.5462 76.9712 28.4841 76.9811 28.4234C77.0678 27.892 77.1025 27.3535 77.0846 26.8154C77.0826 26.7598 77.0916 26.7043 77.1111 26.6521C77.1306 26.5999 77.1602 26.5521 77.1982 26.5114C77.2361 26.4706 77.2818 26.4378 77.3325 26.4147C77.3832 26.3916 77.4379 26.3787 77.4936 26.3768C77.5494 26.3741 77.6052 26.3826 77.6577 26.4019C77.7102 26.4211 77.7583 26.4506 77.7991 26.4887C77.84 26.5269 77.8729 26.5728 77.8957 26.6238C77.9186 26.6748 77.931 26.7299 77.9322 26.7858C77.9519 27.3792 77.9138 27.9731 77.8186 28.5592C77.7845 28.7674 77.6049 28.9155 77.4 28.9155ZM96.498 28.7455C96.4657 28.7455 96.4334 28.7418 96.4007 28.7344C95.8723 28.6117 95.3348 28.5321 94.7935 28.4965C94.6813 28.4887 94.5767 28.4367 94.5028 28.3519C94.4288 28.2671 94.3915 28.1564 94.3991 28.0441C94.4154 27.8111 94.6099 27.6426 94.8514 27.6497C95.4537 27.6912 96.04 27.7781 96.5945 27.9083C96.6952 27.9326 96.7835 27.993 96.8429 28.0779C96.9022 28.1629 96.9284 28.2666 96.9165 28.3696C96.9047 28.4725 96.8556 28.5676 96.7785 28.6368C96.7014 28.7061 96.6016 28.7447 96.498 28.7455ZM91.4437 28.7039C91.3372 28.7045 91.2344 28.6651 91.1557 28.5933C91.077 28.5216 91.0282 28.4229 91.019 28.3168C91.0098 28.2108 91.0409 28.1051 91.106 28.0209C91.1711 27.9367 91.2656 27.88 91.3706 27.8623C91.9427 27.7605 92.52 27.6898 93.0999 27.6508C93.3411 27.6463 93.5355 27.8133 93.5508 28.0464C93.5581 28.1586 93.5205 28.2692 93.4464 28.3539C93.3722 28.4385 93.2674 28.4902 93.1552 28.4976C92.6062 28.5349 92.0597 28.6016 91.5179 28.6976C91.4934 28.7017 91.4686 28.7038 91.4437 28.7039ZM74.2517 28.3221C74.1032 28.3221 73.9593 28.2441 73.8813 28.1054C73.5767 27.5687 73.3695 26.9824 73.2694 26.3735C73.2607 26.3185 73.2628 26.2623 73.2758 26.2081C73.2888 26.154 73.3123 26.1029 73.345 26.0578C73.3777 26.0128 73.4189 25.9746 73.4664 25.9454C73.5138 25.9163 73.5666 25.8968 73.6216 25.8881C73.6766 25.8793 73.7327 25.8815 73.7869 25.8945C73.8411 25.9074 73.8921 25.9309 73.9372 25.9636C73.9823 25.9963 74.0205 26.0376 74.0496 26.0851C74.0787 26.1325 74.0982 26.1852 74.107 26.2402C74.1849 26.7286 74.3626 27.2296 74.6209 27.6905C74.6571 27.755 74.6758 27.8278 74.6751 27.9017C74.6744 27.9757 74.6544 28.0482 74.6171 28.112C74.5798 28.1758 74.5265 28.2288 74.4624 28.2656C74.3982 28.3025 74.3256 28.3219 74.2517 28.3221ZM77.2598 25.5508C77.075 25.5508 76.9046 25.4287 76.8516 25.2416C76.689 24.6661 76.4523 24.2044 76.1847 23.9428C76.1043 23.8642 76.0584 23.7568 76.0572 23.6443C76.0559 23.5319 76.0994 23.4235 76.178 23.3431C76.2567 23.2627 76.364 23.2168 76.4765 23.2156C76.589 23.2143 76.6973 23.2578 76.7777 23.3364C77.1551 23.7053 77.4631 24.285 77.6683 25.0116C77.686 25.0746 77.6888 25.1409 77.6765 25.2053C77.6643 25.2696 77.6373 25.3303 77.5978 25.3825C77.5582 25.4347 77.5071 25.477 77.4485 25.5062C77.3899 25.5354 77.3253 25.5506 77.2598 25.5508ZM73.7986 25.0542C73.7311 25.0542 73.6645 25.0381 73.6045 25.0072C73.5444 24.9763 73.4927 24.9315 73.4534 24.8765C73.4142 24.8216 73.3886 24.7581 73.3789 24.6913C73.3692 24.6244 73.3755 24.5563 73.3974 24.4924C73.6427 23.778 74.1211 23.2529 74.7449 23.0151C74.8492 22.9785 74.9637 22.9841 75.064 23.0307C75.1643 23.0773 75.2425 23.1612 75.2819 23.2645C75.3213 23.3678 75.3188 23.4824 75.275 23.5839C75.2312 23.6854 75.1495 23.7659 75.0473 23.8081C74.5549 23.9962 74.3148 24.4341 74.1994 24.7685C74.1396 24.9436 73.9749 25.0542 73.7986 25.0542ZM151.653 171.371C151.347 171.371 150.414 171.371 148.745 164.023C148.728 163.948 148.732 163.87 148.755 163.798C148.779 163.725 148.822 163.66 148.88 163.609C152.056 160.844 156.742 156.677 158.932 154.555C156.144 156.098 150.235 159.673 146.307 162.103C146.257 162.133 146.201 162.153 146.143 162.162C146.085 162.17 146.026 162.166 145.97 162.151C145.257 161.952 141.678 160.9 141.152 159.618C141.109 159.515 141.062 159.306 141.223 159.065C142.238 157.552 158.232 152.936 160.302 152.936C160.456 152.936 160.567 152.954 160.662 152.996L160.663 152.996C160.689 153.008 160.714 153.022 160.737 153.038C160.739 153.039 160.741 153.041 160.742 153.042C160.78 153.065 160.813 153.093 160.842 153.127L160.844 153.129C161.051 153.369 161.127 153.637 160.121 155.985C159.056 158.474 152.916 171.308 151.682 171.37C151.676 171.37 151.66 171.371 151.653 171.371ZM149.629 164.082C150.253 166.772 151.141 169.742 151.641 170.427C152.842 169.033 157.932 159.088 159.594 155.076C158.185 156.488 155.34 159.105 149.629 164.082ZM142.029 159.445C142.532 160.066 144.543 160.854 146.02 161.283C149.011 159.434 154.669 155.967 157.973 154.146C153.014 155.266 143.226 158.569 142.029 159.445Z" fill="#241726"/>
<path d="M147.341 168.861C147.138 168.861 146.998 168.781 146.912 168.71C146.357 168.248 145.946 164.767 145.7 161.928C145.69 161.816 145.725 161.704 145.797 161.618C145.869 161.532 145.973 161.478 146.085 161.468C146.311 161.439 146.524 161.621 146.545 161.854C146.764 164.376 147.152 167.304 147.431 167.983C147.803 167.815 148.687 166.966 149.445 166.035C149.517 165.952 149.619 165.901 149.728 165.891C149.838 165.882 149.946 165.915 150.032 165.985C150.117 166.054 150.172 166.154 150.185 166.263C150.198 166.372 150.169 166.482 150.102 166.57C149.564 167.232 148.226 168.778 147.418 168.857C147.393 168.859 147.367 168.861 147.341 168.861ZM109.552 185.885C109.045 185.885 108.546 185.865 108.07 185.827C107.961 185.814 107.861 185.76 107.792 185.675C107.722 185.59 107.688 185.481 107.697 185.372C107.706 185.262 107.756 185.161 107.839 185.088C107.921 185.015 108.028 184.977 108.138 184.982C108.591 185.018 109.067 185.037 109.552 185.037L109.792 185.035H109.796C109.905 185.039 110.009 185.086 110.085 185.164C110.161 185.243 110.204 185.348 110.205 185.458C110.205 185.567 110.164 185.673 110.088 185.752C110.013 185.832 109.909 185.879 109.8 185.884L109.552 185.885ZM111.49 185.795C111.381 185.795 111.277 185.752 111.199 185.677C111.12 185.601 111.074 185.499 111.069 185.39C111.064 185.281 111.101 185.175 111.173 185.093C111.244 185.011 111.345 184.959 111.453 184.949C112.009 184.897 112.563 184.832 113.115 184.753C113.225 184.741 113.335 184.771 113.423 184.839C113.51 184.906 113.568 185.005 113.584 185.115C113.599 185.224 113.572 185.335 113.507 185.425C113.442 185.514 113.344 185.574 113.236 185.593C112.849 185.648 112.461 185.697 112.073 185.74C111.89 185.76 111.708 185.778 111.529 185.794C111.516 185.795 111.503 185.795 111.49 185.795ZM106.427 185.603C106.401 185.603 106.374 185.601 106.346 185.596C105.774 185.486 105.208 185.339 104.655 185.156C104.553 185.117 104.47 185.04 104.423 184.941C104.377 184.842 104.37 184.729 104.405 184.625C104.439 184.522 104.512 184.435 104.609 184.384C104.706 184.333 104.818 184.321 104.923 184.351C105.424 184.519 105.958 184.657 106.507 184.763C106.611 184.783 106.703 184.841 106.766 184.925C106.829 185.01 106.859 185.114 106.849 185.219C106.839 185.324 106.79 185.422 106.712 185.493C106.634 185.564 106.533 185.603 106.427 185.603ZM114.846 185.315C114.741 185.314 114.64 185.275 114.563 185.204C114.485 185.133 114.437 185.036 114.427 184.931C114.416 184.827 114.445 184.722 114.508 184.638C114.57 184.554 114.662 184.495 114.764 184.474C115.31 184.368 115.851 184.243 116.388 184.1C116.442 184.085 116.498 184.081 116.554 184.089C116.609 184.096 116.662 184.114 116.71 184.142C116.758 184.17 116.801 184.207 116.835 184.251C116.869 184.295 116.893 184.346 116.908 184.399C116.922 184.453 116.926 184.509 116.919 184.565C116.911 184.62 116.893 184.673 116.866 184.721C116.838 184.77 116.801 184.812 116.756 184.846C116.712 184.88 116.662 184.905 116.608 184.919C116.053 185.067 115.493 185.196 114.928 185.307C114.901 185.312 114.874 185.315 114.846 185.315ZM103.227 184.527C103.163 184.527 103.097 184.513 103.035 184.481C102.511 184.214 102.01 183.905 101.536 183.556C101.491 183.523 101.453 183.482 101.424 183.434C101.396 183.387 101.376 183.334 101.368 183.279C101.36 183.224 101.362 183.167 101.376 183.113C101.389 183.059 101.413 183.008 101.446 182.964C101.479 182.919 101.521 182.881 101.568 182.852C101.616 182.823 101.669 182.804 101.724 182.796C101.779 182.787 101.835 182.79 101.889 182.803C101.943 182.817 101.994 182.841 102.039 182.874C102.476 183.195 102.938 183.48 103.42 183.726C103.505 183.769 103.573 183.84 103.613 183.926C103.653 184.013 103.662 184.11 103.64 184.203C103.618 184.295 103.565 184.378 103.49 184.437C103.415 184.496 103.322 184.528 103.227 184.527ZM118.117 184.428C117.943 184.428 117.78 184.321 117.718 184.149C117.68 184.043 117.685 183.927 117.732 183.825C117.78 183.723 117.866 183.644 117.972 183.606C118.489 183.42 118.995 183.205 119.488 182.963C119.538 182.938 119.592 182.924 119.647 182.92C119.703 182.916 119.759 182.923 119.812 182.941C119.864 182.959 119.913 182.987 119.955 183.024C119.997 183.06 120.031 183.105 120.056 183.155C120.081 183.205 120.095 183.259 120.099 183.314C120.103 183.37 120.096 183.426 120.078 183.479C120.06 183.531 120.032 183.58 119.996 183.622C119.959 183.664 119.914 183.698 119.864 183.723C119.343 183.98 118.808 184.207 118.261 184.403C118.214 184.42 118.166 184.428 118.117 184.428ZM130.399 183.228H130.343C129.763 183.228 129.198 183.2 128.663 183.143C128.608 183.137 128.554 183.12 128.505 183.094C128.456 183.067 128.413 183.031 128.378 182.988C128.343 182.945 128.316 182.895 128.301 182.842C128.285 182.788 128.28 182.732 128.286 182.677C128.291 182.621 128.307 182.567 128.334 182.518C128.36 182.469 128.396 182.425 128.44 182.39C128.483 182.355 128.533 182.329 128.587 182.313C128.64 182.298 128.697 182.293 128.752 182.299C129.281 182.354 129.812 182.381 130.343 182.38C130.578 182.38 130.796 182.569 130.796 182.804C130.796 183.039 130.634 183.228 130.399 183.228ZM132.093 183.147C131.983 183.149 131.876 183.108 131.796 183.032C131.715 182.956 131.668 182.852 131.663 182.742C131.658 182.631 131.696 182.524 131.77 182.441C131.843 182.359 131.946 182.308 132.056 182.301C132.61 182.252 133.161 182.184 133.71 182.097C133.765 182.088 133.821 182.09 133.875 182.103C133.929 182.116 133.98 182.14 134.025 182.172C134.07 182.205 134.109 182.246 134.138 182.294C134.167 182.341 134.186 182.394 134.195 182.449C134.204 182.504 134.202 182.561 134.189 182.615C134.176 182.669 134.152 182.72 134.119 182.765C134.087 182.81 134.045 182.848 133.998 182.877C133.95 182.907 133.898 182.926 133.843 182.935C133.275 183.025 132.704 183.095 132.132 183.145C132.119 183.147 132.106 183.147 132.093 183.147ZM121.135 182.907C121.045 182.907 120.957 182.878 120.884 182.825C120.811 182.772 120.757 182.697 120.729 182.611C120.702 182.524 120.703 182.432 120.732 182.346C120.761 182.261 120.817 182.187 120.891 182.135C121.331 181.829 121.739 181.478 122.106 181.088C122.184 181.01 122.289 180.965 122.399 180.963C122.509 180.961 122.616 181.002 122.696 181.077C122.777 181.152 122.825 181.256 122.831 181.366C122.836 181.476 122.799 181.584 122.727 181.667C122.319 182.099 121.867 182.489 121.379 182.829C121.308 182.879 121.223 182.907 121.135 182.907ZM127.039 182.857C127.005 182.857 126.971 182.853 126.936 182.845C126.364 182.705 125.804 182.516 125.263 182.28C125.212 182.258 125.166 182.226 125.128 182.186C125.089 182.145 125.059 182.098 125.039 182.046C125.019 181.994 125.009 181.939 125.01 181.883C125.011 181.827 125.024 181.773 125.046 181.722C125.068 181.671 125.1 181.624 125.141 181.586C125.181 181.547 125.228 181.517 125.28 181.497C125.332 181.476 125.388 181.467 125.443 181.468C125.499 181.469 125.554 181.482 125.605 181.504C126.101 181.72 126.615 181.893 127.14 182.021C127.241 182.046 127.329 182.107 127.388 182.192C127.447 182.277 127.473 182.381 127.46 182.484C127.448 182.587 127.398 182.682 127.32 182.751C127.243 182.819 127.142 182.857 127.039 182.857ZM135.436 182.606C135.332 182.607 135.231 182.57 135.152 182.501C135.074 182.432 135.024 182.336 135.011 182.233C134.999 182.129 135.025 182.025 135.085 181.939C135.145 181.854 135.234 181.794 135.336 181.77C135.871 181.64 136.399 181.483 136.919 181.301C137.024 181.268 137.138 181.277 137.236 181.327C137.335 181.376 137.41 181.461 137.447 181.565C137.483 181.669 137.478 181.783 137.432 181.883C137.386 181.983 137.303 182.062 137.201 182.102C136.654 182.293 136.099 182.457 135.537 182.594C135.503 182.603 135.47 182.606 135.436 182.606ZM100.514 182.525C100.457 182.525 100.4 182.513 100.348 182.491C100.296 182.469 100.248 182.436 100.209 182.396C99.8006 181.972 99.4264 181.518 99.0895 181.036C99.0576 180.991 99.0349 180.939 99.0229 180.885C99.0108 180.83 99.0096 180.774 99.0193 180.719C99.029 180.664 99.0494 180.612 99.0793 180.565C99.1092 180.518 99.1481 180.477 99.1938 180.445C99.2394 180.413 99.2909 180.391 99.3453 180.379C99.3997 180.367 99.4559 180.366 99.5108 180.375C99.5656 180.385 99.618 180.405 99.665 180.435C99.712 180.465 99.7526 180.504 99.7845 180.55C100.096 180.995 100.441 181.415 100.818 181.805C100.876 181.865 100.915 181.941 100.931 182.023C100.946 182.105 100.937 182.189 100.904 182.266C100.872 182.343 100.817 182.408 100.748 182.454C100.678 182.5 100.597 182.525 100.514 182.525ZM123.961 181.486C123.875 181.486 123.789 181.46 123.715 181.407C123.228 181.06 122.782 180.66 122.385 180.212C122.315 180.128 122.28 180.019 122.289 179.909C122.297 179.799 122.348 179.697 122.43 179.624C122.513 179.551 122.62 179.513 122.731 179.517C122.841 179.522 122.944 179.57 123.02 179.65C123.038 179.671 123.057 179.691 123.075 179.711C123.294 179.275 123.453 178.81 123.546 178.331C123.557 178.276 123.578 178.224 123.609 178.177C123.639 178.131 123.679 178.091 123.725 178.06C123.771 178.029 123.823 178.007 123.877 177.996C123.932 177.985 123.988 177.984 124.043 177.995C124.098 178.006 124.15 178.027 124.196 178.058C124.242 178.088 124.282 178.128 124.314 178.174C124.345 178.22 124.366 178.272 124.378 178.327C124.389 178.381 124.389 178.437 124.378 178.492C124.263 179.089 124.06 179.665 123.776 180.202C123.754 180.245 123.725 180.281 123.693 180.313C123.857 180.455 124.029 180.589 124.207 180.716C124.28 180.768 124.335 180.842 124.364 180.927C124.392 181.013 124.393 181.105 124.365 181.191C124.338 181.277 124.284 181.351 124.211 181.404C124.138 181.457 124.051 181.486 123.961 181.486ZM138.623 181.474C138.527 181.474 138.434 181.441 138.359 181.382C138.284 181.322 138.232 181.239 138.21 181.145C138.189 181.052 138.199 180.954 138.24 180.867C138.282 180.781 138.351 180.711 138.437 180.668C138.928 180.43 139.403 180.159 139.859 179.858C139.905 179.827 139.957 179.806 140.012 179.795C140.066 179.784 140.123 179.784 140.177 179.795C140.232 179.806 140.284 179.828 140.33 179.859C140.376 179.89 140.416 179.93 140.447 179.976C140.478 180.023 140.499 180.075 140.51 180.129C140.52 180.184 140.52 180.24 140.509 180.295C140.498 180.35 140.477 180.401 140.446 180.448C140.415 180.494 140.375 180.534 140.328 180.565C139.842 180.887 139.334 181.176 138.809 181.431C138.751 181.459 138.688 181.474 138.623 181.474ZM98.5677 179.762C98.413 179.762 98.2642 179.677 98.1892 179.53C97.9262 179.009 97.6952 178.473 97.4975 177.924C97.4628 177.819 97.4703 177.705 97.5186 177.606C97.5669 177.506 97.652 177.43 97.7559 177.392C97.8598 177.354 97.9743 177.359 98.075 177.404C98.1757 177.45 98.2546 177.533 98.295 177.636C98.4806 178.152 98.6978 178.656 98.9451 179.145C98.978 179.21 98.9937 179.282 98.9909 179.354C98.988 179.427 98.9666 179.497 98.9288 179.559C98.8909 179.621 98.8379 179.672 98.7747 179.708C98.7115 179.743 98.6402 179.762 98.5677 179.762ZM141.431 179.597C141.346 179.597 141.262 179.571 141.191 179.523C141.121 179.475 141.067 179.406 141.036 179.326C141.005 179.246 140.999 179.159 141.019 179.076C141.038 178.992 141.083 178.917 141.146 178.859C141.548 178.494 141.92 178.098 142.26 177.675C142.331 177.59 142.432 177.536 142.542 177.525C142.653 177.514 142.763 177.546 142.85 177.615C142.936 177.684 142.992 177.785 143.006 177.895C143.02 178.005 142.99 178.116 142.922 178.204C142.555 178.663 142.152 179.092 141.716 179.487C141.638 179.558 141.537 179.598 141.431 179.597ZM121.737 178.966C121.586 178.966 121.439 178.885 121.362 178.743C121.081 178.217 120.856 177.662 120.694 177.088C120.679 177.034 120.674 176.978 120.681 176.923C120.687 176.867 120.705 176.814 120.732 176.765C120.759 176.717 120.795 176.674 120.839 176.639C120.883 176.605 120.933 176.579 120.986 176.564C121.04 176.549 121.096 176.544 121.151 176.55C121.207 176.557 121.26 176.574 121.309 176.601C121.357 176.628 121.4 176.665 121.435 176.709C121.469 176.752 121.495 176.802 121.51 176.856C121.658 177.376 121.86 177.876 122.11 178.341C122.144 178.406 122.162 178.478 122.16 178.552C122.158 178.625 122.138 178.697 122.1 178.759C122.062 178.822 122.009 178.874 121.946 178.911C121.882 178.947 121.81 178.966 121.737 178.966ZM124.048 177.148C123.942 177.147 123.84 177.107 123.762 177.035C123.683 176.963 123.635 176.864 123.626 176.758C123.581 176.228 123.473 175.704 123.303 175.199C123.284 175.146 123.276 175.09 123.28 175.034C123.283 174.978 123.298 174.923 123.322 174.872C123.347 174.821 123.382 174.776 123.424 174.739C123.467 174.702 123.516 174.674 123.569 174.656C123.623 174.639 123.679 174.632 123.735 174.636C123.791 174.64 123.846 174.656 123.896 174.681C123.946 174.707 123.991 174.742 124.027 174.785C124.064 174.828 124.091 174.878 124.108 174.932C124.298 175.501 124.42 176.091 124.472 176.689C124.476 176.747 124.469 176.806 124.45 176.861C124.431 176.917 124.4 176.968 124.36 177.011C124.321 177.054 124.272 177.088 124.219 177.112C124.165 177.135 124.107 177.147 124.048 177.148ZM143.535 176.957C143.461 176.957 143.389 176.938 143.325 176.901C143.261 176.864 143.207 176.811 143.17 176.748C143.132 176.684 143.112 176.611 143.112 176.538C143.111 176.464 143.129 176.391 143.165 176.326C143.43 175.852 143.657 175.357 143.843 174.846C143.862 174.794 143.891 174.746 143.929 174.705C143.966 174.663 144.012 174.63 144.062 174.607C144.113 174.583 144.167 174.57 144.223 174.567C144.278 174.565 144.334 174.574 144.386 174.593C144.439 174.612 144.487 174.641 144.528 174.679C144.569 174.716 144.602 174.762 144.626 174.812C144.649 174.863 144.663 174.917 144.665 174.973C144.667 175.029 144.659 175.084 144.64 175.137C144.438 175.69 144.193 176.226 143.906 176.74C143.828 176.879 143.684 176.957 143.535 176.957ZM97.4069 176.579C97.2166 176.579 97.0429 176.449 96.9958 176.255C96.8578 175.692 96.7462 175.123 96.6614 174.55C96.6532 174.495 96.656 174.439 96.6695 174.385C96.683 174.331 96.7071 174.28 96.7402 174.235C96.7734 174.19 96.8151 174.152 96.8629 174.124C96.9107 174.095 96.9637 174.076 97.0188 174.068C97.2522 174.04 97.4656 174.194 97.5005 174.426C97.5829 174.98 97.6901 175.528 97.8189 176.054C97.8343 176.116 97.8353 176.181 97.8218 176.244C97.8083 176.307 97.7807 176.366 97.741 176.417C97.7013 176.467 97.6506 176.508 97.5927 176.536C97.5348 176.564 97.4713 176.579 97.4069 176.579ZM120.815 175.725C120.707 175.725 120.603 175.684 120.524 175.61C120.446 175.536 120.398 175.435 120.392 175.328C120.381 175.164 120.376 174.999 120.376 174.835C120.376 174.366 120.419 173.925 120.503 173.526C120.53 173.419 120.597 173.328 120.69 173.27C120.783 173.212 120.895 173.192 121.002 173.215C121.11 173.237 121.204 173.3 121.266 173.391C121.327 173.482 121.352 173.592 121.334 173.7C121.259 174.074 121.222 174.454 121.224 174.835C121.224 174.978 121.229 175.125 121.239 175.275C121.242 175.332 121.234 175.39 121.214 175.445C121.195 175.5 121.164 175.55 121.124 175.592C121.085 175.634 121.037 175.668 120.983 175.691C120.93 175.714 120.873 175.726 120.815 175.725ZM122.992 173.954C122.851 173.954 122.713 173.883 122.632 173.753C122.287 173.201 121.961 172.881 121.77 172.766C121.54 172.726 121.376 172.501 121.416 172.271C121.457 172.04 121.666 171.883 121.898 171.921C122.004 171.94 122.108 171.98 122.207 172.039C122.574 172.26 122.981 172.709 123.352 173.305C123.392 173.369 123.414 173.443 123.416 173.519C123.418 173.594 123.4 173.669 123.363 173.735C123.326 173.801 123.273 173.857 123.207 173.895C123.142 173.933 123.068 173.954 122.992 173.954ZM144.695 173.78C144.632 173.78 144.57 173.766 144.514 173.74C144.457 173.713 144.407 173.674 144.367 173.626C144.327 173.578 144.299 173.521 144.283 173.461C144.268 173.4 144.266 173.337 144.278 173.275C144.427 172.506 144.443 171.949 144.443 171.745C144.443 171.513 144.629 171.285 144.86 171.281C145.073 171.271 145.283 171.421 145.291 171.652L145.291 171.745C145.291 171.973 145.274 172.595 145.111 173.437C145.092 173.533 145.04 173.62 144.965 173.683C144.889 173.746 144.793 173.78 144.695 173.78ZM96.9019 173.222C96.794 173.222 96.6902 173.181 96.6116 173.107C96.533 173.033 96.4856 172.932 96.4789 172.824C96.4424 172.246 96.4314 171.667 96.4458 171.088C96.4525 170.853 96.6644 170.674 96.8815 170.675C96.9939 170.678 97.1004 170.726 97.1778 170.808C97.2551 170.889 97.2969 170.998 97.2941 171.111C97.2904 171.243 97.2875 171.397 97.2875 171.573C97.2875 171.907 97.2971 172.312 97.3257 172.771C97.3293 172.829 97.321 172.887 97.3013 172.942C97.2817 172.996 97.251 173.046 97.2113 173.088C97.1716 173.131 97.1237 173.164 97.0705 173.187C97.0172 173.21 96.9599 173.222 96.9019 173.222Z" fill="#241726"/>
</svg>
