<svg width="171" height="171" viewBox="0 0 171 171" fill="none" xmlns="http://www.w3.org/2000/svg">
<g clip-path="url(#clip0_53_127)">
<path fill-rule="evenodd" clip-rule="evenodd" d="M169.526 87.0926C169.526 91.8769 169.107 96.5547 168.314 101.118C168.314 101.118 151.042 118.89 142.947 129.312C132.002 143.403 108.028 166.989 108.028 166.989C101.746 168.743 95.1686 169.798 88.3833 170.077C88.3833 170.077 63.263 146.827 62.05 146.827C36.2764 146.827 20.3594 141.095 20.3594 141.095C15.6375 135.692 11.611 129.688 8.41577 123.217C8.41577 123.217 21.4418 85.2941 21.4418 72.3468C21.4418 50.7664 8.3964 45.8542 22.1622 31.0851C32.4426 20.0556 45.7185 11.7587 60.7271 7.4176C60.7271 7.4176 102.968 37.0848 111.317 37.0848C150.254 37.0848 166.402 64.6899 166.402 64.6899C168.412 71.7801 169.526 79.3745 169.526 87.0926Z" fill="#A989E7"/>
<path fill-rule="evenodd" clip-rule="evenodd" d="M0 87.0927C0 100.04 3.02356 112.294 8.41574 123.217C8.67925 122.906 8.93709 122.593 9.18824 122.279C13.674 116.672 16.4785 111.066 23.2072 107.139C29.937 103.213 36.6651 102.092 39.4693 94.8034C42.8332 86.9524 39.4693 77.4195 43.3949 69.0081C46.1981 62.8391 53.4876 57.7932 51.2459 49.9423C48.4408 41.5305 34.9829 40.4093 31.6186 31.9976C30.4777 29.4884 30.3585 26.4207 30.5806 23.2122C11.8949 38.4492 0 61.4083 0 87.0927Z" fill="#FFD548"/>
<path fill-rule="evenodd" clip-rule="evenodd" d="M166.403 64.6906C156.426 29.6954 123.655 4.02405 84.7632 4.02405C76.4132 4.02405 68.3475 5.21203 60.7273 7.41766C61.4447 27.7526 83.1123 25.0196 91.6332 40.9955C99.4832 55.5759 93.8763 77.4452 118.549 71.2762C125.278 70.155 130.885 65.6696 138.176 65.1091C144.344 65.1091 149.391 68.473 155.56 68.473C160.937 68.3284 164.39 66.8983 166.403 64.6906Z" fill="#00EEE4"/>
<path fill-rule="evenodd" clip-rule="evenodd" d="M168.315 101.118C163.47 99.8673 159.17 96.8864 153.837 97.2675C144.304 97.8283 144.865 107.361 137.576 112.409C127.482 119.136 97.2005 107.361 97.7606 120.26C98.3217 127.548 109.537 131.475 111.78 138.763C114.584 146.614 108.415 149.98 106.733 156.708C105.868 160.747 106.784 163.894 108.029 166.99C139.059 158.329 162.822 132.774 168.315 101.118Z" fill="#FFD548"/>
<path fill-rule="evenodd" clip-rule="evenodd" d="M73.9788 114.276C71.4809 112.307 69.8447 109.095 69.6203 105.975C69.4272 103.291 69.328 100.034 70.9776 97.7507C72.6341 95.4619 75.3421 94.1594 78.1499 94.6514C79.7871 94.9362 81.3167 95.499 82.6343 96.509C84.4385 97.8913 85.5426 96.8533 87.0315 95.6099C88.4379 94.4313 89.8487 93.271 91.7421 93.0526C95.0856 92.6678 98.5069 95.3711 99.8512 98.1852C101.339 101.303 100.943 104.715 100.037 107.94C99.5356 109.717 98.2477 111.274 97.3183 112.931C89.3464 110.035 81.5515 110.251 73.9788 114.276Z" fill="#004587"/>
<path fill-rule="evenodd" clip-rule="evenodd" d="M73.9788 114.276C81.8852 107.165 88.3865 106.789 97.3183 112.931C90.5561 120.761 81.814 121.265 73.9788 114.276Z" fill="#FFA4AD"/>
<path fill-rule="evenodd" clip-rule="evenodd" d="M65.681 69.461C69.6126 76.5384 76.3882 83.5528 76.3882 83.5528C74.6058 85.9918 72.3069 88.0072 69.6557 89.4553C59.7464 94.8711 47.3055 91.3296 41.8762 81.5452C36.4416 71.7604 40.0697 59.4357 49.9787 54.0215C52.6036 52.5825 55.5106 51.7326 58.4973 51.531C58.4973 51.531 61.7383 62.3571 65.681 69.461Z" fill="white"/>
<path fill-rule="evenodd" clip-rule="evenodd" d="M58.4973 51.531C53.3383 55.126 50.1043 61.2249 50.4924 67.912C51.0822 78.0998 59.8536 85.7992 70.0836 85.1071C72.2597 84.9611 74.3935 84.435 76.3882 83.5528C80.878 77.3948 81.6862 68.9944 77.7592 61.9263C73.8142 54.8228 66.18 51.015 58.4973 51.531Z" fill="#004587"/>
<path fill-rule="evenodd" clip-rule="evenodd" d="M118.323 65.909C123.047 72.4815 127.006 80.2743 127.006 80.2743C125.52 82.9036 123.471 85.1713 121.005 86.9149C111.789 93.4447 99.0244 91.376 92.4936 82.2836C85.9592 73.1985 88.1345 60.5385 97.3468 54.0051C99.7868 52.2721 102.575 51.0913 105.518 50.545C105.518 50.545 113.581 59.3101 118.323 65.909Z" fill="white"/>
<path fill-rule="evenodd" clip-rule="evenodd" d="M105.518 50.545C100.812 54.7175 98.3086 61.1474 99.4695 67.7419C101.238 77.7928 110.84 84.4244 120.923 82.5464C123.067 82.1499 125.126 81.3809 127.006 80.2743C130.751 73.6354 130.578 65.2016 125.858 58.6328C121.114 52.0346 113.086 49.1423 105.518 50.545ZM129.788 47.5215C126.773 43.1326 122.075 40.7623 116.751 41.2175C114.08 41.4486 114.649 45.5583 117.307 45.3325C121.199 44.9959 124.327 46.8943 126.486 50.0344C128.004 52.2454 131.295 49.7161 129.788 47.5215ZM53.7019 40.925C48.3799 40.9584 43.7786 43.5153 41.1709 48.1781C39.8603 50.519 43.5832 52.3542 44.8841 50.0247C46.7928 46.6184 50.1176 45.0934 53.9317 45.0694C56.6136 45.055 56.3641 40.9119 53.7019 40.925Z" fill="#004587"/>
<path d="M62.2884 99.8248C62.2272 103.004 58.5133 105.509 53.9902 105.426C49.4657 105.344 45.846 102.702 45.9048 99.5212C45.9639 96.3423 49.6774 93.8351 54.2036 93.9183C58.7268 94.0034 62.3478 96.6479 62.2884 99.8248ZM127.339 98.1408C127.281 101.32 123.566 103.827 119.044 103.742C114.518 103.66 110.9 101.018 110.957 97.8393C111.018 94.6604 114.731 92.1515 119.255 92.2363C123.779 92.3218 127.399 94.964 127.339 98.1408Z" fill="#00EEE4"/>
<path d="M74.8303 62.7458C73.136 60.3051 71.0603 58.2921 68.2541 57.204C66.9927 56.7137 66.3741 58.7176 67.6242 59.2023C69.8789 60.0773 71.624 61.7759 72.9837 63.7374C73.7428 64.8332 75.5991 63.858 74.8303 62.7458ZM64.9527 55.8277C64.628 55.7499 64.3054 55.661 63.9818 55.5835C63.4277 55.4503 62.8479 55.6944 62.6662 56.2682C62.5042 56.7825 62.7975 57.4468 63.3509 57.5801C63.6762 57.6596 63.9985 57.7484 64.3218 57.8242C64.8779 57.9612 65.4557 57.7134 65.6363 57.1416C65.7993 56.6252 65.5054 55.9626 64.9527 55.8277ZM76.2337 66.43C76.0089 65.9046 75.2818 65.749 74.8149 66.0025C74.2805 66.2911 74.1636 66.8926 74.3871 67.4179L74.3867 67.3829C74.3968 67.9526 74.8002 68.4449 75.394 68.4653C75.9408 68.4857 76.4895 68.0288 76.4798 67.457C76.4711 67.0776 76.3806 66.7743 76.2337 66.43Z" fill="white"/>
<path d="M74.3784 67.4143C74.3821 67.4293 74.3867 67.4457 74.3877 67.4644C74.3877 67.4514 74.3877 67.4347 74.3867 67.418C74.2705 67.1425 74.358 67.3442 74.3784 67.4143ZM74.3877 67.4644C74.4011 67.5439 74.3921 67.618 74.3877 67.4644Z" fill="white"/>
<path d="M123.431 60.1889C121.737 57.7465 119.662 55.7352 116.856 54.6471C115.594 54.1568 114.977 56.1587 116.226 56.6454C118.479 57.5207 120.225 59.2174 121.585 61.1805C122.344 62.276 124.201 61.2991 123.431 60.1889ZM113.553 53.2704C113.229 53.1926 112.907 53.1041 112.583 53.0263C112.028 52.893 111.449 53.1355 111.266 53.709C111.107 54.2253 111.397 54.8896 111.952 55.0229C112.276 55.1023 112.599 55.1912 112.922 55.269C113.479 55.4039 114.057 55.1561 114.238 54.5843C114.399 54.068 114.106 53.4037 113.553 53.2704ZM124.833 63.8731C124.61 63.3458 123.883 63.1921 123.417 63.4436C122.882 63.7322 122.766 64.3353 122.988 64.859C122.987 64.848 122.988 64.8403 122.987 64.8256C122.998 65.3937 123.4 65.886 123.996 65.9081C124.541 65.9285 125.091 65.4716 125.081 64.8978C125.072 64.5204 124.982 64.2171 124.833 63.8731Z" fill="white"/>
<path d="M122.979 64.8572C122.983 64.8739 122.987 64.8886 122.989 64.9053C122.99 64.8943 122.988 64.8756 122.988 64.8592C122.871 64.5833 122.96 64.7867 122.979 64.8572Z" fill="white"/>
<path d="M122.989 64.9054C123.002 64.9849 122.993 65.0607 122.989 64.9054Z" fill="white"/>
<path fill-rule="evenodd" clip-rule="evenodd" d="M170.81 28.3003C169.578 20.3532 162.373 16.5822 155.156 16.8671C147.942 16.5822 140.736 20.3532 139.505 28.3003C138.393 35.5241 142.406 43.0751 144.82 49.6293C144.82 49.6293 151.544 65.9771 154.152 71.3152C154.293 71.6074 154.832 72.4661 155.156 72.4661C155.482 72.4661 155.961 71.6074 156.104 71.3152C158.711 65.9771 165.491 49.6293 165.491 49.6293C167.908 43.0751 171.92 35.5238 170.81 28.3003Z" fill="#FF6086"/>
<path fill-rule="evenodd" clip-rule="evenodd" d="M164.789 32.051C164.789 37.3707 160.477 41.6858 155.156 41.6858C149.837 41.6858 145.525 37.3707 145.525 32.051C145.525 26.7333 149.837 22.4199 155.156 22.4199C160.477 22.4199 164.789 26.733 164.789 32.051ZM152.763 60.4774C151.493 56.3197 149.636 52.362 148.58 48.1377C148.252 46.8295 146.234 47.3846 146.562 48.6948C147.62 52.921 149.477 56.8751 150.746 61.0329C151.138 62.3204 153.156 61.771 152.763 60.4774ZM146.839 43.6062C145.49 43.6062 145.49 45.697 146.839 45.697C148.188 45.697 148.188 43.6062 146.839 43.6062ZM153.532 62.7422C152.183 62.7422 152.183 64.8349 153.532 64.8349C154.881 64.8349 154.881 62.7422 153.532 62.7422Z" fill="white"/>
<path fill-rule="evenodd" clip-rule="evenodd" d="M162.682 29.9749C162.491 29.331 161.482 29.6048 161.673 30.2544C162.633 33.5018 161.564 37.2932 158.202 38.6031C157.583 38.8472 157.852 39.8595 158.482 39.6134C162.373 38.0921 163.817 33.8217 162.682 29.9749ZM85.465 145.559C84.623 138.41 82.5216 137.568 75.7922 135.046C69.9047 132.522 69.9047 132.1 67.8019 126.214C65.6995 121.167 64.4377 115.281 57.7089 115.281C51.8208 115.701 48.8774 119.484 41.7274 118.644C37.5222 117.802 33.7372 116.121 28.691 117.802C20.123 120.976 19.9356 131.811 20.3598 141.095C35.9057 158.884 58.9897 170.16 84.7633 170.16C85.9763 170.16 87.1827 170.128 88.384 170.078C89.2013 167.232 89.0316 163.478 87.5671 158.595C86.3053 153.549 85.8845 150.605 85.465 145.559Z" fill="#FF6086"/>
<path fill-rule="evenodd" clip-rule="evenodd" d="M159.946 81.8617C156.069 82.2428 156.666 88.2325 160.543 87.8494C164.421 87.4663 163.824 81.477 159.946 81.8617ZM140.89 134.195C137.011 134.578 137.61 140.565 141.486 140.182C145.364 139.797 144.767 133.81 140.89 134.195ZM158.753 94.2145C158.711 106.634 155.407 120.16 146.087 128.975C143.923 131.022 147.195 134.269 149.353 132.228C159.542 122.589 163.325 107.815 163.371 94.2148C163.381 91.2484 158.762 91.2504 158.753 94.2145ZM24.5491 130.366C27.6375 127.992 23.9643 123.224 20.8766 125.6C17.7883 127.978 21.4611 132.744 24.5491 130.366ZM13.0514 75.8704C16.1397 73.4964 12.4665 68.7301 9.37786 71.1058C6.29017 73.4814 9.963 78.248 13.0514 75.8704ZM19.0307 119.25C12.4989 108.688 8.1518 95.4599 11.3995 83.0497C12.1529 80.1708 7.66051 79.1438 6.90771 82.0174C3.35746 95.5838 7.95776 110.124 15.1097 121.692C16.6704 124.216 20.5894 121.772 19.0307 119.25Z" fill="white"/>
<path fill-rule="evenodd" clip-rule="evenodd" d="M40.6079 14.3301C39.1564 4.96587 30.6675 0.521204 22.1633 0.85786C13.6624 0.521204 5.17281 4.96587 3.72165 14.3301C2.4131 22.8397 7.14098 31.7364 9.98586 39.4594C9.98586 39.4594 17.9076 58.7213 20.98 65.0106C21.1476 65.3566 21.7812 66.3669 22.1633 66.3669C22.5477 66.3669 23.1124 65.3566 23.2798 65.0106C26.3521 58.7213 34.3413 39.4594 34.3413 39.4594C37.1889 31.7364 41.9158 22.84 40.6079 14.3301Z" fill="#FF6086"/>
<path fill-rule="evenodd" clip-rule="evenodd" d="M33.514 18.7488C33.514 25.0157 28.4321 30.0986 22.1632 30.0986C15.8967 30.0986 10.8154 25.0157 10.8154 18.7488C10.8154 12.4819 15.8967 7.401 22.1632 7.401C28.4321 7.401 33.514 12.4819 33.514 18.7488ZM19.3437 52.2417C17.8481 47.3422 15.6595 42.6811 14.4148 37.7021C14.028 36.1627 11.6511 36.8157 12.0385 38.359C13.2832 43.3384 15.4722 47.9975 16.9664 52.897C17.4293 54.414 19.807 53.7664 19.3437 52.2417ZM12.3634 32.3617C10.7747 32.3617 10.7747 34.8265 12.3634 34.8265C13.9542 34.8265 13.9542 32.3617 12.3634 32.3617ZM20.2502 54.9116C18.6614 54.9116 18.6614 57.3761 20.2502 57.3761C21.8396 57.3764 21.8396 54.9116 20.2502 54.9116Z" fill="white"/>
<path fill-rule="evenodd" clip-rule="evenodd" d="M31.0306 16.301C30.8062 15.5422 29.6165 15.8662 29.8423 16.6303C30.9735 20.4568 29.7147 24.9235 25.7536 26.4685C25.0232 26.7554 25.3412 27.947 26.0833 27.6581C30.6675 25.8653 32.3689 20.8362 31.0306 16.301Z" fill="#FF6086"/>
<path fill-rule="evenodd" clip-rule="evenodd" d="M58.7355 119.186C57.8041 113.175 52.3528 110.322 46.8934 110.536C41.4345 110.322 35.9842 113.175 35.0517 119.186C34.2121 124.652 37.247 130.362 39.0742 135.321C39.0742 135.321 44.1608 147.689 46.1326 151.728C46.2408 151.95 46.647 152.6 46.8931 152.6C47.1396 152.6 47.5023 151.95 47.6095 151.728C49.582 147.689 54.7124 135.321 54.7124 135.321C56.5409 130.363 59.5752 124.652 58.7355 119.186Z" fill="#FFA4AD"/>
<path fill-rule="evenodd" clip-rule="evenodd" d="M54.1809 122.025C54.1809 126.05 50.9183 129.312 46.8934 129.312C42.8699 129.312 39.6062 126.05 39.6062 122.025C39.6062 118.001 42.8696 114.739 46.8934 114.739C50.9183 114.739 54.1809 118.001 54.1809 122.025ZM45.0822 143.53C44.122 140.384 42.7173 137.39 41.9177 134.195C41.6699 133.205 40.1436 133.625 40.3921 134.615C41.1913 137.812 42.5964 140.804 43.5566 143.949C43.8538 144.923 45.3798 144.508 45.0822 143.53ZM40.6008 130.766C39.5802 130.766 39.5802 132.348 40.6008 132.348C41.6215 132.348 41.6215 130.766 40.6008 130.766ZM45.6643 145.243C44.6437 145.243 44.6437 146.827 45.6643 146.827C46.6857 146.827 46.6857 145.243 45.6643 145.243Z" fill="white"/>
<path fill-rule="evenodd" clip-rule="evenodd" d="M52.5867 120.454C52.4425 119.965 51.6776 120.173 51.8236 120.663C52.5497 123.12 51.7408 125.988 49.1975 126.982C48.7289 127.165 48.933 127.931 49.4092 127.746C52.3526 126.595 53.4458 123.365 52.5867 120.454Z" fill="#FF6086"/>
<path d="M74.1067 38.1847C74.1067 39.9127 72.7053 41.3138 70.977 41.3138C69.2493 41.3138 67.8475 39.913 67.8475 38.1847C67.8475 36.4583 69.2493 35.0559 70.977 35.0559C72.7053 35.0559 74.1067 36.4583 74.1067 38.1847ZM147.242 88.1087C147.242 89.8367 145.842 91.2374 144.113 91.2374C142.384 91.2374 140.984 89.8367 140.984 88.1087C140.984 86.3806 142.384 84.9799 144.113 84.9799C145.842 84.9799 147.242 86.3803 147.242 88.1087ZM27.2788 89.3037C27.2789 89.5583 27.2288 89.8105 27.1313 90.0458C27.0339 90.2811 26.8911 90.4949 26.711 90.675C26.5309 90.8551 26.3171 90.9979 26.0818 91.0953C25.8465 91.1928 25.5943 91.2429 25.3397 91.2428C25.0821 91.2476 24.8262 91.201 24.5869 91.1057C24.3475 91.0105 24.1296 90.8685 23.9458 90.688C23.7619 90.5076 23.6159 90.2923 23.5162 90.0548C23.4166 89.8173 23.3652 89.5622 23.3652 89.3047C23.3652 89.0471 23.4166 88.7921 23.5162 88.5545C23.6159 88.317 23.7619 88.1017 23.9458 87.9213C24.1296 87.7409 24.3475 87.5989 24.5869 87.5036C24.8262 87.4084 25.0821 87.3618 25.3397 87.3665C25.5942 87.3664 25.8463 87.4163 26.0815 87.5136C26.3167 87.6109 26.5304 87.7535 26.7105 87.9334C26.8906 88.1133 27.0334 88.3269 27.1309 88.562C27.2285 88.7971 27.2787 89.0491 27.2788 89.3037ZM68.8802 135.954C68.8836 136.211 68.8359 136.466 68.74 136.704C68.6441 136.942 68.5018 137.159 68.3215 137.342C68.1411 137.524 67.9263 137.669 67.6894 137.768C67.4525 137.867 67.1983 137.918 66.9416 137.918C66.6848 137.918 66.4307 137.867 66.1938 137.768C65.9569 137.669 65.742 137.524 65.5617 137.342C65.3813 137.159 65.2391 136.942 65.1432 136.704C65.0473 136.466 64.9996 136.211 65.003 135.954C65.003 135.44 65.2072 134.947 65.5708 134.583C65.9343 134.22 66.4274 134.016 66.9416 134.016C67.4557 134.016 67.9488 134.22 68.3124 134.583C68.676 134.947 68.8802 135.44 68.8802 135.954ZM125.919 148.564C125.919 148.819 125.869 149.071 125.772 149.306C125.674 149.541 125.531 149.755 125.351 149.935C125.171 150.115 124.957 150.257 124.722 150.355C124.487 150.452 124.235 150.502 123.98 150.502C123.726 150.502 123.474 150.452 123.239 150.354C123.004 150.257 122.79 150.114 122.61 149.934C122.43 149.754 122.287 149.541 122.19 149.306C122.092 149.071 122.042 148.819 122.042 148.564C122.042 148.31 122.092 148.057 122.189 147.822C122.287 147.587 122.429 147.373 122.609 147.193C122.789 147.013 123.003 146.87 123.238 146.773C123.474 146.675 123.726 146.625 123.98 146.625C124.235 146.625 124.487 146.675 124.723 146.772C124.958 146.87 125.172 147.013 125.352 147.193C125.532 147.373 125.675 147.587 125.772 147.822C125.869 148.057 125.92 148.309 125.919 148.564ZM82.2235 129.312C82.2235 129.826 82.0193 130.319 81.6556 130.683C81.292 131.046 80.7988 131.251 80.2846 131.251C79.7704 131.251 79.2772 131.046 78.9136 130.683C78.5499 130.319 78.3456 129.826 78.3456 129.312C78.3458 128.797 78.5502 128.304 78.9138 127.941C79.2774 127.577 79.7705 127.373 80.2848 127.373C80.7989 127.373 81.2918 127.577 81.6553 127.941C82.0188 128.305 82.2232 128.798 82.2235 129.312ZM134.973 104.813C134.973 105.328 134.769 105.821 134.405 106.184C134.041 106.548 133.548 106.752 133.034 106.752C132.52 106.752 132.026 106.548 131.663 106.184C131.299 105.821 131.095 105.328 131.095 104.813C131.095 104.299 131.299 103.806 131.663 103.442C132.026 103.078 132.52 102.874 133.034 102.874C133.548 102.874 134.041 103.078 134.405 103.442C134.769 103.806 134.973 104.299 134.973 104.813Z" fill="white"/>
<path d="M129.626 36.7653C130.697 36.7653 131.565 35.8972 131.565 34.8265C131.565 33.7557 130.697 32.8877 129.626 32.8877C128.555 32.8877 127.687 33.7557 127.687 34.8265C127.687 35.8972 128.555 36.7653 129.626 36.7653Z" fill="white"/>
<path d="M104.984 34.8264C104.984 35.3406 104.78 35.8337 104.416 36.1973C104.052 36.5609 103.559 36.7653 103.045 36.7655C101.974 36.7655 101.106 35.8958 101.106 34.8264C101.106 33.7569 101.974 32.8872 103.045 32.8872C103.559 32.8874 104.052 33.0918 104.416 33.4554C104.78 33.819 104.984 34.3122 104.984 34.8264ZM52.4001 23.2117C52.4002 23.4664 52.35 23.7185 52.2526 23.9538C52.1552 24.189 52.0124 24.4028 51.8324 24.5829C51.6523 24.7629 51.4386 24.9058 51.2033 25.0032C50.9681 25.1007 50.716 25.1508 50.4613 25.1508C49.947 25.1508 49.4538 24.9465 49.0902 24.5829C48.7265 24.2192 48.5222 23.726 48.5222 23.2117C48.5222 22.6974 48.7265 22.2042 49.0902 21.8406C49.4538 21.4769 49.947 21.2726 50.4613 21.2726C50.716 21.2726 50.9681 21.3228 51.2033 21.4202C51.4386 21.5177 51.6523 21.6605 51.8324 21.8406C52.0124 22.0206 52.1552 22.2344 52.2526 22.4697C52.35 22.7049 52.4002 22.9571 52.4001 23.2117ZM114.692 16.8523C114.692 17.3666 114.487 17.8597 114.124 18.2233C113.76 18.5869 113.267 18.7913 112.753 18.7914C112.239 18.7913 111.745 18.5869 111.382 18.2233C111.018 17.8597 110.814 17.3666 110.814 16.8523C110.814 16.5977 110.864 16.3455 110.961 16.1102C111.059 15.8749 111.201 15.6611 111.381 15.4811C111.562 15.301 111.775 15.1582 112.011 15.0607C112.246 14.9633 112.498 14.9132 112.753 14.9132C113.007 14.9132 113.26 14.9633 113.495 15.0607C113.73 15.1582 113.944 15.301 114.124 15.4811C114.304 15.6611 114.447 15.8749 114.544 16.1102C114.642 16.3455 114.692 16.5977 114.692 16.8523Z" fill="white"/>
<path d="M31.474 142.14C32.545 142.14 33.4131 141.272 33.4131 140.201C33.4131 139.13 32.545 138.262 31.474 138.262C30.4031 138.262 29.5349 139.13 29.5349 140.201C29.5349 141.272 30.4031 142.14 31.474 142.14Z" fill="white"/>
<path d="M33.4134 66.3672C33.4134 66.6219 33.3632 66.874 33.2658 67.1093C33.1683 67.3445 33.0255 67.5583 32.8454 67.7384C32.6654 67.9184 32.4516 68.0613 32.2163 68.1587C31.9811 68.2562 31.7289 68.3063 31.4743 68.3063C31.2196 68.3063 30.9675 68.2562 30.7322 68.1587C30.4969 68.0613 30.2832 67.9184 30.1031 67.7384C29.923 67.5583 29.7802 67.3445 29.6828 67.1093C29.5853 66.874 29.5352 66.6219 29.5352 66.3672C29.5352 65.8529 29.7395 65.3597 30.1031 64.9961C30.4668 64.6324 30.96 64.4281 31.4743 64.4281C31.9886 64.4281 32.4818 64.6324 32.8454 64.9961C33.2091 65.3597 33.4134 65.8529 33.4134 66.3672ZM99.2577 159.204C99.2578 159.458 99.2077 159.71 99.1103 159.946C99.0129 160.181 98.8701 160.395 98.69 160.575C98.5099 160.755 98.2961 160.898 98.0608 160.995C97.8255 161.093 97.5733 161.143 97.3186 161.143C97.064 161.143 96.8119 161.092 96.5766 160.995C96.3414 160.898 96.1276 160.755 95.9476 160.575C95.7675 160.395 95.6247 160.181 95.5273 159.946C95.4299 159.71 95.3798 159.458 95.3798 159.204C95.3798 158.949 95.4298 158.697 95.5272 158.461C95.6246 158.226 95.7674 158.012 95.9475 157.832C96.1275 157.652 96.3413 157.509 96.5766 157.412C96.8118 157.314 97.064 157.264 97.3186 157.264C97.5733 157.264 97.8255 157.314 98.0608 157.412C98.2961 157.509 98.5099 157.652 98.69 157.832C98.8701 158.012 99.0129 158.226 99.1103 158.461C99.2077 158.697 99.2578 158.949 99.2577 159.204Z" fill="white"/>
<path d="M91.2738 15.5107C90.9903 15.2369 90.4228 11.3957 89.9068 11.4251C89.3902 11.4585 88.9396 15.2662 88.6985 15.5181C88.2142 16.0214 84.6726 16.3784 84.7013 16.865C84.7301 17.3537 88.2078 17.5831 88.7001 18.0587C88.9743 18.3252 89.5505 22.1774 90.0675 22.146C90.5838 22.1163 91.025 18.3175 91.2762 18.0567C91.7431 17.5701 95.312 17.1943 95.284 16.7041C95.2546 16.2174 91.7457 15.9696 91.2738 15.5107ZM99.0343 141.444C98.7511 141.17 98.183 137.329 97.667 137.359C97.1513 137.39 96.7001 141.2 96.4586 141.452C95.9747 141.955 92.4331 142.312 92.4625 142.799C92.4912 143.285 95.97 143.517 96.4616 143.992C96.7355 144.259 97.3119 148.111 97.8286 148.079C98.3439 148.05 98.7858 144.249 99.037 143.99C99.5042 143.504 103.074 143.128 103.045 142.638C103.016 142.149 99.5069 141.903 99.0343 141.444Z" fill="#004587"/>
<path d="M72.2581 150.12C71.9749 149.847 71.4068 146.003 70.8918 146.035C70.3751 146.066 69.9239 149.876 69.6834 150.128C69.1992 150.631 65.6566 150.988 65.6863 151.475C65.715 151.961 69.1932 152.193 69.6844 152.668C69.9583 152.933 70.5354 156.787 71.0521 156.756C71.5671 156.726 72.0086 152.927 72.2605 152.666C72.7274 152.18 76.2973 151.804 76.2683 151.316C76.2392 150.825 72.7301 150.581 72.2581 150.12ZM27.1151 37.6926C26.8319 37.4171 26.2635 33.5756 25.7478 33.607C25.2311 33.6384 24.7806 37.4465 24.5398 37.698C24.0558 38.2013 20.5139 38.5583 20.5427 39.0469C20.5714 39.5336 24.0502 39.763 24.5411 40.2403C24.816 40.5048 25.3924 44.3573 25.9095 44.3276C26.4241 44.2978 26.866 40.4974 27.1175 40.2366C27.5847 39.752 31.154 39.3762 31.1253 38.886C31.0962 38.3957 27.5867 38.1515 27.1151 37.6926Z" fill="white"/>
<path d="M117.339 127.655C117.373 127.1 120.473 126.76 122.182 126.319C121.526 124.641 119.974 121.894 120.433 121.579C120.823 121.312 122.442 122.887 123.774 124.032C124.194 122.264 124.716 119.902 125.207 119.932C125.761 119.965 126.264 122.978 126.631 124.722C128.299 123.99 131.043 122.619 131.355 123.075C131.63 123.481 130.054 125.266 128.884 126.615C130.617 127.035 132.849 127.42 132.821 127.89C132.789 128.449 129.661 128.775 127.961 129.226C128.608 130.904 130.179 133.654 129.719 133.969C129.331 134.233 127.734 132.668 126.404 131.528C125.986 133.295 125.46 135.643 124.971 135.615C124.418 135.582 123.922 132.579 123.552 130.834C121.886 131.567 119.12 132.943 118.806 132.485C118.529 132.081 120.116 130.292 121.285 128.943C119.55 128.525 117.312 128.127 117.339 127.655Z" fill="#FF6086"/>
</g>
<defs>
<clipPath id="clip0_53_127">
<rect width="171" height="171" fill="white"/>
</clipPath>
</defs>
</svg>
